<svg width="24" height="24" viewBox="0 0 24 24" fill="none" xmlns="http://www.w3.org/2000/svg">
<path fill-rule="evenodd" clip-rule="evenodd" d="M21.0094 11.9254C21.0094 11.8473 21.0094 11.7692 20.9982 11.7023C20.8855 6.96065 17.0115 3.12274 12.2252 3.01117C12.1577 3.00001 12.0788 3 12 3H5.24294C4.00415 3 2.99059 4.00411 2.99059 5.23136V18.6195C2.99059 19.8468 4.00415 20.8509 5.24294 20.8509H10.8738C11.4932 20.8509 12 20.3488 12 19.7352C12 19.1216 11.4932 18.6195 10.8738 18.6195H5.24294V5.23136H12V11.9254H21.0094ZM14.2524 5.62186C16.1669 6.28011 17.6984 7.79743 18.3629 9.69408H14.2524V5.62186ZM19.8832 16.3882H18.7571V15.2725C18.7571 14.6589 18.2503 14.1568 17.6309 14.1568C17.0115 14.1568 16.5047 14.6589 16.5047 15.2725V16.3882H15.3785C14.7591 16.3882 14.2524 16.8902 14.2524 17.5038C14.2524 18.1175 14.7591 18.6195 15.3785 18.6195H16.5047V19.7352C16.5047 20.3488 17.0115 20.8509 17.6309 20.8509C18.2503 20.8509 18.7571 20.3488 18.7571 19.7352V18.6195H19.8832C20.5026 18.6195 21.0094 18.1175 21.0094 17.5038C21.0094 16.8902 20.5026 16.3882 19.8832 16.3882Z" fill="white"/>
</svg>
