<svg width="24" height="24" viewBox="0 0 24 24" fill="none" xmlns="http://www.w3.org/2000/svg">
<path fill-rule="evenodd" clip-rule="evenodd" d="M18.8022 3.21765H5.61535C4.40656 3.21765 3.41754 4.19745 3.41754 5.39498V18.4589C3.41754 19.6565 4.40656 20.6363 5.61535 20.6363H18.8022C20.011 20.6363 21 19.6565 21 18.4589V5.39498C21 4.19745 20.022 3.21765 18.8022 3.21765ZM18.8022 18.4589H5.61535V5.39498H18.8022V18.4589ZM8.91207 16.2816H11.1099V14.1043H10.011V9.74963H11.1099V7.57231H8.91207C8.30767 7.57231 7.81316 8.06221 7.81316 8.66097V15.193C7.81316 15.7917 8.30767 16.2816 8.91207 16.2816ZM16.6044 15.193V8.66097C16.6044 8.06221 16.1099 7.57231 15.5055 7.57231H13.3077V9.74963H14.4066V14.1043H13.3077V16.2816H15.5055C16.1209 16.2816 16.6044 15.7917 16.6044 15.193Z" fill="white"/>
</svg>
