<svg width="24" height="24" viewBox="0 0 24 24" fill="none" xmlns="http://www.w3.org/2000/svg">
<path fill-rule="evenodd" clip-rule="evenodd" d="M21.7375 12.8737C21.225 11.4496 20.0126 10.4094 18.5501 10.0998C17.2626 7.78411 14.7875 6.28571 12 6.28571C9.825 6.28571 7.7875 7.22685 6.375 8.79956C3.9125 9.10914 2 11.1896 2 13.7158C2 16.4526 4.2375 18.6692 7 18.6692H17.625C20.0375 18.6692 22 16.725 22 14.335C21.9875 13.8273 21.9125 13.3443 21.7375 12.8737ZM17.6126 16.1925H6.98756C5.61256 16.1925 4.48756 15.078 4.48756 13.7158C4.48756 12.3536 5.61256 11.2391 6.98756 11.2391C7.20006 11.2391 7.41256 11.2639 7.61256 11.3258C8.46256 9.79025 10.1001 8.76241 11.9876 8.76241C14.3751 8.76241 16.3625 10.4218 16.8625 12.6384C17.0875 12.527 17.3501 12.4775 17.6126 12.4775C18.4251 12.4775 19.125 12.9976 19.375 13.7158C19.45 13.9139 19.4876 14.1121 19.4876 14.335C19.4876 15.3628 18.6501 16.1925 17.6126 16.1925Z" fill="white"/>
</svg>
