<svg width="607" height="899" viewBox="0 0 607 899" fill="none" xmlns="http://www.w3.org/2000/svg">
<path d="M577.802 582.953C579.332 610.793 557.795 634.506 529.937 635.655L121.363 652.5C94.3084 653.615 71.2822 632.992 69.4212 605.979L32.0107 62.9562C29.7952 30.7978 58.1405 4.97692 89.9534 10.1739L510.793 78.921C533.956 82.7047 551.369 102.089 552.657 125.523L577.802 582.953Z" fill="url(#paint0_linear_2309_263)"/>
<g clip-path="url(#clip0_2309_263)">
<path d="M382.334 154.04C380.322 156.187 376.908 156.334 374.732 154.332C372.555 152.347 372.406 148.979 374.435 146.831C376.447 144.684 379.86 144.537 382.037 146.539C384.214 148.524 384.345 151.892 382.334 154.04Z" fill="#6914E7"/>
<path d="M451.693 217.237C449.681 219.384 446.267 219.531 444.091 217.529C441.914 215.544 441.766 212.176 443.794 210.029C445.806 207.881 449.219 207.734 451.396 209.736C453.573 211.721 453.705 215.073 451.693 217.237Z" fill="#6914E7"/>
<path d="M474.813 238.291C472.801 240.439 469.387 240.586 467.21 238.584C465.034 236.599 464.885 233.231 466.914 231.083C468.925 228.936 472.339 228.789 474.516 230.79C476.692 232.776 476.824 236.144 474.813 238.291Z" fill="#BCBFFD"/>
<path d="M424.83 154.397C422.818 156.545 419.404 156.691 417.228 154.69C415.051 152.705 414.902 149.337 416.931 147.189C418.943 145.041 422.356 144.895 424.533 146.896C426.71 148.881 426.858 152.233 424.83 154.397Z" fill="#6914E7"/>
<path d="M447.949 175.452C445.938 177.6 442.524 177.746 440.347 175.745C438.171 173.76 438.022 170.392 440.051 168.244C442.062 166.096 445.476 165.95 447.653 167.951C449.829 169.936 449.978 173.304 447.949 175.452Z" fill="#6914E7"/>
<path d="M421.103 112.63C419.091 114.777 415.678 114.924 413.501 112.922C411.324 110.937 411.176 107.569 413.204 105.421C415.216 103.274 418.629 103.127 420.806 105.129C422.983 107.114 423.115 110.465 421.103 112.63Z" fill="#6914E7"/>
<path d="M444.223 133.684C442.211 135.832 438.797 135.979 436.621 133.977C434.444 131.992 434.295 128.624 436.324 126.476C438.336 124.328 441.749 124.182 443.926 126.183C446.103 128.168 446.234 131.537 444.223 133.684Z" fill="#BCBFFD"/>
<path d="M467.342 154.756C465.331 156.903 461.917 157.05 459.74 155.048C457.563 153.063 457.415 149.695 459.443 147.547C461.455 145.4 464.869 145.253 467.046 147.255C469.222 149.24 469.354 152.591 467.342 154.756Z" fill="#6914E7"/>
<path d="M490.446 175.81C488.434 177.958 485.02 178.105 482.843 176.103C480.667 174.118 480.518 170.75 482.547 168.602C484.558 166.454 487.972 166.308 490.149 168.309C492.342 170.294 492.474 173.663 490.446 175.81Z" fill="#6914E7"/>
<path d="M513.565 196.865C511.553 199.013 508.14 199.159 505.963 197.158C503.786 195.173 503.638 191.805 505.666 189.657C507.678 187.509 511.092 187.363 513.269 189.364C515.462 191.349 515.594 194.717 513.565 196.865Z" fill="#6914E7"/>
<path d="M440.479 91.9164C438.467 94.0642 435.054 94.2106 432.877 92.2093C430.7 90.2242 430.552 86.8561 432.58 84.7083C434.592 82.5605 438.006 82.4141 440.182 84.4154C442.359 86.4005 442.491 89.7524 440.479 91.9164Z" fill="#BCBFFD"/>
<path d="M486.719 134.042C484.707 136.19 481.293 136.337 479.117 134.335C476.94 132.35 476.791 128.982 478.82 126.834C480.832 124.687 484.245 124.54 486.422 126.541C488.599 128.526 488.731 131.878 486.719 134.042Z" fill="#6914E7"/>
<path d="M509.838 155.097C507.827 157.245 504.413 157.391 502.236 155.39C500.06 153.405 499.911 150.037 501.94 147.889C503.951 145.741 507.365 145.595 509.542 147.596C511.718 149.581 511.85 152.949 509.838 155.097Z" fill="#BCBFFD"/>
</g>
<path d="M575.367 897.566C569.462 899.158 399.506 888.099 393.467 883.653C392.76 883.189 394.75 826.832 394.75 826.832C395.016 826.058 369.602 750.568 369.602 750.568L473.911 741.013L504.567 837.073C504.567 837.073 526.929 848.087 546.326 858.815C546.348 858.837 546.37 858.837 546.37 858.881C558.336 865.472 568.71 871.444 571.077 873.568C577.159 879.075 581.251 896.04 575.367 897.566Z" fill="white"/>
<path d="M575.367 897.566C569.462 899.158 399.506 888.099 393.445 883.653C392.737 883.189 394.75 826.832 394.75 826.832C394.817 826.633 393.246 821.678 390.857 814.357L499.745 821.944L504.567 837.073C504.567 837.073 526.929 848.065 546.326 858.815C546.37 858.837 546.393 858.837 546.393 858.859C558.358 865.45 568.732 871.444 571.099 873.546C577.159 879.075 581.251 896.018 575.367 897.566Z" fill="#EBEBEB"/>
<path d="M576.009 898.251C569.926 899.843 399.793 888.32 393.578 883.785C391.211 882.082 390.437 855.673 394.728 826.831L504.412 834.373C504.412 834.373 565.458 867.794 571.74 873.5C577.999 879.229 582.091 896.68 576.009 898.251Z" fill="#6914E7"/>
<path d="M574.04 891.284C545.574 888.651 430.493 880.733 402.138 880.291C401.916 880.291 401.894 880.446 402.115 880.468C430.272 883.697 545.419 890.686 573.996 891.748C574.615 891.77 574.637 891.35 574.04 891.284Z" fill="#263238"/>
<path d="M561.212 866.666C554.466 865.936 547.631 868.701 543.672 872.483C539.868 876.11 536.461 881.352 536.262 887.28C536.262 887.457 536.572 887.479 536.616 887.302C539.005 876.243 549.821 867.13 561.19 867.042C561.433 867.02 561.455 866.688 561.212 866.666Z" fill="#263238"/>
<path d="M513.171 837.846C501.758 836.917 488.266 840.058 480.525 848.905C480.215 849.259 480.724 849.679 481.078 849.525C491.761 844.902 501.824 841.606 513.282 839.262C514.078 839.107 513.989 837.912 513.171 837.846Z" fill="#263238"/>
<path d="M521.753 841.872C510.34 840.943 496.848 844.083 489.106 852.931C488.797 853.262 489.305 853.705 489.659 853.55C500.342 848.927 510.406 845.632 521.863 843.309C522.66 843.132 522.571 841.938 521.753 841.872Z" fill="#263238"/>
<path d="M530.335 845.919C518.922 844.99 505.43 848.131 497.688 856.978C497.379 857.332 497.887 857.752 498.241 857.598C508.924 852.975 518.988 849.679 530.445 847.335C531.242 847.158 531.153 845.985 530.335 845.919Z" fill="#263238"/>
<path d="M538.917 849.945C527.504 849.016 514.011 852.157 506.292 861.004C505.983 861.336 506.491 861.756 506.845 861.624C517.528 857.001 527.592 853.705 539.049 851.383C539.823 851.206 539.735 850.012 538.917 849.945Z" fill="#263238"/>
<path d="M411.228 853.704C398.422 852.864 397.117 872.77 409.945 873.611C422.752 874.451 424.057 854.545 411.228 853.704Z" fill="#263238"/>
<path d="M527.57 808.229C522.107 803.054 514.52 807.234 510.627 811.967C504.324 819.642 499.59 830.657 498.285 840.455C498.263 840.699 498.44 840.809 498.617 840.809C498.816 841.65 499.723 842.402 500.608 841.871C509.123 836.806 518.833 832.427 525.535 824.906C529.45 820.505 532.724 813.117 527.57 808.229ZM511.932 831.542C507.818 834.13 503.594 836.518 499.546 839.261C501.979 833.709 504.147 828.091 507.133 822.783C508.548 820.262 510.074 817.674 511.822 815.373C514.564 811.768 526.398 802.987 526.707 815.484C526.862 822.363 516.843 828.445 511.932 831.542Z" fill="#263238"/>
<path d="M469.62 842.756C479.463 844.946 489.903 842.822 499.767 841.96C500.785 841.871 501.094 840.721 500.763 839.947C500.918 839.836 501.006 839.637 500.829 839.46C494.039 832.272 483.776 826.079 474.154 823.557C468.227 821.987 459.623 823.027 458.207 830.414C456.902 837.426 463.892 841.473 469.62 842.756ZM463.184 835.811C456.128 825.504 470.881 825.703 475.194 827.03C477.981 827.893 480.702 829.087 483.334 830.304C488.841 832.869 493.906 836.165 499.104 839.261C494.238 839.394 489.416 839.925 484.55 840.235C478.755 840.566 467.077 841.495 463.184 835.811Z" fill="#263238"/>
<path d="M503.151 826.566L388.402 822.253C388.402 822.253 338.614 664.175 326.803 656.323C312.559 646.834 163.615 660.746 118.339 623.455C92.3944 602.089 87.7274 559.799 87.7274 559.799L170.228 521.424C170.228 521.424 185.711 534.584 190.555 536.464C208.603 543.476 361.108 528.325 404.526 561.303C451.704 597.112 503.151 826.566 503.151 826.566Z" fill="#263238"/>
<path d="M503.151 826.566L388.402 822.253C388.402 822.253 338.614 664.175 326.803 656.323C312.559 646.834 163.615 660.746 118.339 623.455C92.3944 602.089 87.7274 559.799 87.7274 559.799L170.228 521.424C170.228 521.424 185.711 534.584 190.555 536.464C208.603 543.476 361.108 528.325 404.526 561.303C451.704 597.112 503.151 826.566 503.151 826.566Z" fill="#263238"/>
<path d="M492.69 805.002C473.248 803.896 478.844 803.962 459.402 803.078C449.891 802.635 402.049 800.335 393.113 801.419C392.914 801.441 392.914 801.751 393.091 801.795C401.939 803.52 449.802 804.781 459.335 805.046C478.799 805.577 473.203 805.223 492.667 805.555C493.043 805.555 493.066 805.024 492.69 805.002Z" fill="#37474F"/>
<path d="M108.319 565.925C116.901 586.009 128.845 606.225 147.69 618.08C151.384 620.425 155.453 621.663 159.766 622.703C203.45 630.886 248.306 630.201 292.675 632.833C306.1 633.563 319.526 634.138 332.886 636.128C335.54 636.726 337.575 636.726 340.162 638.451C342.374 640.331 343.458 642.277 344.741 644.246C353.721 659.994 359.958 676.671 366.483 693.459C379.046 726.879 390.57 760.654 401.098 794.738C388.734 761.295 376.525 727.786 363.232 694.72C359.87 686.492 356.508 678.242 352.969 670.08C348.413 660.481 344.608 649.532 337.641 641.702C332.023 639.446 325.188 639.513 319.084 638.805C310.236 638.097 301.345 637.721 292.453 637.19C260.935 635.399 216.544 633.895 185.623 629.98C172.484 627.923 158.152 627.104 146.429 620.137C127.518 607.64 116.017 586.672 108.319 565.925Z" fill="#37474F"/>
<path d="M336.668 542.083L199.513 647.631C166.291 644.092 135.193 637.301 118.361 623.455C92.3944 602.089 87.7274 559.799 87.7274 559.799L170.228 521.402C170.228 521.402 185.711 534.562 190.555 536.442C202.808 541.22 276.75 535.779 336.668 542.083Z" fill="#37474F"/>
<path d="M183.013 377.391C231.363 421.628 276.108 470 279.47 494.552C284.115 528.547 263.147 537.793 253.791 537.815C228.311 537.881 182.792 434.302 166.999 394.754C151.649 356.357 172.396 367.682 183.013 377.391Z" fill="#6914E7"/>
<path opacity="0.1" d="M237.048 527.353C211.766 500.059 179.717 426.626 166.999 394.776C151.848 356.843 171.909 367.438 182.637 377.082L237.048 527.353Z" fill="black"/>
<path d="M55.9657 560.552C56.3417 560.995 213.071 539.297 214.642 537.616C216.831 535.249 199.048 408.401 172.706 371.552C166.114 362.329 142.934 361.134 131.897 369.031C77.2213 408.29 54.6386 558.96 55.9657 560.552Z" fill="#6914E7"/>
<path d="M125.572 372.105C79.1677 407.185 33.0512 468.452 32.0559 503.178C31.0827 537.461 43.0929 534.364 46.4991 534.21C67.246 533.236 117.786 438.725 133.379 400.085C148.84 361.754 137.051 363.413 125.572 372.105Z" fill="#6914E7"/>
<path d="M74.5229 507.933C77.0001 503.664 79.5437 499.44 81.9546 495.127L89.32 482.298C94.186 473.716 99.1405 465.178 103.874 456.508C108.784 447.948 113.473 439.278 118.162 430.586C120.507 426.25 122.829 421.893 125.063 417.492C127.385 413.134 129.509 408.689 131.654 404.221C128.336 413.532 124.134 422.535 119.799 431.426C115.442 440.318 110.708 448.988 105.975 457.68C101.065 466.262 96.1324 474.844 90.9125 483.227C85.7147 491.61 80.3621 499.948 74.5229 507.933Z" fill="#263238"/>
<path d="M126.611 415.634C127.474 414.041 128.491 412.626 129.509 411.21C130.04 410.525 130.548 409.817 131.101 409.131C131.654 408.446 132.185 407.76 132.804 407.074C132.406 408.866 131.499 410.458 130.46 411.918C129.398 413.334 128.159 414.661 126.611 415.634Z" fill="#263238"/>
<path d="M135.414 370.114C136.609 372.039 137.869 373.896 139.152 375.754C140.457 377.59 141.784 379.404 143.134 381.195C145.854 384.757 148.663 388.251 151.627 391.569C154.591 394.909 157.621 398.16 160.828 401.212C163.991 404.309 167.331 407.229 170.737 410.038L169.499 410.215C169.565 410.104 169.742 409.816 169.852 409.595C169.985 409.352 170.096 409.087 170.206 408.843C170.427 408.335 170.649 407.804 170.848 407.251C171.268 406.167 171.622 405.061 171.976 403.955C172.684 401.721 173.303 399.465 173.9 397.187C174.497 394.909 175.05 392.631 175.625 390.33L177.262 383.429C177.019 385.774 176.687 388.118 176.333 390.463C176.001 392.808 175.559 395.13 175.117 397.474C174.63 399.797 174.121 402.119 173.48 404.42C173.148 405.57 172.816 406.72 172.396 407.848C172.197 408.423 171.976 408.976 171.755 409.551C171.622 409.839 171.511 410.126 171.379 410.414C171.312 410.546 171.246 410.701 171.157 410.856C171.069 411.011 171.025 411.121 170.87 411.343L170.339 412.117L169.631 411.542C166.181 408.711 162.73 405.835 159.545 402.65C157.909 401.102 156.382 399.443 154.834 397.828C154.06 397.01 153.33 396.147 152.6 395.307C151.848 394.466 151.118 393.626 150.411 392.741C147.513 389.291 144.815 385.663 142.271 381.903C139.794 378.099 137.427 374.206 135.414 370.114Z" fill="#263238"/>
<path d="M163.35 396.015C156.338 394.998 144.372 379.271 140.833 367.261C140.59 366.443 143.399 358.923 146.385 349.633C148.177 343.993 150.034 337.667 151.317 331.762L186.353 348.77C186.353 348.77 180.027 360.338 177.881 370.645C177.704 371.508 177.616 372.326 177.616 373.123C177.594 373.233 177.616 373.388 177.572 373.543C177.328 378.276 174.32 397.607 163.35 396.015Z" fill="white"/>
<path d="M177.594 373.122C177.572 373.233 177.594 373.365 177.572 373.542C176.377 373.454 175.117 373.255 173.723 372.923C152.799 367.88 153.197 341.139 153.839 333.022L186.375 348.792C186.375 348.792 180.049 360.36 177.859 370.667C177.704 371.485 177.616 372.304 177.594 373.122Z" fill="#263238"/>
<path d="M214.155 287.37C214.155 287.37 221.012 295.863 221.565 305.307C222.14 314.752 211.678 327.448 211.678 327.448L214.155 287.37Z" fill="#263238"/>
<path d="M162.31 285.711C153.817 296.881 147.004 335.698 152.976 347.111C161.602 363.655 182.438 372.658 198.208 360.736C213.492 349.19 221.454 298.451 214.177 287.37C203.45 271.069 174.873 269.211 162.31 285.711Z" fill="white"/>
<path d="M184.296 315.925C185.49 315.969 186.618 315.814 187.812 315.726C189.162 315.637 190.245 315.704 191.351 314.841C191.948 314.377 192.081 313.271 191.683 312.652C190.776 311.192 189.095 310.904 187.458 310.948C185.689 310.993 184.34 311.479 183.013 312.629C181.708 313.735 182.703 315.859 184.296 315.925Z" fill="#263238"/>
<path d="M210.705 321.831C209.577 321.388 208.625 320.813 207.542 320.282C206.347 319.663 205.308 319.309 204.622 318.071C204.246 317.407 204.578 316.345 205.175 315.925C206.591 314.952 208.249 315.328 209.731 316.014C211.346 316.744 212.386 317.717 213.16 319.309C213.934 320.835 212.187 322.406 210.705 321.831Z" fill="#263238"/>
<path d="M180.049 346.736C180.535 347.465 181 348.439 181.929 348.726C182.814 348.992 183.964 348.793 184.849 348.66C184.937 348.638 185.003 348.748 184.937 348.815C184.052 349.677 182.504 350.009 181.354 349.545C180.226 349.102 179.85 347.952 179.783 346.824C179.783 346.647 179.983 346.625 180.049 346.736Z" fill="#263238"/>
<path d="M184.406 339.525C185.401 342.09 187.281 343.749 189.493 344.7C190.489 345.12 191.572 345.386 192.656 345.497C192.877 345.541 193.076 345.563 193.276 345.563C193.475 345.585 193.652 345.585 193.873 345.585C194.182 345.607 194.404 345.386 194.514 345.12V345.098C194.536 345.01 194.536 344.921 194.536 344.833C194.536 344.833 194.536 344.833 194.536 344.811L194.58 344.59C195.045 342.599 195.487 339.525 195.487 339.525C196.151 340.033 199.513 342.488 199.69 341.427C200.973 332.668 202.388 322.914 201.813 313.934C201.813 313.646 201.349 313.602 201.327 313.912C199.756 322.294 199.69 330.876 198.252 339.303C197.146 338.596 195.399 337.357 194.337 337.158C194.028 337.18 193.607 343.13 193.32 344.015C193.32 344.015 193.32 344.059 193.276 344.103C189.825 343.838 187.503 342.289 184.716 339.348C184.539 339.149 184.296 339.281 184.406 339.525Z" fill="#263238"/>
<path d="M189.073 323.711C189.073 323.6 188.852 323.777 188.83 323.888C188.299 326.476 187.237 329.351 184.716 329.638C184.627 329.638 184.605 329.771 184.694 329.793C187.635 330.059 188.985 326.232 189.073 323.711Z" fill="#263238"/>
<path d="M187.436 320.482C183.389 319.177 181.088 327.36 184.826 328.577C188.52 329.771 190.82 321.565 187.436 320.482Z" fill="#263238"/>
<path d="M204.135 326.895C204.18 326.806 204.29 327.072 204.268 327.182C203.45 329.682 202.941 332.712 204.998 334.216C205.064 334.26 205.02 334.393 204.932 334.349C202.233 333.132 202.963 329.129 204.135 326.895Z" fill="#263238"/>
<path d="M207.166 324.904C211.324 325.767 209.267 334.039 205.418 333.221C201.614 332.425 203.671 324.175 207.166 324.904Z" fill="#263238"/>
<path d="M154.126 319.397C161.27 321.343 164.124 308.78 164.124 308.78C164.124 308.78 179.009 310.284 185.247 292.169C185.247 292.169 204.091 304.688 217.539 296.726C230.987 288.785 209.378 254.967 169.852 271.489C169.852 271.489 153.485 270.162 147.778 282.349C142.094 294.58 145.5 317.052 154.126 319.397Z" fill="#263238"/>
<path d="M185.291 289.935C185.247 289.736 184.937 289.736 184.915 289.957C184.097 302.808 173.369 311.943 160.496 307.718C160.054 307.586 159.833 308.205 160.253 308.382C172.639 313.867 187.923 304.025 185.291 289.935Z" fill="#263238"/>
<path d="M203.052 268.879C203.03 268.879 203.008 268.901 203.03 268.924C207.276 270.671 211.567 272.573 215.106 275.537C220.437 279.983 226.453 289.449 220.304 295.709C211.855 304.291 197.345 297.611 188.675 292.811C188.1 292.502 187.547 293.232 188.078 293.652C196.372 300.243 215.549 306.436 222.693 295.112C230.611 282.571 212.695 271.622 203.052 268.879Z" fill="#263238"/>
<path d="M178.788 335.92C173.657 334.062 170.25 328.887 170.803 323.202C171.489 316.501 177.483 311.59 184.185 312.254C190.887 312.917 195.797 318.934 195.133 325.635C194.47 332.337 188.454 337.247 181.752 336.584C180.712 336.495 179.717 336.252 178.788 335.92ZM186.596 314.466C185.777 314.178 184.915 313.979 184.03 313.891C178.213 313.316 173.015 317.562 172.44 323.379C171.865 329.196 176.112 334.394 181.929 334.969C187.746 335.544 192.944 331.298 193.519 325.481C194.005 320.57 191.041 316.102 186.596 314.466Z" fill="#37474F"/>
<path d="M206.126 342.223C201.725 340.631 199.38 334.659 200.862 328.466C201.592 325.325 203.185 322.582 205.352 320.747C207.564 318.844 210.13 318.092 212.541 318.667C214.974 319.243 216.898 321.034 218.026 323.755C219.11 326.365 219.309 329.528 218.579 332.668C217.03 339.215 211.788 343.617 206.9 342.467C206.613 342.4 206.37 342.334 206.126 342.223ZM212.74 320.437C212.54 320.371 212.341 320.304 212.142 320.26C210.262 319.818 208.205 320.415 206.392 321.985C204.512 323.6 203.096 326.055 202.432 328.842C201.083 334.526 203.229 339.923 207.254 340.874C211.258 341.825 215.615 337.977 216.964 332.292C217.628 329.483 217.451 326.696 216.5 324.396C215.681 322.405 214.354 321.034 212.74 320.437Z" fill="#37474F"/>
<path d="M194.404 326.939L193.674 325.479C195.841 324.396 200.486 323.334 202.654 327.138L201.238 327.957C199.314 324.528 194.603 326.829 194.404 326.939Z" fill="#37474F"/>
<path d="M140.678 317.451L139.44 316.389C139.948 315.814 144.394 310.749 148.088 311.014C151.538 311.28 172.374 318.313 173.258 318.623L172.728 320.171C166.756 318.137 150.632 312.85 147.955 312.651C145.544 312.452 141.895 316.035 140.678 317.451Z" fill="#37474F"/>
<path d="M160.253 318.292C160.253 318.292 156.073 303.583 149.681 304.667C143.288 305.751 143.554 325.082 149.039 329.616C154.524 334.151 158.838 329.152 158.838 329.152L160.253 318.292Z" fill="white"/>
<path d="M149.902 310.219C149.813 310.175 149.725 310.307 149.813 310.374C153.618 313.691 154.524 318.602 154.679 323.423C153.927 321.322 152.445 319.818 149.725 320.614C149.592 320.659 149.636 320.88 149.769 320.902C151.715 321.145 152.91 321.919 153.64 323.777C154.148 325.104 154.281 326.608 154.502 328.024C154.569 328.488 155.365 328.533 155.365 328.024C155.365 327.98 155.365 327.958 155.365 327.913C157.4 322.295 155.763 312.873 149.902 310.219Z" fill="#263238"/>
<path d="M178.302 370.358L166.933 390.397L142.293 360.714L133.468 368.389C133.468 368.389 155.697 413.687 156.073 411.785L167.331 394.665L179.142 408.755L181.708 376.971L178.302 370.358Z" fill="#EBEBEB"/>
<path d="M181.376 393.117C181.619 387.853 182.017 382.567 181.995 377.281C181.995 377.104 181.708 376.971 181.619 377.192C179.938 382.102 179.142 402.252 178.567 407.03C178.545 407.008 178.523 406.985 178.523 406.963C178.036 406.366 167.508 394.511 167.375 394.666C165.053 397.32 156.803 409.772 156.205 410.922C152.689 403.734 137.56 375.224 133.225 368.323C133.092 368.124 132.782 368.234 132.871 368.478C135.835 375.998 155.299 413.532 155.652 413.488C155.852 413.687 166.114 398.337 167.464 395.396C169.189 397.917 179.651 411.144 179.783 410.37C180.646 405.15 181.133 398.381 181.376 393.117Z" fill="#263238"/>
<path d="M266.066 444.077C263.965 427.931 259.586 405.414 253.857 400.659C247.841 395.66 226.01 378.961 219.685 376.727C213.359 374.493 185.158 363.5 179.938 366.464C175.758 368.831 180.602 379.824 194.028 385.154C205.817 389.843 211.877 394.2 215.239 395.682C218.667 397.209 226.895 408.422 224.595 413.355C223.246 416.252 214.73 419.614 209.488 417.181C204.246 414.748 203.008 404.308 197.036 399.354C191.042 394.377 180.425 394.908 179.783 397.761C179.142 400.615 182.637 401.986 188.011 411.784C191.462 418.088 191.572 433.128 199.424 443.966C203.361 449.407 210.196 463.895 210.196 463.895L266.066 444.077Z" fill="white"/>
<path d="M191.418 394.864C189.56 394.422 187.547 393.846 186.176 392.431C185.6 391.834 185.158 391.104 185.003 390.263C184.915 389.821 184.915 389.356 184.981 388.914C185.048 388.516 185.158 387.897 185.512 387.631C185.623 387.565 185.468 387.432 185.401 387.521C185.269 387.764 185.07 387.941 184.915 388.162C184.782 388.339 184.694 388.56 184.605 388.759C184.428 389.18 184.362 389.622 184.362 390.064C184.384 391.06 184.76 391.989 185.401 392.763C186.883 394.554 189.206 395.063 191.44 394.997C191.506 395.019 191.506 394.886 191.418 394.864Z" fill="#263238"/>
<path d="M253.835 400.637C248.77 392.542 235.787 377.944 222.825 372.857C214.067 369.428 183.743 383.894 184.561 389.667C185.401 395.439 190.555 395.506 198.208 394.665C200.995 394.356 215.77 389.18 218.247 392.299C221.808 396.766 226.276 411.984 226.276 411.984L253.835 400.637Z" fill="white"/>
<path d="M185.357 387.411C189.14 381.262 197.367 378.033 205.551 375.489C205.684 375.445 205.75 375.644 205.618 375.688C203.538 376.33 190.179 382.346 185.446 387.522C185.379 387.588 185.313 387.477 185.357 387.411Z" fill="#263238"/>
<path d="M253.835 400.637C248.77 392.542 235.787 377.944 222.826 372.856C214.067 369.428 190.024 388.052 190.843 393.847C191.683 399.619 199.093 400.15 207.299 397.363C209.953 396.456 218.888 390.285 221.366 393.382C224.927 397.85 233.641 408.953 233.641 408.953L253.835 400.637Z" fill="white"/>
<path d="M228.665 402.074C227.846 400.791 227.581 400.349 226.74 399.088C225.9 397.828 225.059 396.589 224.131 395.395C223.334 394.355 222.56 393.227 221.454 392.519C220.393 391.834 219.088 391.679 217.827 391.767C214.974 392.01 212.408 393.802 209.975 395.151C207.276 396.677 201.658 399.133 197.39 398.646C196.217 398.513 195.045 398.314 194.028 397.695C193.364 397.297 192.457 396.81 192.015 396.058C190.179 392.895 192.524 389.334 194.912 386.813C199.358 382.102 205.33 378.717 211.103 375.953C212.518 375.267 213.956 374.626 215.394 373.984C217.031 373.254 218.734 372.546 220.592 372.546C223.555 372.546 228.399 375.599 229.903 376.528C230.014 376.594 230.102 376.417 229.992 376.351C228.178 375.201 223.688 371.463 218.888 371.662C217.141 371.728 215.482 372.613 213.89 373.298C212.209 374.006 210.55 374.758 208.913 375.577C205.728 377.125 202.632 378.872 199.734 380.907C196.991 382.831 194.072 385.087 192.192 387.919C190.577 390.374 190.068 393.868 191.595 396.456C192.877 398.646 195.687 399.199 196.969 399.376C198.252 399.553 199.469 399.531 200.752 399.376C202.079 399.199 206.945 397.828 208.98 397.031C211.589 396.014 213.934 394.289 216.632 393.492C217.915 393.116 219.309 393.116 220.503 393.78C221.609 394.399 222.516 395.527 223.378 396.456C225.303 398.535 226.586 399.862 228.178 402.229C228.598 402.782 228.997 402.605 228.665 402.074Z" fill="#263238"/>
<path d="M257.595 407.692C255.737 403.844 252.707 388.051 249.699 383.185C246.691 378.319 232.911 361.465 226.431 362.151C218.269 362.991 226.652 377.766 230.876 383.871C235.101 389.953 234.305 400.238 234.305 400.238L257.595 407.692Z" fill="white"/>
<path d="M224.971 373.763C226.475 375.688 227.802 377.833 229.107 379.89C230.346 381.859 231.783 383.805 232.712 385.928C233.641 388.074 234.061 390.352 234.261 392.652C234.349 393.78 234.393 394.931 234.393 396.059C234.393 397.297 234.261 398.558 234.283 399.796C234.283 399.929 234.084 399.951 234.084 399.819C233.995 397.563 233.619 395.262 233.265 393.05C232.889 390.75 232.204 388.45 231.275 386.304C229.395 382.013 226.652 378.187 224.728 373.918C224.617 373.741 224.86 373.631 224.971 373.763Z" fill="#263238"/>
<path d="M234.15 401.964C234.637 405.879 233.42 409.816 231.96 413.421C231.208 415.235 230.324 417.005 229.306 418.686C228.289 420.389 227.072 422.003 225.878 423.463C223.511 426.449 221.41 429.524 219.862 432.93C218.313 436.336 217.34 440.03 216.632 443.834C216.433 439.985 216.854 436.004 218.181 432.244C219.441 428.484 221.631 425.033 223.998 421.981C226.431 418.973 228.421 415.943 230.191 412.537C231.894 409.219 233.641 405.813 234.15 401.964Z" fill="#263238"/>
<path d="M251.469 536.598C235.61 534.165 225.701 507.358 208.404 460.246C205.374 451.974 247.863 402.274 253.371 409.927C260.316 419.549 278.497 472.721 280.244 487.164C283.695 515.586 269.981 539.451 251.469 536.598Z" fill="white"/>
<path d="M217.495 486.522L269.694 437.663C269.694 437.663 283.451 480.794 281.77 498.732C280.067 516.669 273.432 537.04 251.778 537.77C235.565 538.323 217.495 486.522 217.495 486.522Z" fill="#6914E7"/>
<path d="M233.442 521.314C231.628 518.659 230.036 515.873 228.488 513.086C226.917 510.299 225.502 507.423 224.108 504.548C222.759 501.651 221.454 498.731 220.326 495.723C219.198 492.737 218.114 489.685 217.517 486.522C218.822 489.463 220.193 492.317 221.587 495.17L225.723 503.774C227.072 506.649 228.443 509.525 229.726 512.466C231.009 515.386 232.292 518.306 233.442 521.314Z" fill="#263238"/>
<path d="M228.377 495.413C230.921 492.737 233.685 490.238 236.384 487.716C239.082 485.173 241.803 482.673 244.545 480.218C250.053 475.286 255.582 470.376 261.156 465.532C262.682 464.205 264.209 462.9 265.779 461.595C267.438 460.201 269.274 459.029 270.933 457.636C271.065 457.525 271.22 457.724 271.109 457.835C269.782 459.073 268.632 460.489 267.327 461.772C265.978 463.077 264.585 464.359 263.213 465.642C260.493 468.142 257.75 470.619 255.007 473.096C249.522 478.051 243.993 482.961 238.33 487.716C235.145 490.415 232.004 493.224 228.643 495.723C228.443 495.834 228.222 495.59 228.377 495.413Z" fill="#263238"/>
<path d="M177.704 387.455L154.856 453.964C153.972 455.888 154.834 457.591 156.781 457.768L191.838 460.732C193.784 460.887 196.107 459.449 197.014 457.525L219.862 391.016C220.746 389.069 219.884 387.388 217.937 387.211L182.88 384.27C180.911 384.07 178.589 385.508 177.704 387.455Z" fill="#37474F"/>
<path d="M181.862 387.764L159.014 454.274C158.13 456.198 158.992 457.901 160.939 458.078L195.996 461.02C197.965 461.175 200.265 459.759 201.172 457.813L224.02 391.303C224.905 389.357 224.042 387.676 222.095 387.499L187.038 384.557C185.07 384.38 182.769 385.818 181.862 387.764Z" fill="#455A64"/>
<path d="M191.218 391.679C191.042 393.316 189.582 394.51 187.923 394.333C186.286 394.156 185.092 392.674 185.269 391.038C185.446 389.401 186.905 388.207 188.564 388.383C190.201 388.56 191.395 390.02 191.218 391.679Z" fill="#263238"/>
<path d="M41.7437 534.032C57.0274 536.421 76.3587 524.875 126.589 489.619C133.534 484.731 112.301 426.427 104.626 431.271C94.938 437.353 58.6641 463.055 56.2533 465.267C35.8824 483.934 31.3703 532.417 41.7437 534.032Z" fill="white"/>
<path d="M86.5994 448.457C86.5994 448.457 101.087 428.926 111.858 421.008C126.302 410.413 143.133 407.206 150.256 406.299C165.141 404.397 202.477 410.059 202.72 421.096C202.941 431.094 165.075 423.352 165.075 423.352C165.075 423.352 204.976 424.856 203.03 436.933C201.083 449.01 157.643 437.53 157.643 437.53C157.643 437.53 198.606 440.007 194.625 452.128C191.617 461.307 151.693 453.123 151.693 453.123C151.693 453.123 186.883 455.49 184.207 465.067C181.243 475.64 143.908 470.398 143.908 470.398C132.981 493.556 117.83 499.859 106.838 503.288C104.161 504.128 86.5994 448.457 86.5994 448.457Z" fill="white"/>
<path d="M151.317 421.959C156.006 421.959 160.762 421.937 165.429 422.38C170.096 422.8 174.763 423.397 179.385 424.26C190.71 426.361 197.456 429.457 197.036 429.303C186.662 425.874 169.963 424.083 165.274 423.663C160.607 423.242 155.962 422.579 151.295 422.158C151.162 422.114 151.207 421.959 151.317 421.959Z" fill="#263238"/>
<path d="M149.459 438.813C155.453 439.079 161.403 439.123 167.397 439.676C173.347 440.207 178.943 441.224 184.848 442.175C185.313 442.242 185.114 442.463 184.649 442.419C178.722 441.711 173.17 441.512 167.242 440.892C161.315 440.251 155.387 439.388 149.437 438.968C149.349 438.946 149.371 438.813 149.459 438.813Z" fill="#263238"/>
<path d="M145.279 452.991C154.126 452.836 162.929 454.296 171.555 455.933C171.976 456.021 171.71 456.264 171.268 456.198C162.553 455.048 155.741 454.097 145.279 453.301C145.102 453.301 145.08 453.013 145.279 452.991Z" fill="#263238"/>
<path d="M86.7321 440.583L104.935 512.091C104.935 512.091 51.9844 541.95 40.5493 533.59C29.1363 525.229 37.4528 484.266 50.8564 468.85C56.4523 462.413 86.7321 440.583 86.7321 440.583Z" fill="#6914E7"/>
<path d="M87.3514 442.972L86.6215 440.628L86.8206 440.694C81.7997 444.653 76.7568 448.546 71.7802 452.549C66.7815 456.509 61.827 460.512 57.0716 464.737C54.7049 466.838 52.3162 468.961 50.3034 471.328C48.2685 473.717 46.4991 476.326 44.8844 479.025C41.7215 484.466 39.5761 490.526 38.2269 496.764C38.8462 490.394 40.682 484.112 43.6901 478.383C45.172 475.508 46.9857 472.81 49.0648 470.288C51.166 467.767 53.5327 465.599 55.8993 463.409C60.7211 459.185 65.764 455.226 70.8955 451.399C76.0711 447.639 81.291 443.945 86.6657 440.495L86.8206 440.384L86.8648 440.561L87.3514 442.972Z" fill="#263238"/>
<path d="M74.9209 458.034C76.0489 461.551 76.8894 465.178 77.8184 468.762C78.7473 472.345 79.6321 475.928 80.4726 479.533C82.1535 486.744 83.7903 493.932 85.3386 501.165C85.7588 503.133 86.1791 505.124 86.5772 507.115C86.9974 509.238 87.1523 511.428 87.5725 513.529C87.6167 513.684 87.3513 513.75 87.3071 513.595C86.8647 511.826 86.1569 510.145 85.6925 508.375C85.1837 506.562 84.7414 504.726 84.2769 502.89C83.3922 499.307 82.5295 495.702 81.6891 492.096C80.0081 484.908 78.3492 477.697 76.8894 470.443C76.071 466.351 75.12 462.237 74.5449 458.101C74.5228 457.857 74.8545 457.791 74.9209 458.034Z" fill="#263238"/>
<path d="M103.321 505.743C104.139 507.911 104.803 510.122 105.555 512.334L105.201 512.555C91.222 521.204 76.2258 528.679 60.168 532.462L71.4483 527.529C78.5261 524.322 97.4593 515.187 104.714 511.671L104.471 512.246C104.073 510.056 103.63 507.911 103.321 505.743Z" fill="#263238"/>
<path d="M557.407 553.85C540 538.257 467.585 509.99 463.914 508.22C460.419 507.07 432.24 503.531 432.24 503.531C431.422 503.686 357.415 470.332 357.415 470.332L332.863 556.659L421.978 583.334C421.978 583.334 497.688 609.743 519.983 609.61C534.515 609.5 567.095 562.543 557.407 553.85Z" fill="white"/>
<path d="M519.983 609.589C497.688 609.744 422 583.312 422 583.312L402.668 577.539L420.518 498.511C427.352 501.519 431.975 503.51 432.263 503.51C432.263 503.51 460.441 507.071 463.936 508.221C467.607 509.99 540.044 538.258 557.452 553.851C567.117 562.521 534.515 609.478 519.983 609.589Z" fill="#EBEBEB"/>
<path d="M519.983 609.589C497.688 609.744 422 583.313 422 583.313L415.408 581.344C417.576 575.239 423.172 559.27 425.583 550.931C428.635 540.47 432.263 503.488 432.263 503.488C432.263 503.488 460.441 507.049 463.936 508.199C467.607 509.969 540.045 538.236 557.452 553.829C567.117 562.521 534.515 609.478 519.983 609.589Z" fill="#6914E7"/>
<path d="M512.905 603.638C510.317 590.367 512.994 576.543 517.816 568.293C522.46 560.353 529.627 553.032 538.518 551.97C538.784 551.948 538.872 552.545 538.629 552.655C522.482 558.627 511.092 581.055 513.436 603.572C513.48 603.992 512.994 604.08 512.905 603.638Z" fill="#263238"/>
<path d="M451.66 574.067C450.731 562.654 453.872 549.162 462.719 541.443C463.073 541.133 463.493 541.642 463.339 541.996C458.716 552.679 455.42 562.743 453.076 574.178C452.921 574.996 451.726 574.885 451.66 574.067Z" fill="#263238"/>
<path d="M459.777 577.982C458.848 566.569 461.989 553.077 470.837 545.358C471.19 545.048 471.611 545.557 471.456 545.911C466.833 556.594 463.538 566.658 461.193 578.093C461.016 578.889 459.844 578.801 459.777 577.982Z" fill="#263238"/>
<path d="M467.873 581.874C466.944 570.461 470.085 556.969 478.932 549.25C479.286 548.94 479.706 549.449 479.551 549.803C474.928 560.486 471.633 570.55 469.288 581.985C469.134 582.781 467.939 582.693 467.873 581.874Z" fill="#263238"/>
<path d="M475.99 585.789C475.061 574.376 478.202 560.884 487.049 553.165C487.403 552.855 487.823 553.364 487.669 553.718C483.046 564.401 479.75 574.465 477.406 585.9C477.251 586.696 476.056 586.608 475.99 585.789Z" fill="#263238"/>
<path d="M435.447 579.641C443.742 573.935 449.293 564.822 455.376 557.014C456.017 556.196 455.376 555.201 454.58 554.913C454.602 554.736 454.513 554.537 454.27 554.537C444.383 554.626 432.86 557.943 424.477 563.252C419.301 566.525 414.192 573.559 418.66 579.597C422.862 585.326 430.604 582.959 435.447 579.641ZM425.959 579.619C413.595 577.783 423.791 567.1 427.706 564.844C430.228 563.385 432.97 562.212 435.646 561.106C441.287 558.806 447.126 557.346 452.943 555.643C449.714 559.293 446.838 563.185 443.742 566.968C440.048 571.458 432.771 580.637 425.959 579.619Z" fill="#263238"/>
<path d="M449.669 512.534C442.171 512.999 440.07 521.426 440.888 527.508C442.216 537.351 447.082 548.321 453.363 555.93C453.518 556.107 453.717 556.063 453.85 555.93C454.58 556.35 455.774 556.195 455.973 555.2C458.052 545.512 461.458 535.426 460.507 525.385C459.932 519.501 456.769 512.07 449.669 512.534ZM456.106 539.85C455.199 544.65 454.071 549.361 453.341 554.183C450.93 548.631 448.276 543.212 446.418 537.417C445.533 534.652 444.671 531.799 444.184 528.924C443.41 524.478 445.025 509.814 454.381 518.086C459.534 522.664 457.167 534.144 456.106 539.85Z" fill="#263238"/>
<path d="M462.52 509.127C481.299 517.134 502.2 526.468 520.713 535.072C530.136 539.363 540.199 544.516 549.113 549.67C551.524 551.152 553.868 552.28 555.992 554.293C556.346 554.691 556.589 555.399 556.722 555.907C557.85 563.848 553.647 571.08 550.263 577.849C543.539 590.08 533.984 602.201 520.735 607.62C536.528 599.723 546.702 583.467 553.006 567.475C554.244 563.671 555.859 559.269 554.443 555.62C552.674 554.027 550.175 552.744 548.051 551.484C539.514 546.75 528.764 541.044 519.851 536.886C502.112 528.503 480.193 517.93 462.52 509.127Z" fill="#263238"/>
<path d="M60.345 560.176C60.345 560.176 60.3229 619.784 81.5784 638.275C99.4057 653.78 142.249 669.44 185.401 650.396C221.565 634.427 267.062 556.062 276.816 547.922C279.846 545.401 336.336 572.098 395.989 589.615L416.957 482.696C407.556 480.948 271.95 431.957 244.413 435.695C201.149 441.578 138.179 543.123 138.179 543.123L60.345 560.176Z" fill="#263238"/>
<path d="M115.176 551.173C115.132 550.863 114.667 550.974 114.667 551.262C114.712 559.29 111.792 567.717 106.638 573.8C100.733 580.767 92.0182 584.682 84.122 588.774C83.37 589.172 83.9893 589.747 84.7856 589.504C89.6074 588.022 94.2743 586.518 98.6758 583.997C102.679 581.696 106.373 578.821 109.16 575.083C114.313 568.182 116.569 559.777 115.176 551.173Z" fill="#37474F"/>
<path d="M374.335 578.114C378.759 559.158 377.741 564.666 381.966 545.644C384.023 536.354 394.529 489.619 395.015 480.639C395.015 480.44 394.728 480.373 394.639 480.55C391.41 488.955 381.944 535.89 380.041 545.246C376.171 564.334 377.476 558.893 373.804 578.003C373.738 578.379 374.247 578.49 374.335 578.114Z" fill="#37474F"/>
<path d="M139.019 542.835C133.932 550.421 129.641 558.096 123.957 565.285C126.877 556.747 131.698 548.298 139.019 542.835Z" fill="#37474F"/>
<path d="M68.993 564.423C70.2095 573.005 71.6472 581.564 73.3061 590.08C75.0313 598.551 76.8229 607.089 79.8088 615.162C81.2244 619.232 83.768 622.66 86.8867 625.602C104.78 641.682 136.1 649.379 159.169 642.08C190.798 629.87 219.087 586.143 237.998 558.561L252.287 536.797C254.321 534.01 255.781 531.157 258.568 528.835C259.386 528.37 260.116 528.436 260.691 528.459C265.69 529.078 270.357 531.002 274.98 532.617C291.259 538.743 307.162 545.622 323.242 552.125C339.322 558.584 355.313 565.462 372.057 569.974C355.203 565.816 339.012 559.38 322.799 553.187C306.631 546.883 290.595 540.203 274.338 534.32C270.269 532.904 266.155 531.4 262.063 530.56C261.112 530.361 259.829 530.25 259.541 530.471C255.14 534.718 243.484 554.359 239.701 559.667C220.613 587.934 192.346 631.419 159.788 643.893C136.1 651.414 104.117 643.164 85.9798 626.509C76.2036 617.241 75.4516 602.577 72.7089 590.168C71.2491 581.631 70.0326 573.049 68.993 564.423Z" fill="#37474F"/>
<path d="M398.599 576.322L396.232 589.681L396.188 589.946L395.922 589.88C375.374 584.24 355.136 577.45 335.208 569.885C319.238 563.98 295.461 553.429 279.293 549.072C278.652 548.917 277.789 548.829 277.435 548.873C277.457 548.873 277.479 548.829 277.479 548.829C273.498 552.722 270.424 557.632 267.128 562.144C245.74 592.291 224.418 624.429 193.696 645.839C223.467 623.301 244.191 591.141 265.447 560.949C268.875 556.216 271.928 551.217 276.174 547.103C277.258 546.396 278.674 546.75 279.757 546.927C288.892 549.16 297.496 552.987 306.255 556.327L335.916 568.16C355.136 576.211 377.21 583.023 395.767 589.615C395.745 589.593 398.599 576.322 398.599 576.322Z" fill="#37474F"/>
<path d="M355.446 205.306C352.185 236.557 324.173 259.238 292.942 255.977C280.316 254.66 269.091 249.288 260.395 241.282L231.923 245.463L246.159 220.858C242.71 212.455 241.246 203.09 242.25 193.453C245.511 162.201 273.522 139.52 304.753 142.782C336.026 146.063 358.728 174.054 355.446 205.306Z" fill="white"/>
<path d="M355.446 205.306C354.254 215.695 350.45 225.875 343.969 234.154C342.485 236.328 340.562 238.125 338.806 240.09C336.82 241.804 334.98 243.707 332.806 245.17C328.647 248.368 323.964 250.898 319.072 252.821C314.202 254.869 308.976 255.852 303.75 256.479C301.116 256.625 298.482 256.855 295.848 256.625C293.214 256.563 290.58 256.291 287.967 255.81C277.557 253.929 267.69 249.058 259.83 241.909L260.499 242.118L232.07 246.487L230 246.8L231.045 244.982L245.197 220.336L245.135 221.318C238.236 205.076 239.783 185.74 248.646 170.605C253.057 163.038 259.203 156.495 266.457 151.624C273.711 146.732 282.135 143.68 290.747 142.51C299.36 141.36 308.244 142.154 316.48 144.893C324.696 147.652 332.242 152.314 338.43 158.355C350.993 170.271 357.306 188.185 355.446 205.306ZM355.446 205.306C357.181 188.164 350.742 170.354 338.179 158.585C331.949 152.69 324.382 148.238 316.229 145.645C308.077 143.095 299.339 142.489 290.936 143.743C282.532 145.039 274.4 148.154 267.439 153.025C260.499 157.895 254.646 164.271 250.423 171.587C246.117 178.883 243.88 187.266 243.211 195.669C242.689 204.093 244.048 212.622 247.225 220.461L247.434 220.963L247.162 221.423L232.843 245.985L231.819 244.48L260.311 240.487L260.708 240.425L260.98 240.696C268.505 247.762 278.038 252.695 288.218 254.723C290.768 255.246 293.339 255.559 295.932 255.664C298.524 255.936 301.116 255.747 303.708 255.643C308.85 255.12 314.055 254.242 318.905 252.298C323.776 250.48 328.479 248.076 332.618 244.898C334.792 243.456 336.653 241.574 338.618 239.881C340.374 237.937 342.297 236.16 343.802 234.007C350.324 225.813 354.191 215.695 355.446 205.306Z" fill="#6914E7"/>
<path d="M292.211 231.833L267.899 207.229L276.073 199.181L290.267 213.542L319.762 167.302L329.441 173.469L292.211 231.833Z" fill="#6914E7"/>
<path d="M509.231 411.51H282.714C279.791 411.51 277.42 409.139 277.42 406.216V290.728C277.42 287.805 279.791 285.434 282.714 285.434H510.267C513.189 285.434 515.561 287.805 515.561 290.728V405.181C515.561 408.671 512.722 411.51 509.231 411.51Z" fill="white"/>
<path d="M515.561 312.506H277.42V291.229C277.42 288.022 280.009 285.434 283.215 285.434H509.749C512.955 285.434 515.544 288.022 515.544 291.229V312.506H515.561Z" fill="#5B17E1"/>
<path d="M508.864 411.511C508.864 411.477 509.498 411.527 510.684 411.21C511.82 410.876 513.607 409.991 514.726 407.87C515.294 406.818 515.544 405.498 515.461 404.029C515.461 402.559 515.444 400.939 515.444 399.185C515.427 395.695 515.427 391.653 515.41 387.11C515.377 368.923 515.327 342.652 515.277 310.185C515.277 306.127 515.26 301.968 515.26 297.726C515.26 295.605 515.26 293.451 515.26 291.279C515.444 289.175 514.291 287.104 512.371 286.219C511.419 285.751 510.383 285.735 509.248 285.751C508.129 285.751 507.01 285.751 505.874 285.751C503.619 285.751 501.331 285.751 499.027 285.751C494.417 285.751 489.724 285.751 484.948 285.768C465.858 285.785 445.45 285.802 423.989 285.802C381.05 285.818 333.853 285.818 284.301 285.835C283.499 285.835 282.781 285.818 282.096 285.985C281.395 286.152 280.743 286.453 280.159 286.87C278.99 287.705 278.188 289.008 277.971 290.428C277.854 291.112 277.904 291.897 277.887 292.666V294.97V299.563C277.887 305.676 277.887 311.755 277.887 317.801C277.887 329.876 277.887 341.767 277.887 353.441C277.887 365.132 277.887 376.605 277.871 387.845C277.871 393.457 277.871 399.018 277.871 404.53C277.754 407.152 279.391 409.69 281.796 410.609C282.981 411.127 284.267 411.076 285.637 411.076C286.99 411.076 288.326 411.076 289.678 411.076C332.617 411.11 371.28 411.143 403.764 411.177C436.231 411.227 462.501 411.277 480.672 411.31C489.741 411.344 496.789 411.377 501.582 411.394C503.953 411.41 505.774 411.427 507.026 411.444C508.229 411.477 508.864 411.511 508.864 411.511C508.864 411.511 508.229 411.544 507.01 411.561C505.774 411.577 503.953 411.577 501.565 411.611C496.772 411.628 489.724 411.661 480.655 411.694C462.485 411.728 436.197 411.778 403.747 411.828C371.263 411.861 332.6 411.878 289.662 411.928C288.326 411.928 286.973 411.928 285.62 411.928C284.317 411.945 282.814 411.995 281.462 411.41C278.739 410.375 276.885 407.469 277.019 404.58C277.019 399.085 277.019 393.524 277.019 387.895C277.019 376.655 277.019 365.182 277.002 353.491C277.002 341.8 277.002 329.909 277.002 317.851C277.002 311.822 277.002 305.743 277.002 299.613V295.021V292.716C277.019 291.948 276.952 291.179 277.086 290.344C277.336 288.708 278.272 287.188 279.624 286.219C280.292 285.735 281.061 285.384 281.879 285.184C282.697 284.983 283.532 285.017 284.284 285C333.836 285.017 381.033 285.017 423.972 285.033C445.433 285.05 465.842 285.067 484.931 285.067C489.707 285.067 494.4 285.067 499.01 285.083C501.315 285.083 503.603 285.083 505.857 285.083C506.993 285.083 508.112 285.083 509.231 285.083C510.317 285.05 511.586 285.083 512.638 285.618C514.809 286.586 516.129 289.042 515.911 291.279C515.911 293.451 515.911 295.605 515.911 297.726C515.911 301.968 515.895 306.127 515.895 310.185C515.845 342.652 515.795 368.923 515.761 387.11C515.744 391.653 515.728 395.678 515.728 399.185C515.728 400.939 515.711 402.542 515.711 404.029C515.711 404.763 515.711 405.482 515.561 406.15C515.41 406.818 515.193 407.419 514.909 407.953C513.724 410.108 511.903 410.976 510.734 411.294C509.498 411.594 508.864 411.511 508.864 411.511Z" fill="#6914E7"/>
<path d="M295.156 305.526C297.61 305.526 299.599 303.537 299.599 301.083C299.599 298.63 297.61 296.641 295.156 296.641C292.703 296.641 290.714 298.63 290.714 301.083C290.714 303.537 292.703 305.526 295.156 305.526Z" fill="white"/>
<path d="M313.227 301.083C313.227 303.538 311.239 305.526 308.784 305.526C306.329 305.526 304.342 303.538 304.342 301.083C304.342 298.628 306.329 296.641 308.784 296.641C311.239 296.641 313.227 298.628 313.227 301.083Z" fill="white"/>
<path d="M322.446 305.526C324.9 305.526 326.888 303.537 326.888 301.083C326.888 298.63 324.9 296.641 322.446 296.641C319.992 296.641 318.004 298.63 318.004 301.083C318.004 303.537 319.992 305.526 322.446 305.526Z" fill="white"/>
<path d="M346.045 350.652H318.354C316.701 350.652 315.348 349.299 315.348 347.646C315.348 345.992 316.701 344.64 318.354 344.64H346.045C347.698 344.64 349.051 345.992 349.051 347.646C349.051 349.316 347.698 350.652 346.045 350.652Z" fill="#5B17E1"/>
<path d="M346.045 366.385H318.354C316.701 366.385 315.348 365.032 315.348 363.379C315.348 361.725 316.701 360.373 318.354 360.373H346.045C347.698 360.373 349.051 361.725 349.051 363.379C349.051 365.032 347.698 366.385 346.045 366.385Z" fill="#E0E0E0"/>
<path d="M492.179 350.652H411.88C410.227 350.652 408.874 349.299 408.874 347.646C408.874 345.992 410.227 344.64 411.88 344.64H492.179C493.833 344.64 495.185 345.992 495.185 347.646C495.169 349.316 493.833 350.652 492.179 350.652Z" fill="#E0E0E0"/>
<path d="M346.045 382.635H318.354C316.701 382.635 315.348 381.282 315.348 379.629C315.348 377.976 316.701 376.623 318.354 376.623H346.045C347.698 376.623 349.051 377.976 349.051 379.629C349.051 381.282 347.698 382.635 346.045 382.635Z" fill="#BCBFFD"/>
<path d="M473.023 366.385H445.333C443.679 366.385 442.326 365.032 442.326 363.379C442.326 361.725 443.679 360.373 445.333 360.373H473.023C474.676 360.373 476.029 361.725 476.029 363.379C476.029 365.032 474.676 366.385 473.023 366.385Z" fill="#BCBFFD"/>
<path d="M390.386 350.652H362.696C361.042 350.652 359.689 349.299 359.689 347.646C359.689 345.992 361.042 344.64 362.696 344.64H390.386C392.039 344.64 393.392 345.992 393.392 347.646C393.392 349.316 392.056 350.652 390.386 350.652Z" fill="#5B17E1"/>
<path d="M426.059 366.385H362.712C361.059 366.385 359.706 365.032 359.706 363.379C359.706 361.725 361.059 360.373 362.712 360.373H426.059C427.713 360.373 429.066 361.725 429.066 363.379C429.066 365.032 427.713 366.385 426.059 366.385Z" fill="#5B17E1"/>
<path d="M488.204 382.635H362.579C360.992 382.635 359.706 381.282 359.706 379.629C359.706 377.976 360.992 376.623 362.579 376.623H488.204C489.791 376.623 491.077 377.976 491.077 379.629C491.06 381.282 489.774 382.635 488.204 382.635Z" fill="#E0E0E0"/>
<path d="M424.74 394.075H362.712C361.059 394.075 359.706 392.722 359.706 391.069C359.706 389.415 361.059 388.062 362.712 388.062H424.74C426.393 388.062 427.746 389.415 427.746 391.069C427.746 392.722 426.393 394.075 424.74 394.075Z" fill="#E0E0E0"/>
<path d="M304.793 347.662C304.793 349.349 303.423 350.719 301.737 350.719C300.05 350.719 298.68 349.349 298.68 347.662C298.68 345.976 300.05 344.606 301.737 344.606C303.423 344.606 304.793 345.976 304.793 347.662Z" fill="#5B17E1"/>
<path d="M304.793 332.615C304.793 334.302 303.423 335.671 301.737 335.671C300.05 335.671 298.68 334.302 298.68 332.615C298.68 330.928 300.05 329.559 301.737 329.559C303.423 329.559 304.793 330.928 304.793 332.615Z" fill="#5B17E1"/>
<path d="M301.737 366.385C303.425 366.385 304.793 365.017 304.793 363.329C304.793 361.641 303.425 360.272 301.737 360.272C300.049 360.272 298.68 361.641 298.68 363.329C298.68 365.017 300.049 366.385 301.737 366.385Z" fill="#5B17E1"/>
<path d="M301.737 382.685C303.425 382.685 304.793 381.317 304.793 379.629C304.793 377.941 303.425 376.572 301.737 376.572C300.049 376.572 298.68 377.941 298.68 379.629C298.68 381.317 300.049 382.685 301.737 382.685Z" fill="#5B17E1"/>
<path d="M334.638 334.803H317.586C316.701 334.803 315.983 334.085 315.983 333.199V330.611C315.983 329.726 316.701 329.007 317.586 329.007H334.638C335.523 329.007 336.241 329.726 336.241 330.611V333.199C336.241 334.085 335.523 334.803 334.638 334.803Z" fill="#5B17E1"/>
<path d="M58.5083 132.893C49.7938 173.574 75.7492 213.661 116.44 222.345C132.869 225.868 149.219 223.71 163.461 217.208L197.599 234.154L189.751 197.324C197.55 188.147 203.227 176.957 205.922 164.424C214.606 123.733 188.681 83.6557 147.96 74.9619C107.28 66.2475 67.2227 92.2129 58.5083 132.893Z" fill="white"/>
<path d="M99.2214 80.6914C109.472 75.6317 120.879 72.8452 132.385 72.7667C143.892 72.6883 155.386 75.3492 165.756 80.3192C176.116 85.3199 185.453 92.6289 192.603 101.765C199.763 110.871 204.826 121.631 207.265 132.959C212.206 155.633 206.226 180.644 190.868 198.263L191.175 197.009L198.88 233.86L199.448 236.586L196.976 235.34L162.948 218.158L163.895 218.162C151.043 223.932 136.617 226.006 122.735 224.125C119.259 223.67 115.843 222.93 112.475 221.934C109.069 221.163 105.831 219.77 102.585 218.509C96.2611 215.568 90.0772 212.199 84.7915 207.632C79.4254 203.208 74.5741 198.14 70.6245 192.383C68.4774 189.617 66.9185 186.502 65.1466 183.52C63.7501 180.322 62.0694 177.268 61.0895 173.934C56.3059 160.861 55.7088 146.476 58.4676 132.914C63.2133 110.55 78.5251 90.5778 99.2214 80.6914ZM61.3942 173.831C62.4148 177.143 64.0955 180.197 65.502 183.365C67.3144 186.326 68.8427 189.431 71.0098 192.136C74.9388 197.852 79.8705 202.778 85.2765 207.079C90.6021 211.523 96.7646 214.75 103.036 217.538C106.272 218.728 109.469 220.04 112.834 220.73C116.15 221.675 119.525 222.334 122.959 222.708C136.616 224.346 150.643 222.041 163.037 216.223L163.514 216.006L163.984 216.227L198.232 232.938L196.328 234.417L188.368 197.619L188.221 196.927L188.675 196.364C195.867 187.802 201.114 177.623 203.901 166.78C206.495 155.907 207.11 144.456 204.683 133.506C202.357 122.554 197.592 112.128 190.871 103.132C184.109 94.1553 175.139 86.8642 165.074 81.7903C154.999 76.747 143.757 73.9316 132.423 73.795C121.108 73.699 109.751 76.2306 99.4684 81.0767C78.8014 90.7694 63.3864 110.538 58.5282 132.832C55.8413 146.486 56.5501 160.839 61.3942 173.831Z" fill="#6914E7"/>
<path fill-rule="evenodd" clip-rule="evenodd" d="M123.57 179.359C121.863 178.296 120.35 176.75 118.063 176.976C117.194 177.072 117.387 176.332 117.355 175.849C117.323 167.219 117.29 158.621 117.258 150.023C117.258 149.411 117.29 148.896 117.967 148.542C124.536 145.193 127.37 138.656 131.363 133.085C135.645 127.128 137.094 120.655 136.064 113.539C135.774 111.607 136.676 110.737 138.415 110.319C140.508 109.836 142.601 110.415 143.341 111.832C145.113 115.407 146.658 119.11 147.141 123.103C147.528 126.355 146.368 129.543 145.982 132.795C145.692 135.146 145.145 137.497 144.694 139.88C145.274 140.298 145.95 140.073 146.562 140.073C153.839 140.073 161.117 140.041 168.394 140.009C171.453 140.009 172.967 140.878 173.385 142.907C173.933 145.451 172.58 148.027 170.23 149.218C169.682 149.508 168.716 149.25 168.652 150.088C168.587 150.957 169.586 150.86 170.101 151.215C172.741 153.018 172.258 156.753 169.231 158.911C168.491 159.426 167.074 159.201 167.042 160.263C167.042 161.133 168.362 161.101 168.974 161.712C171.099 163.805 170.069 167.734 166.881 169.312C166.462 169.505 165.979 169.569 165.593 169.795C165.238 170.053 164.884 170.31 165.593 170.793C168.748 173.047 168.684 176.171 165.528 178.457C165.206 178.683 164.916 178.908 164.594 179.133C163.435 179.971 162.083 179.971 160.762 179.971C149.363 180.035 137.964 180.067 126.532 180.099C125.502 180.196 124.439 180.164 123.57 179.359Z" fill="#6914E7"/>
<path fill-rule="evenodd" clip-rule="evenodd" d="M91.0788 164.289C91.0466 158.815 91.0788 153.34 91.0144 147.866C91.0144 146.739 91.111 146.192 92.4635 146.224C99.1292 146.288 105.795 146.256 112.493 146.16C113.813 146.127 114.006 146.578 114.006 147.77C114.006 158.783 114.038 169.795 114.135 180.808C114.135 182.193 113.781 182.612 112.364 182.579C105.891 182.515 99.419 182.547 92.9465 182.644C91.3364 182.676 91.111 182.096 91.111 180.712C91.1754 175.237 91.111 169.763 91.0788 164.289Z" fill="#6914E7"/>
<defs>
<linearGradient id="paint0_linear_2309_263" x1="289.391" y1="663.706" x2="317.064" y2="12.2939" gradientUnits="userSpaceOnUse">
<stop stop-color="#BCBFFD"/>
<stop offset="1" stop-color="#6A10E7"/>
</linearGradient>
<clipPath id="clip0_2309_263">
<rect width="142" height="157" fill="white" transform="translate(373 82.9999)"/>
</clipPath>
</defs>
</svg>
