<svg width="570" height="976" viewBox="0 0 570 976" fill="none" xmlns="http://www.w3.org/2000/svg">
<path d="M30 76C30 59.4314 43.4315 46 60 46H540C556.569 46 570 59.4315 570 76V635C570 651.569 556.569 665 540 665H60C43.4315 665 30 651.569 30 635L30 76Z" fill="url(#paint0_linear_1_2)"/>
<path d="M115 145.667C148.505 145.667 175.667 118.505 175.667 85C175.667 51.4947 148.505 24.3333 115 24.3333C81.4947 24.3333 54.3333 51.4947 54.3333 85C54.3333 118.505 81.4947 145.667 115 145.667Z" stroke="#6A10E7" stroke-width="10" stroke-miterlimit="10" stroke-linecap="round" stroke-linejoin="round"/>
<path d="M60.4388 152.059L67.7796 159.399" stroke="#BCBFFD" stroke-width="1.1533" stroke-miterlimit="10" stroke-linecap="round" stroke-linejoin="round"/>
<path d="M35.2345 126.854L48.7344 140.354" stroke="#BCBFFD" stroke-width="1.1533" stroke-miterlimit="10" stroke-linecap="round" stroke-linejoin="round"/>
<path d="M58.1055 128.483L108.931 179.308" stroke="#BCBFFD" stroke-width="1.1533" stroke-miterlimit="10" stroke-linecap="round" stroke-linejoin="round"/>
<path d="M32.1892 102.567L42.4996 112.877" stroke="#BCBFFD" stroke-width="1.1533" stroke-miterlimit="10" stroke-linecap="round" stroke-linejoin="round"/>
<path d="M94.6353 143.771L139.354 188.49" stroke="#6914E7" stroke-width="1.1533" stroke-miterlimit="10" stroke-linecap="round" stroke-linejoin="round"/>
<path d="M27.1589 76.2945L74.8401 123.976" stroke="#6914E7" stroke-width="1.1533" stroke-miterlimit="10" stroke-linecap="round" stroke-linejoin="round"/>
<path d="M64.5448 92.4382L143.476 171.369" stroke="#BCBFFD" stroke-width="1.1533" stroke-miterlimit="10" stroke-linecap="round" stroke-linejoin="round"/>
<path d="M31.9088 59.8023L48.6132 76.5066" stroke="#BCBFFD" stroke-width="1.1533" stroke-miterlimit="10" stroke-linecap="round" stroke-linejoin="round"/>
<path d="M129.711 136.369L148.68 155.339" stroke="#BCBFFD" stroke-width="1.1533" stroke-miterlimit="10" stroke-linecap="round" stroke-linejoin="round"/>
<path d="M13 19.6588L109.756 116.415" stroke="#BCBFFD" stroke-width="1.1533" stroke-miterlimit="10" stroke-linecap="round" stroke-linejoin="round"/>
<path d="M90.6126 76.0293L185.134 170.551" stroke="#6914E7" stroke-width="1.1533" stroke-miterlimit="10" stroke-linecap="round" stroke-linejoin="round"/>
<path d="M48.8556 34.2799L70.8174 56.2341" stroke="#6914E7" stroke-width="1.1533" stroke-miterlimit="10" stroke-linecap="round" stroke-linejoin="round"/>
<path d="M108.953 73.1278L170.021 134.195" stroke="#BCBFFD" stroke-width="1.1533" stroke-miterlimit="10" stroke-linecap="round" stroke-linejoin="round"/>
<path d="M46.6132 10.7953L91.7338 55.9159" stroke="#BCBFFD" stroke-width="1.1533" stroke-miterlimit="10" stroke-linecap="round" stroke-linejoin="round"/>
<path d="M159.316 102.256L191.217 134.15" stroke="#6914E7" stroke-width="1.1533" stroke-miterlimit="10" stroke-linecap="round" stroke-linejoin="round"/>
<path d="M74.1886 17.1286L136.15 79.0823" stroke="#6914E7" stroke-width="1.1533" stroke-miterlimit="10" stroke-linecap="round" stroke-linejoin="round"/>
<path d="M128.423 50.1205L171.513 93.2109" stroke="#BCBFFD" stroke-width="1.1533" stroke-miterlimit="10" stroke-linecap="round" stroke-linejoin="round"/>
<path d="M79.3022 1L111.529 33.2269" stroke="#BCBFFD" stroke-width="1.1533" stroke-miterlimit="10" stroke-linecap="round" stroke-linejoin="round"/>
<path d="M166.718 67.181L183.483 83.9383" stroke="#6914E7" stroke-width="1.1533" stroke-miterlimit="10" stroke-linecap="round" stroke-linejoin="round"/>
<path d="M105.082 5.54541L147.574 48.0297" stroke="#6914E7" stroke-width="1.1533" stroke-miterlimit="10" stroke-linecap="round" stroke-linejoin="round"/>
<path d="M158.013 37.2268L168.309 47.5221" stroke="#BCBFFD" stroke-width="1.1533" stroke-miterlimit="10" stroke-linecap="round" stroke-linejoin="round"/>
<path d="M139.923 19.1437L147.029 26.2497" stroke="#BCBFFD" stroke-width="1.1533" stroke-miterlimit="10" stroke-linecap="round" stroke-linejoin="round"/>
<path d="M46.5 103C72.1812 103 93 82.1812 93 56.5C93 30.8188 72.1812 10 46.5 10C20.8188 10 0 30.8188 0 56.5C0 82.1812 20.8188 103 46.5 103Z" fill="#5B09D2"/>
<path d="M70.2525 38.396C68.7598 35.005 65.9157 33.076 62.0831 32.9947C55.003 32.8526 47.9228 32.8729 40.8427 32.9541C29.7888 33.0963 21.68 41.2591 21.6598 51.7978C21.6598 55.4731 21.6598 56.4071 21.6598 60.0825C21.6598 60.0825 39.4106 60.1028 39.4106 60.1231C39.4106 59.7982 39.4106 59.5342 39.4106 59.2499C39.4106 56.8945 39.4106 54.539 39.4106 52.1836C39.4106 50.5997 39.8543 50.1733 41.4882 50.1733C48.2456 50.1733 55.003 50.1733 61.7604 50.1733C64.423 50.1733 66.7225 49.3002 68.4976 47.4117C70.9988 44.7923 71.7048 41.7059 70.2525 38.396Z" fill="white"/>
<path d="M70.9982 53.6457C70.9982 53.6457 53.2475 53.6254 53.2475 53.6051C53.2475 53.93 53.2475 54.1939 53.2475 54.4782C53.2475 56.8337 53.2475 59.1891 53.2475 61.5446C53.2475 63.1284 52.8037 63.5548 51.1698 63.5548C44.4125 63.5548 37.6551 63.5548 30.8977 63.5548C28.2351 63.5548 25.9355 64.428 24.1605 66.3164C21.6592 68.9561 20.9532 72.0426 22.4055 75.3524C23.8982 78.7434 26.7424 80.6725 30.5749 80.7537C37.6551 80.8958 44.7352 80.8755 51.8153 80.7943C62.8692 80.6522 70.9781 72.4893 70.9982 61.9507C70.9982 58.2551 70.9982 57.3413 70.9982 53.6457Z" fill="white"/>
<mask id="path-28-inside-1_1_2" fill="white">
<path fill-rule="evenodd" clip-rule="evenodd" d="M522 96H290C287.239 96 285 98.2386 285 101V267C285 269.761 287.239 272 290 272H437.437L454.375 292.085L473.025 272H522C524.761 272 527 269.761 527 267V101C527 98.2386 524.761 96 522 96Z"/>
</mask>
<path fill-rule="evenodd" clip-rule="evenodd" d="M522 96H290C287.239 96 285 98.2386 285 101V267C285 269.761 287.239 272 290 272H437.437L454.375 292.085L473.025 272H522C524.761 272 527 269.761 527 267V101C527 98.2386 524.761 96 522 96Z" fill="white"/>
<path d="M437.437 272V271H437.902L438.202 271.355L437.437 272ZM454.375 292.085L455.108 292.765L454.339 293.593L453.61 292.729L454.375 292.085ZM473.025 272L472.293 271.32L472.589 271H473.025V272ZM290 95H522V97H290V95ZM284 101C284 97.6863 286.686 95 290 95V97C287.791 97 286 98.7909 286 101H284ZM284 267V101H286V267H284ZM290 273C286.686 273 284 270.314 284 267H286C286 269.209 287.791 271 290 271V273ZM437.437 273H290V271H437.437V273ZM453.61 292.729L436.673 272.645L438.202 271.355L455.139 291.44L453.61 292.729ZM473.758 272.68L455.108 292.765L453.642 291.404L472.293 271.32L473.758 272.68ZM522 273H473.025V271H522V273ZM528 267C528 270.314 525.314 273 522 273V271C524.209 271 526 269.209 526 267H528ZM528 101V267H526V101H528ZM522 95C525.314 95 528 97.6863 528 101H526C526 98.7909 524.209 97 522 97V95Z" fill="#6914E7" mask="url(#path-28-inside-1_1_2)"/>
<path d="M468.904 167.651H487.836C488.906 167.651 489.788 166.779 489.788 165.691C489.788 164.617 488.919 163.731 487.836 163.731H468.904C467.834 163.731 466.952 164.604 466.952 165.691C466.952 166.779 467.834 167.651 468.904 167.651Z" fill="#E0E0E0"/>
<path d="M468.904 157.703H487.836C488.906 157.703 489.788 156.831 489.788 155.743C489.788 154.669 488.919 153.783 487.836 153.783H468.904C467.834 153.783 466.952 154.656 466.952 155.743C466.952 156.817 467.834 157.703 468.904 157.703Z" fill="#E0E0E0"/>
<path d="M468.904 148.587H487.836C488.906 148.587 489.788 147.715 489.788 146.627C489.788 145.553 488.919 144.667 487.836 144.667H468.904C467.834 144.667 466.952 145.54 466.952 146.627C466.952 147.715 467.834 148.587 468.904 148.587Z" fill="#E0E0E0"/>
<path d="M325.881 139.753H307.952C306.882 139.753 306 138.881 306 137.793C306 136.719 306.869 135.833 307.952 135.833H325.881C326.951 135.833 327.833 136.706 327.833 137.793C327.833 138.881 326.964 139.753 325.881 139.753Z" fill="#5B17E1"/>
<path d="M325.881 149.984H307.952C306.882 149.984 306 149.111 306 148.024C306 146.95 306.869 146.063 307.952 146.063H325.881C326.951 146.063 327.833 146.936 327.833 148.024C327.833 149.111 326.964 149.984 325.881 149.984Z" fill="#E0E0E0"/>
<path d="M325.881 160.549H307.952C306.882 160.549 306 159.677 306 158.589C306 157.515 306.869 156.629 307.952 156.629H325.881C326.951 156.629 327.833 157.502 327.833 158.589C327.833 159.677 326.964 160.549 325.881 160.549Z" fill="#BCBFFD"/>
<path d="M318.234 180.983H307.952C306.882 180.983 306 180.11 306 179.023C306 177.949 306.869 177.063 307.952 177.063H318.234C319.303 177.063 320.186 177.935 320.186 179.023C320.186 180.11 319.317 180.983 318.234 180.983Z" fill="#5B17E1"/>
<path d="M318.234 191.576H307.952C306.882 191.576 306 190.703 306 189.615C306 188.541 306.869 187.655 307.952 187.655H318.234C319.303 187.655 320.186 188.528 320.186 189.615C320.186 190.703 319.317 191.576 318.234 191.576Z" fill="#5B17E1"/>
<path d="M349.288 191.576H330.436C329.367 191.576 328.484 190.703 328.484 189.615C328.484 188.541 329.353 187.655 330.436 187.655H349.288C350.358 187.655 351.24 188.528 351.24 189.615C351.227 190.703 350.358 191.576 349.288 191.576Z" fill="#E0E0E0"/>
<path d="M338.128 200.987H319.276C318.207 200.987 317.324 200.114 317.324 199.027C317.324 197.953 318.193 197.067 319.276 197.067H338.128C339.198 197.067 340.08 197.939 340.08 199.027C340.08 200.114 339.211 200.987 338.128 200.987Z" fill="#BCBFFD"/>
<path d="M342.313 211.741H329.358C328.622 211.741 328.034 211.15 328.034 210.412V209.176C328.034 208.438 328.622 207.847 329.358 207.847H342.313C343.049 207.847 343.637 208.438 343.637 209.176V210.412C343.637 211.137 343.049 211.741 342.313 211.741Z" fill="#BCBFFD"/>
<path d="M341.698 232.792H329.986C328.916 232.792 328.034 231.919 328.034 230.831C328.034 229.757 328.903 228.871 329.986 228.871H341.698C342.768 228.871 343.65 229.744 343.65 230.831C343.637 231.919 342.768 232.792 341.698 232.792Z" fill="#BCBFFD"/>
<path d="M341.698 255.024H329.986C328.916 255.024 328.034 254.151 328.034 253.064C328.034 251.99 328.903 251.104 329.986 251.104H341.698C342.768 251.104 343.65 251.977 343.65 253.064C343.637 254.151 342.768 255.024 341.698 255.024Z" fill="#BCBFFD"/>
<path d="M370.988 255.024H350.451C349.382 255.024 348.499 254.151 348.499 253.064C348.499 251.99 349.368 251.104 350.451 251.104H370.988C372.057 251.104 372.94 251.977 372.94 253.064C372.926 254.151 372.057 255.024 370.988 255.024Z" fill="#5B17E1"/>
<path d="M385.361 255.024H382.406C381.336 255.024 380.454 254.151 380.454 253.064C380.454 251.99 381.323 251.104 382.406 251.104H385.361C386.43 251.104 387.313 251.977 387.313 253.064C387.299 254.151 386.43 255.024 385.361 255.024Z" fill="#E0E0E0"/>
<path d="M369.758 232.792H352.403C351.334 232.792 350.451 231.919 350.451 230.831C350.451 229.757 351.32 228.871 352.403 228.871H369.758C370.827 228.871 371.71 229.744 371.71 230.831C371.696 231.919 370.827 232.792 369.758 232.792Z" fill="#E0E0E0"/>
<path d="M407.809 242.552H352.39C351.32 242.552 350.438 241.679 350.438 240.592C350.438 239.518 351.307 238.632 352.39 238.632H407.809C408.879 238.632 409.761 239.504 409.761 240.592C409.761 241.679 408.892 242.552 407.809 242.552Z" fill="#E0E0E0"/>
<path d="M414.214 232.792H378.836C377.767 232.792 376.884 231.919 376.884 230.831C376.884 229.757 377.753 228.871 378.836 228.871H414.214C415.283 228.871 416.166 229.744 416.166 230.831C416.166 231.919 415.297 232.792 414.214 232.792Z" fill="#5B17E1"/>
<path d="M366.442 211.741H350.545C349.809 211.741 349.221 211.15 349.221 210.412V209.176C349.221 208.438 349.809 207.847 350.545 207.847H366.442C367.177 207.847 367.766 208.438 367.766 209.176V210.412C367.779 211.137 367.177 211.741 366.442 211.741Z" fill="#5B17E1"/>
<path d="M379.13 211.741H374.25C373.515 211.741 372.927 211.15 372.927 210.412V209.176C372.927 208.438 373.515 207.847 374.25 207.847H379.13C379.866 207.847 380.454 208.438 380.454 209.176V210.412C380.467 211.137 379.866 211.741 379.13 211.741Z" fill="#E0E0E0"/>
<path d="M407.087 211.741H387.527C386.791 211.741 386.203 211.15 386.203 210.412V209.176C386.203 208.438 386.791 207.847 387.527 207.847H407.087C407.823 207.847 408.411 208.438 408.411 209.176V210.412C408.411 211.137 407.823 211.741 407.087 211.741Z" fill="#E0E0E0"/>
<path d="M351.401 200.987H347.202C346.133 200.987 345.25 200.114 345.25 199.027C345.25 197.953 346.119 197.067 347.202 197.067H351.401C352.47 197.067 353.353 197.939 353.353 199.027C353.339 200.114 352.47 200.987 351.401 200.987Z" fill="#5B17E1"/>
<path d="M386.992 200.987H360.238C359.169 200.987 358.286 200.114 358.286 199.027C358.286 197.953 359.155 197.067 360.238 197.067H386.992C388.062 197.067 388.944 197.939 388.944 199.027C388.931 200.114 388.062 200.987 386.992 200.987Z" fill="#E0E0E0"/>
<path d="M355.104 139.753H337.175C336.105 139.753 335.223 138.881 335.223 137.793C335.223 136.719 336.092 135.833 337.175 135.833H355.104C356.174 135.833 357.056 136.706 357.056 137.793C357.056 138.881 356.174 139.753 355.104 139.753Z" fill="#5B17E1"/>
<path d="M378.208 149.984H337.175C336.105 149.984 335.223 149.111 335.223 148.024C335.223 146.95 336.092 146.063 337.175 146.063H378.208C379.277 146.063 380.16 146.936 380.16 148.024C380.16 149.111 379.291 149.984 378.208 149.984Z" fill="#5B17E1"/>
<path d="M422.396 160.549H337.175C336.105 160.549 335.223 159.677 335.223 158.589C335.223 157.515 336.092 156.629 337.175 156.629H422.396C423.466 156.629 424.348 157.502 424.348 158.589C424.335 159.677 423.466 160.549 422.396 160.549Z" fill="#E0E0E0"/>
<path d="M377.352 168.001H337.175C336.105 168.001 335.223 167.128 335.223 166.04C335.223 164.966 336.092 164.08 337.175 164.08H377.352C378.422 164.08 379.304 164.953 379.304 166.04C379.304 167.114 378.435 168.001 377.352 168.001Z" fill="#E0E0E0"/>
<path d="M369.129 180.983H328.952C327.882 180.983 327 180.11 327 179.023C327 177.949 327.869 177.063 328.952 177.063H369.129C370.199 177.063 371.081 177.935 371.081 179.023C371.081 180.11 370.212 180.983 369.129 180.983Z" fill="#5B17E1"/>
<path d="M393.416 180.983H379.952C378.882 180.983 378 180.11 378 179.023C378 177.949 378.869 177.063 379.952 177.063H393.416C394.485 177.063 395.368 177.935 395.368 179.023C395.354 180.11 394.485 180.983 393.416 180.983Z" fill="#BCBFFD"/>
<path d="M427.844 180.916H402.401C401.331 180.916 400.448 180.043 400.448 178.956C400.448 177.882 401.318 176.996 402.401 176.996H427.844C428.914 176.996 429.796 177.868 429.796 178.956C429.796 180.043 428.927 180.916 427.844 180.916Z" fill="#5B17E1"/>
<path d="M462.473 180.916H437.029C435.959 180.916 435.077 180.043 435.077 178.956C435.077 177.882 435.946 176.996 437.029 176.996H462.473C463.542 176.996 464.425 177.868 464.425 178.956C464.425 180.043 463.542 180.916 462.473 180.916Z" fill="#E0E0E0"/>
<path d="M477.1 178.19H487.836C488.906 178.19 489.788 177.318 489.788 176.23C489.788 175.156 488.919 174.27 487.836 174.27H477.1C476.03 174.27 475.148 175.143 475.148 176.23C475.161 177.318 476.03 178.19 477.1 178.19Z" fill="#E0E0E0"/>
<path d="M480.309 209.794H487.823C488.892 209.794 489.775 208.921 489.775 207.834C489.775 206.76 488.906 205.874 487.823 205.874H480.309C479.239 205.874 478.357 206.746 478.357 207.834C478.37 208.921 479.239 209.794 480.309 209.794Z" fill="#E0E0E0"/>
<path d="M466.952 188.716H487.823C488.892 188.716 489.775 187.843 489.775 186.756C489.775 185.682 488.906 184.796 487.823 184.796H466.952C465.882 184.796 465 185.668 465 186.756C465.013 187.843 465.882 188.716 466.952 188.716Z" fill="#E0E0E0"/>
<path d="M470.615 199.255H487.836C488.906 199.255 489.788 198.382 489.788 197.295C489.788 196.221 488.919 195.335 487.836 195.335H470.615C469.546 195.335 468.663 196.207 468.663 197.295C468.677 198.382 469.546 199.255 470.615 199.255Z" fill="#E0E0E0"/>
<path d="M301.958 137.807C301.958 138.908 301.075 139.794 299.979 139.794C298.882 139.794 298 138.908 298 137.807C298 136.706 298.882 135.82 299.979 135.82C301.075 135.82 301.958 136.706 301.958 137.807Z" fill="#5B17E1"/>
<path d="M299.979 129.362C301.072 129.362 301.958 128.473 301.958 127.375C301.958 126.278 301.072 125.388 299.979 125.388C298.886 125.388 298 126.278 298 127.375C298 128.473 298.886 129.362 299.979 129.362Z" fill="#5B17E1"/>
<path d="M299.979 149.984C301.072 149.984 301.958 149.094 301.958 147.997C301.958 146.899 301.072 146.01 299.979 146.01C298.886 146.01 298 146.899 298 147.997C298 149.094 298.886 149.984 299.979 149.984Z" fill="#5B17E1"/>
<path d="M299.979 160.59C301.072 160.59 301.958 159.7 301.958 158.603C301.958 157.505 301.072 156.616 299.979 156.616C298.886 156.616 298 157.505 298 158.603C298 159.7 298.886 160.59 299.979 160.59Z" fill="#5B17E1"/>
<path d="M299.979 171.182C301.072 171.182 301.958 170.293 301.958 169.195C301.958 168.098 301.072 167.208 299.979 167.208C298.886 167.208 298 168.098 298 169.195C298 170.293 298.886 171.182 299.979 171.182Z" fill="#5B17E1"/>
<path d="M301.958 179.801C301.958 180.902 301.075 181.788 299.979 181.788C298.882 181.788 298 180.902 298 179.801C298 178.701 298.882 177.814 299.979 177.814C301.075 177.814 301.958 178.701 301.958 179.801Z" fill="#5B17E1"/>
<path d="M299.979 192.381C301.072 192.381 301.958 191.492 301.958 190.394C301.958 189.297 301.072 188.407 299.979 188.407C298.886 188.407 298 189.297 298 190.394C298 191.492 298.886 192.381 299.979 192.381Z" fill="#5B17E1"/>
<path d="M299.979 202.974C301.072 202.974 301.958 202.084 301.958 200.987C301.958 199.889 301.072 199 299.979 199C298.886 199 298 199.889 298 200.987C298 202.084 298.886 202.974 299.979 202.974Z" fill="#5B17E1"/>
<path d="M301.958 211.593C301.958 212.694 301.075 213.58 299.979 213.58C298.882 213.58 298 212.694 298 211.593C298 210.492 298.882 209.606 299.979 209.606C301.075 209.606 301.958 210.492 301.958 211.593Z" fill="#5B17E1"/>
<path d="M301.958 222.186C301.958 223.286 301.075 224.173 299.979 224.173C298.882 224.173 298 223.286 298 222.186C298 221.085 298.882 220.199 299.979 220.199C301.075 220.212 301.958 221.098 301.958 222.186Z" fill="#5B17E1"/>
<path d="M299.979 234.779C301.072 234.779 301.958 233.889 301.958 232.792C301.958 231.694 301.072 230.805 299.979 230.805C298.886 230.805 298 231.694 298 232.792C298 233.889 298.886 234.779 299.979 234.779Z" fill="#5B17E1"/>
<path d="M301.958 243.384C301.958 244.485 301.075 245.371 299.979 245.371C298.882 245.371 298 244.485 298 243.384C298 242.283 298.882 241.397 299.979 241.397C301.075 241.397 301.958 242.297 301.958 243.384Z" fill="#5B17E1"/>
<path d="M299.979 255.977C301.072 255.977 301.958 255.088 301.958 253.99C301.958 252.893 301.072 252.003 299.979 252.003C298.886 252.003 298 252.893 298 253.99C298 255.088 298.886 255.977 299.979 255.977Z" fill="#5B17E1"/>
<path d="M514.176 110.03C512.588 110.03 511.301 108.737 511.301 107.143C511.301 105.549 512.588 104.257 514.176 104.257C515.763 104.257 517.05 105.549 517.05 107.143C517.05 108.737 515.763 110.03 514.176 110.03Z" fill="white"/>
<path d="M502.463 107.143C502.463 108.741 503.747 110.03 505.338 110.03C506.929 110.03 508.213 108.741 508.213 107.143C508.213 105.546 506.929 104.257 505.338 104.257C503.747 104.257 502.463 105.546 502.463 107.143Z" fill="white"/>
<path d="M493.626 107.143C493.626 108.741 494.909 110.03 496.5 110.03C498.091 110.03 499.375 108.741 499.375 107.143C499.375 105.546 498.091 104.257 496.5 104.257C494.909 104.257 493.626 105.546 493.626 107.143Z" fill="white"/>
<path d="M290.626 96H519.417C523.401 96 526.637 99.249 526.637 103.25V116.997H285.506V101.142C285.506 98.3092 287.805 96 290.626 96Z" fill="#5B17E1"/>
<path d="M254.958 524.606H77.3844C74.1443 524.606 71.5177 521.98 71.5177 518.74V225.346C71.5177 222.106 74.1443 219.48 77.3844 219.48H254.958C258.198 219.48 260.825 222.106 260.825 225.346V518.74C260.825 521.98 258.198 524.606 254.958 524.606Z" fill="white"/>
<path d="M260.825 253.568H71.5177V226.401C71.5177 222.585 74.6236 219.48 78.4388 219.48H254.172C257.853 219.48 260.825 222.451 260.825 226.132V253.568Z" fill="#5B17E1"/>
<path d="M254.479 524.606C254.46 524.549 255.38 524.683 256.914 524.07C257.681 523.744 258.562 523.168 259.329 522.229C260.077 521.27 260.71 519.928 260.71 518.299C260.691 511.761 260.652 502.175 260.614 489.809C260.576 465.038 260.518 429.243 260.461 385.013C260.422 340.763 260.403 288.078 260.345 229.602V226.861C260.345 225.921 260.365 225.078 260.115 224.253C259.674 222.605 258.428 221.186 256.875 220.496C256.089 220.131 255.246 219.959 254.364 219.978H251.584C249.724 219.978 247.864 219.978 245.985 219.978C238.489 219.978 230.916 219.978 223.266 219.978C207.948 219.978 192.322 219.978 176.409 219.997C144.583 219.997 111.626 219.997 77.8829 220.016C75.9273 219.997 74.0292 221.032 72.9556 222.662C72.4379 223.487 72.0928 224.407 72.0161 225.385C71.9586 226.362 71.997 227.455 71.997 228.491C71.997 232.689 71.997 236.869 71.997 241.029C71.997 249.369 71.997 257.652 71.997 265.857C71.997 282.307 71.997 298.489 71.997 314.421C71.9778 346.247 71.9778 376.961 71.9586 406.218C71.9394 435.474 71.9203 463.274 71.9203 489.272C71.9203 495.771 71.9203 502.175 71.9011 508.444C71.9011 511.588 71.9011 514.694 71.9011 517.762C71.6519 520.753 73.7992 523.533 76.6175 524.108C77.9787 524.357 79.57 524.204 81.0271 524.242C82.5225 524.242 83.9988 524.242 85.4942 524.242C88.4468 524.242 91.3801 524.242 94.2752 524.242C100.065 524.242 105.721 524.261 111.262 524.261C155.492 524.338 191.287 524.376 216.058 524.415C228.424 524.453 238.01 524.491 244.548 524.511C247.788 524.53 250.261 524.549 251.948 524.568C253.616 524.568 254.479 524.606 254.479 524.606C254.479 524.606 253.616 524.645 251.948 524.664C250.261 524.683 247.788 524.683 244.548 524.721C238.01 524.741 228.424 524.779 216.058 524.817C191.306 524.856 155.511 524.913 111.262 524.971C105.74 524.971 100.065 524.99 94.2752 524.99C91.3801 524.99 88.4468 524.99 85.4942 524.99C84.018 524.99 82.5225 524.99 81.0271 524.99C79.5125 524.932 78.0746 525.124 76.4449 524.836C74.8728 524.511 73.4349 523.59 72.4571 522.287C71.4793 521.021 71 519.315 71.0959 517.743C71.0959 514.656 71.0959 511.55 71.0959 508.425C71.0959 502.156 71.0959 495.752 71.0767 489.253C71.0575 463.236 71.0383 435.436 71.0383 406.198C71.0383 376.941 71.0192 346.247 71 314.402C71 298.489 71 282.288 71 265.838C71 257.613 71 249.331 71 241.01C71 236.85 71 232.67 71 228.471C71.0192 227.398 70.9808 226.42 71.0192 225.289C71.0959 224.158 71.4985 223.065 72.112 222.106C73.339 220.189 75.5822 218.981 77.8637 219C111.607 219 144.564 219 176.39 219.019C192.303 219.019 207.928 219.019 223.247 219.039C230.897 219.039 238.47 219.039 245.966 219.039C247.845 219.039 249.705 219.039 251.565 219.039H254.345C255.322 219.019 256.338 219.23 257.24 219.652C259.042 220.476 260.48 222.106 260.978 224.004C261.266 224.963 261.247 225.979 261.227 226.861V229.602C261.189 288.097 261.151 340.783 261.112 385.013C261.055 429.243 260.997 465.038 260.959 489.809C260.921 502.175 260.882 511.761 260.863 518.299C260.844 519.967 260.173 521.347 259.406 522.325C258.601 523.284 257.681 523.859 256.894 524.165C256.108 524.491 255.476 524.549 255.054 524.606C254.69 524.606 254.479 524.606 254.479 524.606Z" fill="#5B17E1"/>
<path d="M99.4133 239.189C99.4133 242.275 96.9209 244.768 93.8342 244.768C90.7475 244.768 88.2551 242.275 88.2551 239.189C88.2551 236.102 90.7475 233.609 93.8342 233.609C96.9209 233.609 99.4133 236.102 99.4133 239.189Z" fill="white"/>
<path d="M111.013 244.768C114.094 244.768 116.592 242.27 116.592 239.189C116.592 236.107 114.094 233.609 111.013 233.609C107.931 233.609 105.433 236.107 105.433 239.189C105.433 242.27 107.931 244.768 111.013 244.768Z" fill="white"/>
<path d="M128.21 244.768C131.291 244.768 133.789 242.27 133.789 239.189C133.789 236.107 131.291 233.609 128.21 233.609C125.129 233.609 122.631 236.107 122.631 239.189C122.631 242.27 125.129 244.768 128.21 244.768Z" fill="white"/>
<path d="M153.882 299.792H119.027C116.937 299.792 115.25 298.105 115.25 296.015C115.25 293.925 116.937 292.238 119.027 292.238H153.882C155.972 292.238 157.659 293.925 157.659 296.015C157.678 298.105 155.972 299.792 153.882 299.792Z" fill="#5B17E1"/>
<path d="M153.882 319.597H119.027C116.937 319.597 115.25 317.91 115.25 315.82C115.25 313.731 116.937 312.043 119.027 312.043H153.882C155.972 312.043 157.659 313.731 157.659 315.82C157.678 317.91 155.972 319.597 153.882 319.597Z" fill="#E0E0E0"/>
<path d="M154.879 373.835H120.023C117.934 373.835 116.247 372.148 116.247 370.059C116.247 367.969 117.934 366.282 120.023 366.282H154.879C156.968 366.282 158.656 367.969 158.656 370.059C158.675 372.148 156.968 373.835 154.879 373.835Z" fill="#E0E0E0"/>
<path d="M153.882 340.054H119.027C116.937 340.054 115.25 338.367 115.25 336.277C115.25 334.187 116.937 332.5 119.027 332.5H153.882C155.972 332.5 157.659 334.187 157.659 336.277C157.678 338.367 155.972 340.054 153.882 340.054Z" fill="#BCBFFD"/>
<path d="M153.882 454.167H119.027C116.937 454.167 115.25 452.48 115.25 450.39C115.25 448.301 116.937 446.614 119.027 446.614H153.882C155.972 446.614 157.659 448.301 157.659 450.39C157.678 452.461 155.972 454.167 153.882 454.167Z" fill="#BCBFFD"/>
<path d="M209.75 299.792H174.875C172.786 299.792 171.099 298.105 171.099 296.015C171.099 293.925 172.786 292.238 174.875 292.238H209.75C211.84 292.238 213.527 293.925 213.527 296.015C213.527 298.105 211.84 299.792 209.75 299.792Z" fill="#5B17E1"/>
<path d="M247.481 319.597H174.55C172.632 319.597 171.099 317.91 171.099 315.82C171.099 313.731 172.652 312.043 174.55 312.043H247.481C249.398 312.043 250.932 313.731 250.932 315.82C250.951 317.91 249.398 319.597 247.481 319.597Z" fill="#5B17E1"/>
<path d="M245.525 340.054H172.095C170.14 340.054 168.549 338.367 168.549 336.277C168.549 334.187 170.14 332.5 172.095 332.5H245.525C247.481 332.5 249.072 334.187 249.072 336.277C249.091 338.367 247.5 340.054 245.525 340.054Z" fill="#E0E0E0"/>
<path d="M192.476 356.6H119.046C117.09 356.6 115.499 354.913 115.499 352.823C115.499 350.733 117.09 349.046 119.046 349.046H192.476C194.431 349.046 196.023 350.733 196.023 352.823C196.042 354.913 194.431 356.6 192.476 356.6Z" fill="#E0E0E0"/>
<path d="M101.944 296.015C101.944 298.144 100.219 299.85 98.1097 299.85C95.9815 299.85 94.2752 298.124 94.2752 296.015C94.2752 293.887 96.0007 292.181 98.1097 292.181C100.219 292.181 101.944 293.906 101.944 296.015Z" fill="#5B17E1"/>
<path d="M101.944 277.073C101.944 279.201 100.219 280.908 98.1097 280.908C95.9815 280.908 94.2752 279.182 94.2752 277.073C94.2752 274.945 96.0007 273.239 98.1097 273.239C100.219 273.239 101.944 274.945 101.944 277.073Z" fill="#5B17E1"/>
<path d="M101.944 315.763C101.944 317.891 100.219 319.597 98.1097 319.597C95.9815 319.597 94.2752 317.872 94.2752 315.763C94.2752 313.634 96.0007 311.928 98.1097 311.928C100.219 311.909 101.944 313.634 101.944 315.763Z" fill="#5B17E1"/>
<path d="M101.944 336.277C101.944 338.405 100.219 340.112 98.1097 340.112C95.9815 340.112 94.2752 338.386 94.2752 336.277C94.2752 334.149 96.0007 332.443 98.1097 332.443C100.219 332.443 101.944 334.149 101.944 336.277Z" fill="#5B17E1"/>
<path d="M154.879 429.205H120.023C117.934 429.205 116.247 427.518 116.247 425.428C116.247 423.338 117.934 421.651 120.023 421.651H154.879C156.968 421.651 158.656 423.338 158.656 425.428C158.675 427.518 156.968 429.205 154.879 429.205Z" fill="#E0E0E0"/>
<path d="M153.882 395.443H119.027C116.937 395.443 115.25 393.756 115.25 391.666C115.25 389.576 116.937 387.889 119.027 387.889H153.882C155.972 387.889 157.659 389.576 157.659 391.666C157.678 393.736 155.972 395.443 153.882 395.443Z" fill="#BCBFFD"/>
<path d="M245.525 395.443H172.095C170.14 395.443 168.549 393.756 168.549 391.666C168.549 389.576 170.14 387.889 172.095 387.889H245.525C247.481 387.889 249.072 389.576 249.072 391.666C249.091 393.736 247.5 395.443 245.525 395.443Z" fill="#E0E0E0"/>
<path d="M192.476 411.988H119.046C117.09 411.988 115.499 410.301 115.499 408.212C115.499 406.122 117.09 404.435 119.046 404.435H192.476C194.431 404.435 196.023 406.122 196.023 408.212C196.042 410.282 194.431 411.988 192.476 411.988Z" fill="#E0E0E0"/>
<path d="M101.944 391.647C101.944 393.775 100.219 395.481 98.1097 395.481C95.9815 395.481 94.2752 393.756 94.2752 391.647C94.2752 389.518 96.0007 387.812 98.1097 387.812C100.219 387.812 101.944 389.538 101.944 391.647Z" fill="#5B17E1"/>
<path d="M139.119 281.636H117.282C116.266 281.636 115.441 280.812 115.441 279.796V276.172C115.441 275.156 116.266 274.331 117.282 274.331H139.1C140.116 274.331 140.94 275.156 140.94 276.172V279.796C140.96 280.812 140.135 281.636 139.119 281.636Z" fill="#5B17E1"/>
<path d="M153.882 474.317H119.027C116.937 474.317 115.25 472.63 115.25 470.541C115.25 468.451 116.937 466.764 119.027 466.764H153.882C155.972 466.764 157.659 468.451 157.659 470.541C157.678 472.63 155.972 474.317 153.882 474.317Z" fill="#5B17E1"/>
<path d="M209.75 474.317H174.875C172.786 474.317 171.099 472.63 171.099 470.541C171.099 468.451 172.786 466.764 174.875 466.764H209.75C211.84 466.764 213.527 468.451 213.527 470.541C213.527 472.63 211.84 474.317 209.75 474.317Z" fill="#5B17E1"/>
<path d="M101.944 470.541C101.944 472.669 100.219 474.375 98.1097 474.375C95.9815 474.375 94.2752 472.65 94.2752 470.541C94.2752 468.432 96.0007 466.706 98.1097 466.706C100.219 466.687 101.944 468.412 101.944 470.541Z" fill="#5B17E1"/>
<path d="M101.944 488.754C101.944 490.882 100.219 492.589 98.1097 492.589C95.9815 492.589 94.2752 490.863 94.2752 488.754C94.2752 486.626 96.0007 484.92 98.1097 484.92C100.219 484.92 101.944 486.645 101.944 488.754Z" fill="#5B17E1"/>
<path d="M139.119 493.337H117.282C116.266 493.337 115.441 492.512 115.441 491.496V487.872C115.441 486.856 116.266 486.032 117.282 486.032H139.1C140.116 486.032 140.94 486.856 140.94 487.872V491.496C140.96 492.512 140.135 493.337 139.119 493.337Z" fill="#5B17E1"/>
<path d="M133.911 694.967C135.482 690.193 220.212 578.237 225.992 576.101C226.662 575.808 264.525 602.76 264.525 602.76C266.096 604.855 338.073 589.63 338.073 589.63L338.785 676.476L207.647 673.691C207.647 673.691 189.93 684.099 173.742 692.58C173.721 692.58 173.7 692.601 173.679 692.58C163.711 697.837 154.874 702.255 152.361 702.925C145.827 704.601 132.298 699.721 133.911 694.967Z" fill="white"/>
<path d="M152.382 702.904C154.916 702.255 163.732 697.836 173.701 692.559C173.721 692.58 173.742 692.559 173.763 692.559C189.951 684.078 207.668 673.648 207.668 673.648L236.861 674.277L282.556 600.561C272.525 602.341 265.049 603.409 264.546 602.739C264.546 602.739 226.683 575.787 226.034 576.08C220.254 578.237 135.544 690.172 133.953 694.946C132.298 699.721 145.827 704.601 152.382 702.904Z" fill="white"/>
<path d="M133.136 695.114C134.811 690.213 219.898 578.342 225.846 576.122C228.086 575.264 246.62 586.719 264.525 602.76L209.574 674.821C209.574 674.821 158.874 701.669 152.109 703.407C145.345 705.103 131.482 700.014 133.136 695.114Z" fill="#A6A6A6"/>
<path d="M138.832 696.915C153.554 678.507 211.207 602.907 224.38 583.577C224.484 583.431 224.38 583.347 224.254 583.494C209.26 601.42 152.214 677.502 138.518 696.685C138.246 697.082 138.518 697.292 138.832 696.915Z" fill="#1A272D"/>
<path d="M161.596 699.26C165.156 694.946 166.35 688.999 165.554 684.559C164.779 680.287 162.727 675.575 158.727 672.748C158.622 672.664 158.455 672.874 158.559 672.978C165.093 679.638 166.454 691.219 161.366 699.093C161.261 699.24 161.47 699.407 161.596 699.26Z" fill="#1A272D"/>
<path d="M203.228 679.261C209.05 671.827 213.008 661.125 210.412 651.785C210.307 651.429 209.804 651.576 209.741 651.89C208.087 661.335 205.783 669.774 202.202 678.696C201.951 679.324 202.81 679.785 203.228 679.261Z" fill="#1A272D"/>
<path d="M196.548 683.345C202.37 675.91 206.328 665.209 203.752 655.869C203.647 655.513 203.145 655.659 203.082 655.974C201.427 665.418 199.124 673.858 195.522 682.779C195.271 683.386 196.129 683.868 196.548 683.345Z" fill="#1A272D"/>
<path d="M189.888 687.407C195.71 679.973 199.668 669.272 197.092 659.932C196.988 659.576 196.485 659.722 196.422 660.036C194.768 669.481 192.464 677.921 188.883 686.842C188.611 687.47 189.47 687.952 189.888 687.407Z" fill="#1A272D"/>
<path d="M183.229 691.491C189.051 684.057 193.009 673.355 190.412 664.015C190.307 663.659 189.805 663.806 189.742 664.12C188.087 673.565 185.784 682.004 182.203 690.926C181.951 691.554 182.81 692.015 183.229 691.491Z" fill="#1A272D"/>
<path d="M238.557 601.902C244.945 593.462 231.835 583.536 225.448 591.975C219.061 600.436 232.149 610.362 238.557 601.902Z" fill="#1A272D"/>
<path d="M206.537 693.648C204.401 685.627 205.804 676.957 206.16 668.79C206.202 667.952 207.124 667.659 207.794 667.911C207.878 667.785 208.024 667.701 208.192 667.848C214.349 673.188 219.793 681.439 222.202 689.271C223.689 694.109 223.123 701.229 217.092 702.632C211.375 703.931 207.794 698.318 206.537 693.648ZM212.485 698.716C221.218 704.182 220.547 692.036 219.312 688.517C218.516 686.256 217.427 684.057 216.338 681.921C214.034 677.46 211.145 673.418 208.443 669.23C208.506 673.251 208.234 677.23 208.15 681.251C208.024 686.046 207.668 695.7 212.485 698.716Z" fill="#1A272D"/>
<path d="M233.259 644.812C237.72 649.126 234.516 655.534 230.746 658.905C224.652 664.371 215.731 668.643 207.71 670.047C207.522 670.088 207.417 669.942 207.417 669.774C206.726 669.649 206.077 668.916 206.474 668.162C210.37 660.979 213.637 652.832 219.605 647.052C223.081 643.681 229.029 640.728 233.259 644.812ZM214.579 658.487C212.589 661.963 210.767 665.523 208.631 668.937C213.113 666.759 217.678 664.769 221.95 662.131C223.982 660.874 226.055 659.534 227.898 658.026C230.767 655.66 237.594 645.586 227.312 645.775C221.636 645.88 216.966 654.34 214.579 658.487Z" fill="#1A272D"/>
<path d="M342.031 562.991H400.899C400.899 562.991 462.468 533.401 512.058 545.317C568.916 558.992 576.182 630.382 533.691 655.638C479.85 687.617 240.275 681.439 240.275 681.439L292.064 593.65C292.064 593.65 371.727 576.876 443.976 579.305L342.052 593.19V562.991H342.031Z" fill="#37474F"/>
<path d="M288.609 599.326C288.671 599.221 288.692 598.991 288.713 598.886C288.734 598.781 288.776 598.635 288.797 598.53C288.86 598.237 288.944 597.964 289.027 597.671C289.195 597.085 289.404 596.519 289.635 595.954C289.865 595.389 290.095 594.844 290.368 594.279C290.64 593.713 290.996 593.253 291.331 592.729C291.373 592.666 291.415 592.666 291.478 592.624C291.499 592.603 291.54 592.582 291.561 592.561C291.603 592.541 291.645 592.52 291.687 592.499C291.729 592.478 291.771 592.457 291.813 592.436C300.566 590.802 360.104 582.279 368.963 581.274C377.884 580.248 386.847 579.431 395.789 578.677C413.632 577.169 431.6 576.436 449.505 576.75C451.18 576.771 452.856 576.855 454.531 576.897C454.887 576.771 455.264 576.708 455.641 576.625C456.5 576.415 457.358 576.206 458.217 576.038C459.829 575.724 461.463 575.494 463.096 575.243C466.489 574.719 469.882 574.363 473.253 573.735C473.463 573.693 473.546 574.007 473.337 574.049C469.944 574.803 466.615 575.787 463.222 576.52C462.238 576.729 461.274 576.939 460.29 577.148C466.866 577.483 473.421 578.007 479.976 578.593C480.185 578.614 480.185 578.928 479.976 578.928C471.054 578.405 462.07 578.342 453.128 578.489C444.249 578.635 435.39 578.824 426.511 579.347C408.585 580.373 390.679 581.986 372.816 583.85C362.806 584.897 302.095 593.755 292.043 594.174C292.001 594.174 291.959 594.153 291.917 594.153C291.834 594.383 291.75 594.614 291.645 594.844C291.373 595.389 291.101 595.933 290.787 596.457C290.493 596.98 290.221 597.483 289.886 597.964C289.718 598.216 289.551 598.446 289.383 598.697C289.3 598.823 289.216 598.949 289.132 599.053C289.069 599.158 288.902 599.305 288.86 599.43C288.818 599.682 288.483 599.535 288.609 599.326Z" fill="#1A272D"/>
<path d="M258.934 676.099C262.138 670.968 264.881 665.502 267.813 660.204C270.766 654.905 273.698 649.586 276.651 644.288C282.535 633.712 303.687 598.153 305.781 595.661C305.907 595.514 306.179 595.682 306.116 595.87C305.111 598.614 291.917 622.173 288.881 627.409C282.808 637.901 276.42 648.204 270.117 658.57C268.316 661.523 266.452 664.455 264.63 667.408C262.808 670.34 260.861 673.251 259.185 676.266C259.122 676.455 258.829 676.287 258.934 676.099Z" fill="#1A272D"/>
<path d="M306.388 604.519C311.666 603.242 317.09 602.425 322.43 601.42C327.791 600.415 333.131 599.409 338.492 598.404C349.214 596.415 359.937 594.509 370.68 592.687C392.124 589.085 413.653 586.09 435.286 584.017C447.495 582.844 459.746 582.07 471.997 581.169C472.248 581.148 472.248 581.567 471.997 581.567C450.196 582.551 428.438 585.504 406.847 588.603C385.465 591.682 364.146 595.054 342.848 598.635C336.838 599.64 330.827 600.687 324.817 601.713C318.723 602.76 312.608 604.08 306.472 604.854C306.263 604.917 306.158 604.582 306.388 604.519Z" fill="#1A272D"/>
<path d="M243.206 975.986C248.358 975.463 376.711 917.789 380.208 912.491C381.548 910.48 374.24 891.318 364.753 868.387C362.701 863.445 360.565 858.335 358.345 853.162C344.042 819.592 330.387 788.933 330.387 788.933L242.117 822.65L274.745 890.439L281.886 905.328C281.886 905.328 242.62 949.39 239.395 955.61C236.212 961.83 238.034 976.51 243.206 975.986Z" fill="white"/>
<path d="M243.207 975.986C248.358 975.463 376.711 917.789 380.208 912.491C381.821 910.04 370.701 882.23 358.345 853.162L274.745 890.439L281.886 905.328C281.886 905.328 242.62 949.39 239.395 955.61C236.212 961.83 238.034 976.51 243.207 975.986Z" fill="white"/>
<path d="M243.206 975.986C248.358 975.463 376.711 917.789 380.208 912.491C381.549 910.48 374.24 891.318 364.753 868.387L281.907 905.349C281.907 905.349 242.641 949.411 239.416 955.631C236.212 961.83 238.034 976.51 243.206 975.986Z" fill="#A6A6A6"/>
<path d="M242.725 970.018C264.002 959.819 350.785 920.7 372.585 912.239C372.753 912.176 372.816 912.281 372.648 912.365C351.79 922.94 264.693 961.348 242.871 970.374C242.432 970.562 242.285 970.248 242.725 970.018Z" fill="#1A272D"/>
<path d="M245.594 947.296C250.599 944.804 256.672 944.971 260.819 946.772C264.798 948.49 268.944 951.568 270.787 956.092C270.85 956.217 270.599 956.322 270.536 956.217C265.531 948.343 254.536 944.406 245.72 947.568C245.531 947.631 245.405 947.38 245.594 947.296Z" fill="#1A272D"/>
<path d="M274.494 911.234C283.059 907.234 294.409 905.789 302.912 910.438C303.247 910.627 302.975 911.087 302.661 911.066C293.069 910.543 284.336 910.878 274.808 912.365C274.159 912.449 273.886 911.506 274.494 911.234Z" fill="#1A272D"/>
<path d="M269.028 916.805C277.593 912.805 288.944 911.36 297.446 916.009C297.781 916.197 297.509 916.658 297.195 916.637C287.603 916.114 278.87 916.449 269.342 917.936C268.672 918.04 268.4 917.098 269.028 916.805Z" fill="#1A272D"/>
<path d="M263.541 922.375C272.106 918.375 283.457 916.93 291.959 921.579C292.294 921.768 292.022 922.228 291.708 922.207C282.117 921.684 273.384 922.019 263.855 923.506C263.185 923.611 262.934 922.668 263.541 922.375Z" fill="#1A272D"/>
<path d="M258.054 927.967C266.62 923.967 277.97 922.522 286.472 927.171C286.808 927.359 286.535 927.82 286.221 927.799C276.63 927.276 267.897 927.611 258.368 929.097C257.719 929.202 257.447 928.26 258.054 927.967Z" fill="#1A272D"/>
<path d="M357.926 894.271C367.601 889.957 374.324 904.993 364.628 909.307C354.952 913.621 348.251 898.585 357.926 894.271Z" fill="#1A272D"/>
<path d="M254.871 892.428C257.614 886.858 264.693 887.926 269.049 890.46C276.127 894.585 282.954 901.747 286.766 908.972C286.849 909.14 286.745 909.286 286.598 909.349C286.682 910.04 286.2 910.899 285.363 910.731C277.321 909.245 268.546 908.658 261.216 904.742C256.944 902.459 252.274 897.706 254.871 892.428ZM273.656 905.978C277.593 906.794 281.551 907.423 285.446 908.407C281.97 904.805 278.682 901.077 274.85 897.831C273.028 896.282 271.122 894.732 269.091 893.433C265.949 891.423 254.264 888.03 257.615 897.789C259.478 903.171 268.965 904.993 273.656 905.978Z" fill="#1A272D"/>
<path d="M309.613 902.543C302.64 907.067 293.949 908.407 286.054 910.585C285.237 910.815 284.671 910.019 284.713 909.307C284.567 909.266 284.441 909.14 284.525 908.951C287.708 901.454 293.886 893.706 300.587 888.994C304.734 886.083 311.687 884.407 314.891 889.727C317.927 894.774 313.676 899.904 309.613 902.543ZM312.608 895.297C315.121 885.287 303.77 889.685 300.797 891.947C298.891 893.412 297.132 895.109 295.436 896.826C291.896 900.386 288.944 904.386 285.802 908.281C289.614 906.983 293.488 906.02 297.341 904.847C301.928 903.465 311.226 900.826 312.608 895.297Z" fill="#1A272D"/>
<path d="M356.376 845.288L259.688 889.015C259.688 889.015 146.916 672.748 143.9 605.148C141.345 547.599 181.407 525.401 310.891 562.615L342.618 563.012V584.897C328.691 586.74 291.54 592.561 291.54 592.561C264.504 602.76 255.813 606.969 256.253 607.849C323.665 743.95 356.376 845.288 356.376 845.288Z" fill="#37474F"/>
<path d="M240.421 583.557C244.316 588.75 247.939 594.174 251.395 599.703C272.169 590.467 294.765 585.106 317.278 582.342C323.644 581.567 330.032 581.002 336.44 580.625C336.712 580.604 336.691 581.023 336.44 581.023C313.634 582.426 291.226 587.075 269.405 593.776C263.374 595.619 257.468 597.776 251.541 599.891C255.688 606.53 259.604 613.336 263.353 620.184C270.368 632.979 276.651 646.173 282.263 659.638C285.362 667.115 288.399 674.612 291.059 682.256C291.142 682.465 290.786 682.612 290.682 682.402C278.871 656.057 266.012 630.32 252.002 605.085C248.044 597.965 243.939 590.949 240.086 583.787C239.96 583.619 240.275 583.368 240.421 583.557Z" fill="#1A272D"/>
<path d="M257.594 865.623C263.227 863.424 268.693 860.68 274.221 858.188C279.75 855.696 285.3 853.204 290.828 850.733C301.886 845.791 340.105 829.938 343.267 829.205C343.476 829.163 343.581 829.456 343.413 829.582C340.963 831.194 316.294 842.168 310.723 844.555C299.561 849.33 288.294 853.749 277.049 858.293C273.844 859.591 270.598 860.827 267.373 862.084C264.148 863.34 260.86 864.513 257.719 865.937C257.51 866.021 257.384 865.706 257.594 865.623Z" fill="#1A272D"/>
<path d="M240.882 593.546C248.505 608.038 255.018 623.199 261.635 638.194C268.232 653.104 274.661 668.099 280.881 683.177C293.279 713.208 304.817 743.573 315.561 774.232C321.634 791.593 325.005 804.451 330.555 821.98C330.639 822.231 330.241 822.315 330.157 822.085C319.917 791.091 311.121 764.976 299.54 734.464C287.98 704.014 275.708 673.837 262.703 643.974C259.059 635.597 255.353 627.22 251.583 618.885C247.814 610.551 243.898 602.258 240.379 593.818C240.233 593.483 240.714 593.211 240.882 593.546Z" fill="#1A272D"/>
<path d="M413.778 435.539C413.694 436.021 413.276 436.461 412.752 436.419C411.579 436.272 410.176 436.063 408.585 435.832C406.909 425.487 404.543 417.048 404.941 420.231C405.548 424.838 405.36 431.267 404.48 435.225C402.658 434.953 398.407 434.283 396.292 433.927C396.627 416.398 395.14 403.037 394.595 406.954C392.376 422.723 390.407 427.539 388.208 432.649C368.46 429.466 342.618 425.026 324 421.424C323.812 411.666 324.042 401.174 323.561 401.823C319.938 406.556 317.655 414.053 316.357 419.938C310.43 418.744 305.739 417.676 302.891 416.901C302.891 416.901 303.142 408.776 303.477 406.158C304.315 399.477 306.451 392.902 309.655 386.954C312.985 380.839 317.592 375.771 322.053 370.536C322.095 370.494 322.116 370.452 322.157 370.431C322.157 370.41 322.178 370.41 322.199 370.389C325.257 366.766 327.707 363.185 329.676 359.269C329.697 359.248 329.717 359.227 329.717 359.185C331.1 356.4 332.23 353.468 333.194 350.159C336.461 338.83 345.026 330.223 356.481 329.448C380.941 314.474 399.705 326.83 402.805 342.871C403.098 344.442 403.328 346.201 403.517 348.128V348.191C404.229 355.269 404.292 364.295 404.627 371.331C404.606 371.352 404.627 371.373 404.627 371.373C404.606 371.394 404.606 371.415 404.627 371.457V371.478C404.815 374.829 405.045 377.698 405.443 379.687C408.145 392.734 418.511 402.011 413.778 435.539Z" fill="#263238"/>
<path d="M351.12 331.605C343.246 333.824 337.759 338.327 334.911 346.494C333.257 351.248 331.916 355.96 329.068 360.19C326.136 364.567 322.241 367.834 318.262 371.08C311.938 376.253 307.163 381.698 304.65 389.781C302.116 397.99 300.441 407.959 301.634 416.356C301.634 416.398 301.718 416.398 301.718 416.356C301.09 407.959 303.31 396.985 306.451 388.964C309.906 380.169 316.273 375.52 322.995 369.677C328.335 365.049 332.293 359.52 334.639 352.693C336.042 348.651 336.88 344.316 339.372 340.756C342.345 336.505 346.932 334.369 351.434 332.547C352.062 332.317 351.727 331.437 351.12 331.605Z" fill="#263238"/>
<path d="M414.7 394.996C411.056 387.435 406.993 380.776 405.757 372.064C404.627 364.127 404.731 356.023 403.538 348.086C403.517 347.96 403.328 347.96 403.349 348.107C404.815 362.075 402.867 375.436 409.024 388.21C412.375 395.142 415.81 401.634 417.338 409.445C418.951 417.634 418.679 425.78 417.15 434.094C417.087 434.387 417.464 434.45 417.548 434.178C421.59 421.026 420.417 406.87 414.7 394.996Z" fill="#263238"/>
<path d="M358.052 329.51C361.172 329.783 370.785 316.191 364.439 304.485C358.178 292.946 341.759 294.852 341.173 309.49C340.796 318.725 351.434 328.903 358.052 329.51Z" fill="#263238"/>
<path d="M351.246 297.092C347.12 298.098 343.56 300.632 341.131 303.794C338.701 306.977 338.031 311.123 339.518 314.746C340.879 318.474 343.728 321.552 346.911 324.107C348.544 325.364 350.282 326.495 352.146 327.458C353.989 328.442 355.937 329.259 358.052 329.531C355.895 329.804 353.738 329.175 351.706 328.526C349.675 327.793 347.706 326.83 345.864 325.615C342.241 323.207 338.953 319.898 337.34 315.584C336.565 313.448 336.23 311.04 336.67 308.736C337.131 306.453 338.22 304.338 339.728 302.663C342.68 299.27 346.953 297.197 351.246 297.092Z" fill="#263238"/>
<path d="M380.397 415.498C432.416 442.387 481.274 475.098 490.488 497.883C496.289 512.228 489.232 538.238 483.473 553.903C480.667 561.525 411.244 535.599 417.213 529.275C431.956 513.631 431.767 503.789 430.176 500.647C429.17 498.637 372.188 449.403 356.188 427.183C333.885 396.231 357.633 403.749 380.397 415.498Z" fill="white"/>
<path d="M400.375 607.702C407.747 610.194 412.354 591.514 412.354 591.514C412.354 591.514 413.59 596.75 417.925 599.535C422.909 602.718 430.092 596.31 430.092 596.31C430.092 596.31 432.437 601.357 437.317 603.828C442.385 606.404 450.552 600.959 450.552 600.959C450.552 600.959 455.306 604.456 461.065 603.556C470.908 602.027 476.918 588.038 480.813 579.179C484.708 570.321 487.494 541.547 488.583 536.102L431.935 510.574C431.935 510.574 403.14 545.316 400.019 556.395C397.423 565.672 389.109 603.891 400.375 607.702Z" fill="white"/>
<path d="M412.208 591.284C412.606 580.708 415.558 570.237 418.49 560.164C418.553 559.934 418.909 560.038 418.846 560.269C415.81 570.237 415.349 581.274 412.71 591.347C412.627 591.64 412.187 591.577 412.208 591.284Z" fill="#263238"/>
<path d="M429.443 595.787C429.61 593.399 430.553 591.075 431.349 588.813C432.186 586.405 433.066 583.996 433.987 581.609C435.83 576.834 437.778 572.101 439.872 567.41C439.956 567.201 440.312 567.285 440.228 567.515C438.406 572.29 436.647 577.085 435.013 581.923C434.197 584.352 433.401 586.782 432.626 589.211C431.914 591.473 431.328 593.923 430.113 595.996C429.924 596.289 429.422 596.143 429.443 595.787Z" fill="#263238"/>
<path d="M450.636 600.729C450.699 598.655 451.893 596.456 452.688 594.551C453.568 592.394 454.447 590.216 455.306 588.059C457.023 583.724 458.741 579.389 460.311 574.991C460.395 574.782 460.73 574.865 460.667 575.096C459.097 579.577 457.589 584.059 455.976 588.519C455.18 590.718 454.385 592.896 453.568 595.074C452.877 596.938 452.228 599.325 450.866 600.812C450.783 600.917 450.636 600.833 450.636 600.729Z" fill="#263238"/>
<path d="M455.536 455.79L417.59 493.171C417.59 493.171 367.455 448.984 352.921 424.88C338.387 400.776 349.11 398.514 378.03 412.189C406.93 425.885 455.536 455.79 455.536 455.79Z" fill="#6914E7"/>
<path d="M455.536 455.79L417.59 493.171C417.59 493.171 367.455 448.984 352.921 424.88C338.387 400.776 349.11 398.514 378.03 412.189C406.93 425.885 455.536 455.79 455.536 455.79Z" fill="#6914E7"/>
<path d="M380.585 426.241C380.585 428.796 382.659 430.848 385.193 430.848C387.747 430.848 389.8 428.775 389.8 426.241C389.8 423.686 387.727 421.634 385.193 421.634C382.638 421.634 380.585 423.686 380.585 426.241ZM426.972 480.606C427.935 480.606 428.815 480.899 429.527 481.402L423.097 487.726C422.616 487.014 422.343 486.135 422.343 485.213C422.343 482.679 424.417 480.606 426.972 480.606ZM447.851 451.727C448.311 451.727 448.772 451.811 449.212 451.937C449.882 452.355 450.51 452.732 451.076 453.067L451.097 453.088C451.934 453.926 452.458 455.057 452.458 456.334C452.458 458.889 450.385 460.963 447.851 460.963C445.296 460.963 443.243 458.889 443.243 456.334C443.243 453.8 445.296 451.727 447.851 451.727ZM406.072 451.727C408.627 451.727 410.679 453.8 410.679 456.334C410.679 458.889 408.606 460.942 406.072 460.942C403.517 460.942 401.464 458.868 401.464 456.334C401.464 453.8 403.538 451.727 406.072 451.727Z" fill="white"/>
<path d="M409.632 483.454C427.16 468.481 440.081 452.942 443.118 449.947C443.264 449.801 443.013 449.591 442.866 449.738C440.06 452.837 422.469 469.046 409.359 483.224C409.213 483.391 409.464 483.601 409.632 483.454Z" fill="#263238"/>
<path opacity="0.1" d="M352.9 424.901C367.434 449.005 417.569 493.192 417.569 493.192L436.437 474.596L347.12 406.116C345.319 409.11 347.078 415.267 352.9 424.901Z" fill="black"/>
<path d="M397.82 557.212L391.747 505.213C391.747 505.213 408.983 481.402 401.36 465.528C397.506 457.486 370.952 416.838 357.026 407.016C343.958 397.802 328.943 409.571 322.053 417.027C295.498 445.759 281.97 482.009 269.51 555.934L397.82 557.212Z" fill="white"/>
<path d="M401.276 532.73L391.747 505.234C391.747 505.234 408.983 481.423 401.36 465.549C397.506 457.507 370.952 416.859 357.026 407.037C343.958 397.823 325.026 407.896 318.409 415.602C295.582 442.178 286.452 466.659 268.19 536.856L401.276 532.73Z" fill="#6914E7"/>
<path d="M338.806 426.241C338.806 428.796 340.88 430.848 343.413 430.848C345.968 430.848 348.021 428.775 348.021 426.241C348.021 423.686 345.947 421.634 343.413 421.634C340.88 421.634 338.806 423.686 338.806 426.241ZM385.193 480.606C387.747 480.606 389.8 482.679 389.8 485.213C389.8 487.768 387.727 489.82 385.193 489.82C382.638 489.82 380.585 487.747 380.585 485.213C380.585 482.658 382.638 480.606 385.193 480.606ZM343.413 480.606C345.968 480.606 348.021 482.679 348.021 485.213C348.021 487.768 345.947 489.82 343.413 489.82C340.859 489.82 338.806 487.747 338.806 485.213C338.806 482.658 340.88 480.606 343.413 480.606ZM301.655 480.606C304.21 480.606 306.263 482.679 306.263 485.213C306.263 487.768 304.189 489.82 301.655 489.82C299.1 489.82 297.048 487.747 297.048 485.213C297.048 482.658 299.1 480.606 301.655 480.606ZM364.313 451.727C366.868 451.727 368.921 453.8 368.921 456.334C368.921 458.889 366.847 460.942 364.313 460.942C361.759 460.942 359.706 458.868 359.706 456.334C359.706 453.8 361.759 451.727 364.313 451.727ZM322.534 451.727C325.089 451.727 327.142 453.8 327.142 456.334C327.142 458.889 325.068 460.942 322.534 460.942C319.98 460.942 317.927 458.868 317.927 456.334C317.927 453.8 320 451.727 322.534 451.727ZM364.313 510.7C366.868 510.7 368.921 512.773 368.921 515.307C368.921 517.841 366.847 519.914 364.313 519.914C361.759 519.914 359.706 517.841 359.706 515.307C359.706 512.773 361.759 510.7 364.313 510.7ZM322.534 510.7C325.089 510.7 327.142 512.773 327.142 515.307C327.142 517.841 325.068 519.914 322.534 519.914C319.98 519.914 317.927 517.841 317.927 515.307C317.927 512.773 320 510.7 322.534 510.7ZM280.776 510.7C283.331 510.7 285.384 512.773 285.384 515.307C285.384 517.841 283.31 519.914 280.776 519.914C278.221 519.914 276.169 517.841 276.169 515.307C276.169 512.773 278.221 510.7 280.776 510.7Z" fill="white"/>
<path d="M350.911 505.15C356.418 504.731 361.989 504.48 367.518 504.878C370.261 505.066 372.983 505.401 375.727 505.778C377.088 505.967 378.449 506.113 379.81 506.239C381.214 506.386 382.7 506.469 384.104 506.26C384.229 506.239 384.25 506.427 384.145 506.448C382.805 506.742 381.507 506.993 380.125 507.098C378.826 507.202 377.486 507.16 376.188 507.077C373.402 506.909 370.617 506.595 367.832 506.406C362.198 506.009 356.586 505.59 350.932 505.611C350.659 505.59 350.638 505.15 350.911 505.15Z" fill="#263238"/>
<path d="M338.345 512.396C342.722 511.139 347.225 510.05 351.706 509.297C353.968 508.92 356.23 508.668 358.513 508.48C359.601 508.396 360.69 508.312 361.779 508.27C362.973 508.208 364.188 508.312 365.381 508.229C365.507 508.229 365.549 508.417 365.423 508.417C364.292 508.522 363.183 508.836 362.052 509.003C360.921 509.171 359.79 509.338 358.68 509.527C356.418 509.883 354.178 510.26 351.916 510.595C347.392 511.265 342.911 511.956 338.408 512.794C338.178 512.815 338.136 512.459 338.345 512.396Z" fill="#263238"/>
<path d="M318.953 414.241C253.405 460.25 195.899 525.17 200.527 546.468C205.406 568.981 248.84 595.43 287.729 601.797C295.687 603.095 322.346 545.254 314.241 542.28C307.917 539.976 279.164 530.783 275.834 526.678C273.509 523.83 320.629 461.926 336.356 429.319C352.816 395.205 336.503 401.927 318.953 414.241Z" fill="white"/>
<path d="M297.802 539.976C297.802 539.976 322.388 544.458 338.199 547.348C347.015 548.96 355.225 549.735 361.738 552.918C375.266 559.536 409.715 593.755 402.218 601.964C395.433 609.399 385.988 596.98 385.988 596.98C385.988 596.98 397.611 609.587 388.606 614.906C379.538 620.268 368.795 602.865 368.795 602.865C368.795 602.865 382.051 615.409 371.915 620.163C363.12 624.288 348.565 605.608 348.565 605.608C348.565 605.608 363.936 617.252 355.329 622.362C345.822 628.016 320.482 602.739 320.482 602.739C299.498 604.394 286.682 602.551 272.106 597.943C269.426 597.064 297.802 539.976 297.802 539.976Z" fill="white"/>
<path d="M372.334 607.053C371.434 605.713 370.491 604.414 369.591 603.095C367.811 600.498 366.052 597.964 363.978 595.577C361.968 593.273 359.874 591.074 357.696 588.938C355.413 586.677 352.858 584.624 350.638 582.3C350.45 582.111 350.199 582.384 350.387 582.551C352.691 584.708 354.659 587.326 356.67 589.734C358.68 592.122 360.649 594.53 362.638 596.959C364.565 599.326 366.638 601.524 368.648 603.849C369.654 605.001 370.596 606.194 371.538 607.388C372.418 608.498 373.235 609.776 374.303 610.739C374.407 610.844 374.554 610.697 374.512 610.571C373.989 609.294 373.088 608.163 372.334 607.053Z" fill="#263238"/>
<path d="M388.355 599.619C387.266 597.127 380.208 587.724 378.261 585.441C374.491 581.002 370.324 576.876 365.758 573.274C365.591 573.148 365.381 573.379 365.507 573.525C369.256 577.986 373.067 582.405 376.879 586.823C378.742 588.98 386.889 599.054 387.873 599.996C388.124 600.226 388.48 599.891 388.355 599.619Z" fill="#263238"/>
<path d="M357.465 614.425C356.314 612.1 349.612 603.346 347.728 601.252C345.947 599.284 337.675 592.101 334.953 590.425C334.785 590.321 334.555 590.53 334.702 590.677C338.66 594.593 342.681 598.425 346.471 602.551C348.314 604.561 355.183 612.959 357.109 614.718C357.277 614.864 357.57 614.634 357.465 614.425Z" fill="#263238"/>
<path d="M368.188 556.918C366.429 555.348 364.397 554.112 362.303 553.002C360.209 551.892 358.031 550.95 355.79 550.175C351.288 548.646 346.701 547.578 342.115 546.552C337.529 545.547 332.922 544.625 328.293 543.788C323.665 542.95 319.037 542.154 314.388 541.484L314.514 541.526L305.613 538.699C302.619 537.84 299.666 536.877 296.629 536.123L305.278 539.641L313.969 543.013L314.011 543.034L314.095 543.055C323.288 544.96 332.503 546.678 341.696 548.437C346.282 549.358 350.932 550.112 355.392 551.327C359.853 552.646 364.272 554.301 368.188 556.918Z" fill="#263238"/>
<path d="M245.887 471.203L293.572 504.375C293.572 504.375 331.539 449.591 341.78 423.372C352.021 397.153 341.089 396.755 314.891 415.121C288.713 433.487 245.887 471.203 245.887 471.203Z" fill="#6914E7"/>
<path d="M338.806 426.241C338.806 427.141 339.058 427.979 339.518 428.67C340.377 426.806 341.131 425.026 341.78 423.372C341.989 422.806 342.199 422.262 342.387 421.738C340.335 422.22 338.806 424.042 338.806 426.241ZM304.566 422.681C305.613 423.518 306.263 424.796 306.263 426.241C306.263 428.796 304.189 430.848 301.655 430.848C299.791 430.848 298.2 429.759 297.467 428.168C299.875 426.283 302.242 424.44 304.566 422.681ZM301.655 480.606C304.21 480.606 306.263 482.679 306.263 485.213C306.263 487.768 304.189 489.82 301.655 489.82C299.1 489.82 297.048 487.747 297.048 485.213C297.048 482.658 299.1 480.606 301.655 480.606ZM259.876 480.606C262.012 480.606 263.792 482.051 264.316 484.02L259.436 480.627C259.583 480.606 259.73 480.606 259.876 480.606ZM322.534 451.727C324.042 451.727 325.362 452.439 326.178 453.549C324.754 455.999 323.288 458.45 321.801 460.9C319.602 460.544 317.927 458.638 317.927 456.334C317.927 453.8 320 451.727 322.534 451.727ZM280.776 451.727C283.331 451.727 285.383 453.8 285.383 456.334C285.383 458.889 283.31 460.942 280.776 460.942C278.221 460.942 276.169 458.868 276.169 456.334C276.148 453.8 278.221 451.727 280.776 451.727Z" fill="white"/>
<path d="M257.175 464.565C275.289 479.957 293.299 490.658 296.839 493.255C297.006 493.381 297.195 493.088 297.006 492.983C293.383 490.617 273.991 475.35 257.342 464.272C257.175 464.146 257.007 464.418 257.175 464.565Z" fill="#263238"/>
<path d="M290.514 502.114C290.849 502.176 292.985 503.475 293.425 503.747C299.142 494.574 305.299 485.297 311.1 476.187C313.948 471.727 316.796 467.245 319.644 462.785C322.597 458.136 325.299 453.256 328.503 448.775C328.607 448.649 328.775 448.754 328.712 448.9C326.681 453.382 324.105 457.654 321.634 461.926C322.157 461.277 322.66 460.607 323.204 459.978C324.461 458.596 325.676 457.193 326.806 455.706C326.974 455.476 327.372 455.706 327.183 455.937C326.094 457.361 325.131 458.827 324.147 460.334C323.184 461.842 322.116 463.245 321.047 464.69C320.021 466.073 318.89 467.371 317.76 468.669C317.613 468.837 317.487 468.983 317.341 469.151C315.77 471.811 314.22 474.512 312.587 477.151C306.87 486.386 293.949 504.92 293.781 504.857C293.132 504.627 290.577 502.616 290.326 502.407C290.221 502.26 290.389 502.072 290.514 502.114Z" fill="#263238"/>
<path d="M336.168 406.179C336.126 408.461 348.419 426.011 358.366 428C361.612 428.649 360.376 410.116 360.376 410.116L360.984 408.901L369.57 391.812L351.727 372.839L349.11 370.263C349.11 370.263 347.078 375.101 344.586 381.132C344.461 381.404 344.356 381.698 344.23 381.991C344.084 382.326 343.937 382.64 343.811 382.975C343.434 383.875 343.036 384.797 342.68 385.718C342.408 386.409 342.115 387.101 341.864 387.854C341.571 388.587 341.319 389.32 341.026 390.074C338.345 397.404 336.188 405.215 336.168 406.179Z" fill="white"/>
<path d="M344.607 381.132C346.178 396.839 356.209 405.592 361.005 408.901L369.591 391.813L351.748 372.839L349.131 370.263C349.131 370.263 347.078 375.08 344.607 381.132Z" fill="#263238"/>
<path d="M401.716 371.059C396.899 404.273 376.46 405.132 369.298 404.084C362.806 403.142 340.796 399.058 342.157 365.551C343.518 332.023 360.481 323.772 375.455 325.154C390.449 326.516 406.532 337.845 401.716 371.059Z" fill="white"/>
<path d="M396.857 368.001C396.103 367.75 395.454 367.394 394.742 367.059C393.925 366.682 393.255 366.473 392.774 365.677C392.522 365.258 392.69 364.546 393.088 364.253C393.988 363.583 395.098 363.771 396.082 364.19C397.15 364.63 397.883 365.237 398.428 366.263C398.972 367.248 397.862 368.337 396.857 368.001Z" fill="#263238"/>
<path d="M376.229 363.248C377.025 363.331 377.758 363.269 378.554 363.248C379.434 363.248 380.146 363.331 380.92 362.808C381.339 362.536 381.465 361.803 381.214 361.384C380.669 360.399 379.58 360.127 378.512 360.106C377.339 360.064 376.439 360.337 375.517 361.049C374.617 361.719 375.182 363.143 376.229 363.248Z" fill="#263238"/>
<path d="M379.161 372.546C379.161 372.462 378.973 372.608 378.952 372.713C378.596 374.975 377.821 377.509 375.643 377.865C375.58 377.886 375.559 377.991 375.643 377.991C378.177 378.116 379.182 374.745 379.161 372.546Z" fill="#263238"/>
<path d="M377.59 369.823C374.03 368.86 372.376 376.064 375.685 376.943C378.931 377.802 380.564 370.619 377.59 369.823Z" fill="#263238"/>
<path d="M376.083 369.886C375.371 370.158 374.575 370.724 373.8 370.619C372.9 370.514 372.418 369.593 372.02 368.734C371.978 368.651 371.894 368.693 371.873 368.797C371.538 370.179 371.748 371.708 373.172 372.253C374.47 372.755 375.727 371.75 376.376 370.452C376.523 370.2 376.376 369.761 376.083 369.886Z" fill="#263238"/>
<path d="M390.972 374.933C391.014 374.849 391.119 375.08 391.098 375.164C390.491 377.363 390.177 380.001 392.02 381.216C392.082 381.258 392.04 381.362 391.978 381.341C389.59 380.42 390.051 376.944 390.972 374.933Z" fill="#263238"/>
<path d="M393.506 373.09C397.15 373.677 395.726 380.902 392.355 380.378C389.025 379.854 390.449 372.609 393.506 373.09Z" fill="#263238"/>
<path d="M394.91 373.865C395.412 374.368 395.831 375.164 396.501 375.352C397.276 375.561 398.03 374.891 398.679 374.242C398.742 374.179 398.784 374.242 398.784 374.347C398.553 375.729 397.8 377.09 396.417 377.09C395.161 377.09 394.512 375.729 394.449 374.284C394.449 374.012 394.721 373.677 394.91 373.865Z" fill="#263238"/>
<path d="M374.596 390.598C374.973 391.268 375.308 392.105 376.083 392.399C376.837 392.671 377.821 392.587 378.596 392.503C378.68 392.503 378.721 392.587 378.659 392.65C377.842 393.341 376.502 393.529 375.538 393.069C374.596 392.608 374.345 391.624 374.345 390.639C374.366 390.493 374.554 390.493 374.596 390.598Z" fill="#263238"/>
<path d="M385.695 384.567C385.695 384.567 385.423 388.001 385.088 389.572C385.046 389.718 384.669 389.697 384.125 389.614C384.104 389.614 384.083 389.614 384.062 389.593C381.193 389.425 378.596 387.854 377.402 385.216C377.318 385.048 377.57 384.923 377.674 385.048C379.413 387.017 381.632 387.917 384.083 388.483C384.292 388.064 384.334 382.577 384.585 382.619C385.465 382.724 387.035 383.687 387.978 384.211C388.732 377.069 388.355 369.865 389.213 362.766C389.255 362.515 389.611 362.515 389.653 362.745C390.596 370.263 389.905 378.493 389.318 385.886C389.255 386.849 386.261 384.964 385.695 384.567Z" fill="#263238"/>
<path d="M383.245 388.545C383.245 388.545 381.549 390.158 379.559 390.493C378.826 390.619 378.051 390.598 377.318 390.242C375.79 389.551 375.999 388.064 376.523 386.849C376.941 385.844 377.57 385.048 377.57 385.048C377.57 385.048 379.538 387.666 383.245 388.545Z" fill="#263238"/>
<path d="M379.559 390.493C378.826 390.619 378.051 390.598 377.318 390.242C375.79 389.551 375.999 388.064 376.523 386.849C378.198 387.331 379.706 388.797 379.559 390.493Z" fill="#FF9CBD"/>
<path d="M342.031 364.441C347.141 366.724 352.272 356.127 352.272 356.127C352.272 356.127 362.952 359.96 371.936 345.845C371.936 345.845 369.151 352.923 362.68 356.86C362.68 356.86 382.24 361.572 395.789 348.63C395.789 348.63 389.758 355.541 385.779 357.342C385.779 357.342 394.47 357.949 400.606 352.902C400.606 352.902 400.669 363.185 402.302 366.598C402.302 366.598 413.255 333.343 381.465 325.971C381.465 325.971 361.884 320.443 349.633 333.133C337.382 345.824 342.031 364.441 342.031 364.441Z" fill="#263238"/>
<path d="M372.586 381.739C378.742 381.865 383.873 376.965 383.999 370.808C384.124 364.651 379.224 359.52 373.067 359.394C366.91 359.269 361.779 364.169 361.654 370.326C361.549 375.541 365.025 380.001 369.842 381.341C370.722 381.593 371.643 381.718 372.586 381.739ZM382.512 370.766C382.386 376.106 377.968 380.357 372.627 380.232C367.287 380.127 363.036 375.687 363.162 370.347C363.287 365.007 367.706 360.756 373.046 360.881C373.863 360.902 374.659 361.028 375.434 361.237C379.58 362.389 382.596 366.263 382.512 370.766Z" fill="#DBDBDB"/>
<path d="M395.915 385.278C400.438 385.97 404.899 381.593 405.841 375.499C406.302 372.588 405.883 369.719 404.71 367.415C403.496 365.028 401.59 363.52 399.328 363.185C397.088 362.829 394.805 363.687 392.92 365.593C391.098 367.436 389.842 370.054 389.381 372.944C388.48 378.703 391.056 383.959 395.182 385.111C395.433 385.195 395.663 385.258 395.915 385.278ZM403.391 368.127C404.438 370.158 404.773 372.692 404.375 375.289C403.559 380.567 399.873 384.378 396.145 383.813C392.418 383.247 390.072 378.472 390.889 373.195C391.287 370.598 392.397 368.274 394.009 366.661C395.559 365.111 397.36 364.399 399.119 364.672C399.307 364.693 399.496 364.734 399.663 364.797C401.192 365.216 402.491 366.389 403.391 368.127Z" fill="#DBDBDB"/>
<path d="M383.433 372.022L382.659 370.745C384.543 369.593 388.711 368.316 390.972 371.603L389.737 372.441C387.726 369.488 383.601 371.918 383.433 372.022Z" fill="#DBDBDB"/>
<path d="M335.895 367.981L334.681 367.101C335.1 366.536 338.785 361.614 342.178 361.572C345.34 361.551 362.722 365.74 363.56 365.949L363.183 367.394C357.591 365.97 344.628 363.038 342.199 363.059C339.958 363.101 336.901 366.619 335.895 367.981Z" fill="#DBDBDB"/>
<path d="M348.628 367.541C348.628 367.541 343.895 355.667 338.681 357.133C333.466 358.578 335.351 374.619 340.293 377.928C345.256 381.216 348.398 376.692 348.398 376.692L348.628 367.541Z" fill="white"/>
<path d="M339.33 361.719C339.246 361.698 339.204 361.803 339.267 361.866C342.722 364.295 343.895 368.316 344.44 372.295C343.644 370.619 342.283 369.488 340.063 370.389C339.937 370.431 340 370.619 340.126 370.619C341.759 370.661 342.827 371.185 343.581 372.692C344.125 373.761 344.377 374.996 344.67 376.148C344.775 376.525 345.424 376.483 345.382 376.064C345.382 376.043 345.382 376.001 345.382 375.959C346.597 371.101 344.419 363.415 339.33 361.719Z" fill="#263238"/>
<path d="M447.536 616.89L447.551 623.298L304.602 623.649L304.586 617.241L447.536 616.89Z" fill="#DBDBDB"/>
<path d="M447.536 616.896L447.557 623.304L350.366 623.535L355.267 617.126L447.536 616.896Z" fill="#A6A6A6"/>
<path d="M361.444 623.513L500.771 623.178L512.142 528.521L372.816 528.856L361.444 623.513Z" fill="#DBDBDB"/>
<path d="M428.312 576.038C428.249 580.729 431.977 584.519 436.668 584.499C441.359 584.478 445.212 580.687 445.275 575.996C445.338 571.305 441.61 567.515 436.919 567.536C432.228 567.536 428.375 571.347 428.312 576.038Z" fill="white"/>
<defs>
<linearGradient id="paint0_linear_1_2" x1="281.384" y1="389.162" x2="281.384" y2="694.573" gradientUnits="userSpaceOnUse">
<stop stop-color="#BCBFFD"/>
<stop offset="1" stop-color="#6A10E7"/>
</linearGradient>
</defs>
</svg>
