<svg width="572" height="450" viewBox="0 0 572 450" fill="none" xmlns="http://www.w3.org/2000/svg">
<path d="M7.52113 137.771C3.53117 107.907 26.6644 81.3241 56.7932 81.1508L486.345 78.6807C511.966 78.5333 533.552 97.7763 536.337 123.245L565.874 393.391C569.132 423.191 545.615 449.141 515.639 448.823L91.7104 444.318C66.8586 444.054 45.9732 425.577 42.682 400.942L7.52113 137.771Z" fill="url(#paint0_linear_2303_262)"/>
<path opacity="0.22" d="M391.623 294.061C315.126 294.061 253.113 231.785 253.113 154.964C253.113 78.1427 315.126 15.8668 391.623 15.8668C468.12 15.8668 530.133 78.1427 530.133 154.964C530.133 231.785 468.12 294.061 391.623 294.061Z" fill="#BCBFFD"/>
<path d="M472.616 383.271H504.309V443.135H472.616V383.271Z" fill="#6914E7"/>
<path d="M405.709 407.921H436.228V444.309H405.709V407.921Z" fill="#6914E7"/>
<path d="M405.709 407.921H436.228V444.309H405.709V407.921Z" fill="#BCBFFD"/>
<path d="M342.323 444.111L374.016 444.309V363.316H342.323V444.111Z" fill="#6914E7"/>
<path d="M277.763 400.878H308.282V444.309H277.763V400.878Z" fill="#6914E7"/>
<g opacity="0.79">
<g opacity="0.79">
<path opacity="0.79" d="M277.32 400.967H308.363V443.731H277.32V400.967Z" fill="white"/>
</g>
</g>
<path d="M213.203 363.316H243.722V443.135H213.203V363.316Z" fill="#6914E7"/>
<path d="M148.643 258.846H180.336V444.309H148.643V258.846Z" fill="#6914E7"/>
<path d="M148.643 258.846H180.336V444.309H148.643V258.846Z" fill="#BCBFFD"/>
<path d="M277.769 411.449C277.531 411.71 284.164 419.267 292.588 428.342C301.011 437.417 308.038 444.563 308.276 444.302C308.514 444.042 301.881 436.485 293.447 427.41C285.034 418.334 278.007 411.189 277.769 411.449Z" fill="#6914E7"/>
<path d="M212.036 411.449C211.798 411.71 218.431 419.267 226.854 428.342C235.278 437.417 242.304 444.563 242.542 444.302C242.78 444.042 236.147 436.485 227.713 427.41C219.3 418.334 212.274 411.189 212.036 411.449Z" fill="white"/>
<path d="M212.036 383.278C211.789 383.528 218.677 390.816 227.425 399.567C236.172 408.318 243.469 415.208 243.716 414.957C243.963 414.706 237.075 407.419 228.316 398.668C219.58 389.917 212.283 383.027 212.036 383.278Z" fill="white"/>
<path d="M222.603 362.151C222.361 362.411 226.886 367.598 232.716 373.758C238.546 379.907 243.471 384.684 243.713 384.435C243.955 384.176 239.43 378.989 233.6 372.829C227.77 366.68 222.856 361.903 222.603 362.151Z" fill="white"/>
<path d="M82.9097 147.334H112.255V444.309H82.9097V147.334Z" fill="#6914E7"/>
<path d="M224.448 292.887L220.319 304.697C220.319 304.697 201.227 322.423 198.411 346.159C195.596 369.895 195.596 375.073 195.596 375.073L201.508 444.309H328.762C328.762 444.309 332.974 388.348 331.41 372.521C329.846 356.693 320.764 338.788 320.764 338.788L311.067 315.052L310.775 303.105L224.448 292.887Z" fill="#263238"/>
<path d="M220.246 305.805C220.246 305.826 220.55 305.888 221.146 306.001C221.785 306.115 222.643 306.26 223.732 306.456C226.035 306.828 229.27 307.354 233.248 307.995C241.287 309.265 252.415 310.948 264.725 312.652C277.036 314.346 288.216 315.709 296.318 316.504C300.37 316.917 303.657 317.186 305.928 317.341C307.027 317.413 307.896 317.465 308.545 317.506C309.142 317.537 309.456 317.547 309.456 317.526C309.456 317.506 309.142 317.465 308.545 317.403C307.896 317.341 307.027 317.248 305.939 317.144C303.678 316.917 300.391 316.597 296.35 316.132C288.258 315.234 277.099 313.819 264.788 312.125C252.478 310.421 241.35 308.8 233.289 307.623C229.301 307.045 226.045 306.58 223.742 306.249C222.654 306.105 221.785 305.981 221.146 305.898C220.571 305.816 220.257 305.785 220.246 305.805Z" fill="#455A64"/>
<path d="M293.026 348.057C292.996 348.078 293.157 348.473 293.48 349.173C293.793 349.873 294.298 350.877 294.944 352.094C296.236 354.528 298.194 357.815 300.636 361.243C303.088 364.671 305.561 367.582 307.438 369.591C308.377 370.595 309.164 371.396 309.719 371.923C310.274 372.451 310.597 372.735 310.628 372.704C310.658 372.674 310.385 372.349 309.871 371.771C309.285 371.112 308.569 370.301 307.711 369.337C305.904 367.268 303.492 364.337 301.06 360.929C298.628 357.521 296.639 354.285 295.267 351.901C294.631 350.786 294.096 349.832 293.662 349.072C293.279 348.402 293.056 348.037 293.026 348.057Z" fill="#455A64"/>
<path d="M141.691 168.332C141.691 168.332 138.998 212.132 138.18 217.089C137.372 222.046 141.691 228.305 141.691 228.305C141.691 228.305 151.666 229.346 158.41 217.349L162.729 207.966C162.729 207.966 158.679 197.272 160.305 183.192C161.921 169.113 162.729 162.594 162.729 162.594L141.691 168.332Z" fill="white"/>
<path d="M137.103 145.013C137.103 145.013 132.684 146.467 133.48 150.702C134.276 154.937 137.103 162.432 137.103 162.432L142.591 168.463L162.531 162.432C162.531 162.432 164.029 159.826 163.892 156.525C163.756 153.224 163.903 145.024 163.903 145.024C163.903 145.024 161.096 141.588 160.29 137.488C159.62 134.073 159.138 130.097 159.002 128.872C158.981 128.654 158.771 128.519 158.562 128.561C157.672 128.747 155.525 129.474 154.687 132.069C153.619 135.37 153.891 136.304 153.891 136.304L137.103 145.013Z" fill="white"/>
<path d="M159.206 147.344C159.196 147.292 158.462 147.437 157.473 148.1C156.475 148.752 155.281 149.975 154.37 151.59C153.46 153.206 152.941 154.822 152.598 155.982C152.266 157.142 152.119 157.877 152.177 157.898C152.246 157.919 152.52 157.225 152.931 156.106C153.352 154.988 153.92 153.434 154.801 151.87C155.682 150.316 156.769 149.115 157.669 148.411C158.58 147.706 159.245 147.427 159.206 147.344Z" fill="#DADADA"/>
<path d="M327.063 326.015L366.542 276.454C366.542 276.454 387.53 294.327 388.095 294.887C388.649 295.448 355.264 328.298 333.815 341.014L327.074 336.5V326.015H327.063Z" fill="white"/>
<path d="M293.3 309.504C293.3 309.504 306.059 307.525 307.236 308.346C308.414 309.167 317.148 314.954 317.148 314.954C317.148 314.954 319.621 318.689 321.012 320.068C321.012 320.068 323.87 323.372 326.053 323.698C328.237 324.024 329.575 323.698 329.575 323.698L335.28 339.218C335.28 339.218 330.913 343.68 328.226 343.343C325.54 343.017 311.261 335.251 311.261 335.251L307.739 334.094C307.739 334.094 293.964 334.589 293.3 330.464V329.306L306.905 328.149L311.946 328.97L303.212 325.739C303.212 325.739 290.453 325.003 289.276 324.677C288.098 324.35 286.76 322.53 287.263 321.541L289.95 321.215C289.95 321.215 287.049 319.247 287.156 317.427L299.241 315.543C299.219 315.554 291.952 311.976 293.3 309.504Z" fill="white"/>
<path d="M289.501 321.162C289.512 321.203 289.896 321.131 290.571 321.019C291.257 320.896 292.244 320.742 293.48 320.557C295.941 320.198 299.348 319.778 303.119 319.358C303.597 319.317 304.064 319.235 304.48 319.245C304.916 319.255 305.342 319.327 305.736 319.471C306.536 319.778 307.336 320.147 308.074 320.485C309.559 321.172 310.878 321.839 311.948 322.433C313.028 323.038 313.859 323.571 314.431 323.971C315.002 324.361 315.282 324.617 315.324 324.576C315.345 324.555 315.106 324.248 314.566 323.807C314.036 323.356 313.215 322.761 312.156 322.105C311.086 321.459 309.787 320.752 308.302 320.034C307.554 319.676 306.796 319.317 305.923 318.968C305.477 318.814 304.999 318.722 304.5 318.712C304.002 318.702 303.534 318.784 303.067 318.825C299.286 319.245 295.879 319.727 293.428 320.178C292.202 320.403 291.215 320.619 290.54 320.803C289.855 320.988 289.491 321.131 289.501 321.162Z" fill="#DADADA"/>
<path d="M298.892 316.654C298.924 316.742 299.872 316.313 301.481 315.994C303.079 315.664 305.381 315.532 307.778 316.181C310.186 316.83 312.136 318.096 313.372 319.185C314.629 320.274 315.247 321.121 315.321 321.055C315.375 321.022 314.853 320.076 313.627 318.877C312.423 317.678 310.42 316.291 307.916 315.62C305.402 314.949 303.005 315.158 301.396 315.598C299.766 316.027 298.871 316.599 298.892 316.654Z" fill="#DADADA"/>
<path d="M138.145 218.977C138.145 218.977 135.731 223.293 135.731 227.37C135.731 231.446 138.134 238.577 138.134 238.577L141.125 241.382C141.125 241.382 139.163 250.296 150.528 252.85C161.892 255.394 225.516 219.06 225.516 219.06L227.289 170.81C227.289 170.81 218.054 174.637 211.391 181.257C204.727 187.877 166.772 215.651 166.772 215.651C166.772 215.651 165.229 205.809 163.519 206.466C161.808 207.112 138.145 218.977 138.145 218.977Z" fill="#BCBFFD"/>
<path d="M227.368 171.188L261.765 163.909L270.718 154.752L310.273 154.377L315.033 162.991L344.67 180.918C344.67 180.918 337.206 230.028 334.48 235.753C331.755 241.468 310.179 304.625 310.179 304.625L223.951 294.395L223.217 254.755L220.722 235.576C220.187 231.467 220.103 227.327 220.47 223.207C222.085 205.28 227.368 171.188 227.368 171.188Z" fill="#BCBFFD"/>
<path d="M354.852 288.633L383.371 308.147L393.336 293.973L390.67 291.609C390.67 291.609 405.385 279.473 404.496 270.914C403.608 262.355 388.089 240.33 388.089 240.33C388.089 240.33 354.841 186.032 344.538 180.217C343.099 179.404 330.585 209.535 330.585 221.344C330.585 233.153 332.954 233.153 332.954 233.153C332.954 233.153 343.014 242.894 347.754 251.749C352.493 260.603 360.532 270.249 365.853 273.795L354.852 288.633Z" fill="#BCBFFD"/>
<path d="M382.233 267.142C382.233 267.1 381.947 267.08 381.43 267.069C380.913 267.049 380.165 267.08 379.253 267.183C377.416 267.38 374.898 267.96 372.369 269.152C369.84 270.343 367.816 271.877 366.519 273.11C365.221 274.343 364.583 275.244 364.627 275.276C364.759 275.421 367.618 271.96 372.622 269.639C375.096 268.478 377.526 267.857 379.308 267.567C381.1 267.266 382.233 267.235 382.233 267.142Z" fill="#263238"/>
<path d="M372.84 256.501C372.81 256.457 371.959 257.079 370.828 258.402C369.696 259.713 368.345 261.769 367.344 264.314C366.353 266.871 365.933 269.371 365.833 271.183C365.733 272.995 365.883 274.106 365.943 274.106C366.033 274.106 366.013 272.995 366.203 271.216C366.393 269.449 366.864 267.037 367.825 264.537C368.796 262.047 370.067 260.013 371.098 258.657C372.139 257.312 372.89 256.579 372.84 256.501Z" fill="#263238"/>
<path d="M265.331 225.98C265.291 225.969 265.211 226.484 265.09 227.409C265.019 227.872 264.949 228.439 264.929 229.112C264.899 229.774 264.828 230.531 264.858 231.371C264.868 232.212 264.879 233.127 264.979 234.114C265.029 235.102 265.211 236.143 265.372 237.236C265.764 239.422 266.368 241.787 267.254 244.183C268.17 246.569 269.287 248.723 270.424 250.594C271.028 251.508 271.581 252.391 272.185 253.148C272.749 253.936 273.343 254.619 273.886 255.239C274.409 255.881 274.963 256.375 275.416 256.847C275.869 257.32 276.291 257.688 276.644 257.972C277.338 258.561 277.741 258.876 277.761 258.844C277.831 258.76 276.261 257.478 274.158 254.987C273.634 254.357 273.071 253.673 272.517 252.885C271.934 252.128 271.4 251.246 270.816 250.331C269.709 248.471 268.632 246.338 267.727 243.983C266.851 241.629 266.237 239.296 265.825 237.152C265.653 236.069 265.462 235.05 265.392 234.072C265.271 233.106 265.231 232.202 265.211 231.371C265.13 228.05 265.442 226.001 265.331 225.98Z" fill="#263238"/>
<path d="M267.199 207.198C267.209 207.209 267.439 207.042 267.866 206.7C268.294 206.368 268.899 205.838 269.733 205.215C271.36 203.928 273.779 202.152 276.855 200.044C279.921 197.926 283.643 195.497 287.773 192.735C291.881 189.952 296.428 186.869 300.797 183.069L300.401 183.027C300.839 183.65 301.287 184.335 301.704 185.041C303.498 188.073 304.686 191.344 305.291 194.51L305.448 195.331L305.792 194.573C309.744 185.789 312.08 177.711 313.498 171.928C314.196 169.031 314.666 166.695 314.947 165.086C315.093 164.286 315.177 163.653 315.25 163.237C315.312 162.812 315.333 162.594 315.323 162.594C315.302 162.594 315.25 162.812 315.166 163.227C315.072 163.684 314.937 164.296 314.78 165.054C314.447 166.653 313.925 168.969 313.174 171.845C311.673 177.586 309.274 185.623 305.322 194.355L305.823 194.417C305.218 191.188 304.009 187.855 302.184 184.771C301.756 184.055 301.297 183.359 300.849 182.726L300.672 182.477L300.442 182.674C296.104 186.443 291.589 189.547 287.502 192.34C283.404 195.123 279.691 197.594 276.646 199.754C273.602 201.903 271.203 203.73 269.618 205.07C268.805 205.724 268.221 206.274 267.814 206.638C267.397 206.991 267.189 207.188 267.199 207.198Z" fill="#263238"/>
<path d="M262.206 163.768C262.196 163.758 262.089 163.902 261.919 164.191C261.749 164.48 261.483 164.903 261.164 165.471C260.525 166.595 259.621 168.246 258.589 170.341C256.546 174.54 253.79 180.556 252.099 187.872L251.939 188.584L252.535 188.13C254.301 186.799 256.003 185.282 257.599 183.579C258.578 182.527 259.483 181.443 260.302 180.339L259.802 180.195C260.142 186.159 260.462 191.597 260.717 196.065V196.116L260.738 196.158C262.664 199.501 264.249 202.256 265.388 204.237C265.93 205.155 266.367 205.888 266.696 206.445C267.005 206.951 267.175 207.209 267.197 207.198C267.218 207.188 267.079 206.909 266.813 206.383C266.505 205.816 266.111 205.062 265.611 204.123C264.515 202.122 262.983 199.336 261.132 195.951L261.153 196.044C260.93 191.576 260.653 186.128 260.345 180.164L260.302 179.411L259.844 180.02C259.036 181.103 258.142 182.176 257.174 183.208C255.61 184.89 253.918 186.396 252.194 187.707L252.631 187.965C254.269 180.721 256.95 174.706 258.908 170.475C259.908 168.36 260.749 166.688 261.334 165.543C261.611 165.006 261.823 164.573 262.004 164.222C262.153 163.933 262.217 163.768 262.206 163.768Z" fill="#263238"/>
<path d="M220.266 224.806C220.411 224.816 221.312 216.681 222.275 206.637C223.238 196.584 223.9 188.428 223.745 188.418C223.6 188.407 222.699 196.532 221.736 206.586C220.784 216.63 220.121 224.785 220.266 224.806Z" fill="#263238"/>
<path d="M159.213 230.673C159.255 230.716 160.013 230.084 161.056 228.885C162.11 227.686 163.427 225.908 164.586 223.756C165.744 221.604 166.503 219.506 166.924 217.964C167.346 216.422 167.472 215.437 167.409 215.416C167.24 215.362 166.408 219.249 164.101 223.489C161.836 227.739 159.076 230.555 159.213 230.673Z" fill="#263238"/>
<path d="M163.91 231.847C163.949 231.868 164.172 231.661 164.551 231.255C164.944 230.859 165.428 230.243 165.951 229.441C167.023 227.858 168.109 225.474 168.475 222.735C168.828 219.985 168.371 217.474 167.743 215.755C167.429 214.891 167.115 214.203 166.827 213.755C166.566 213.297 166.395 213.058 166.343 213.068C166.239 213.11 166.762 214.131 167.259 215.85C167.769 217.569 168.122 220.005 167.782 222.682C167.429 225.358 166.448 227.681 165.506 229.285C164.603 230.879 163.819 231.785 163.91 231.847Z" fill="#263238"/>
<path d="M345.84 210.72C345.811 210.71 345.626 211.085 345.314 211.792C344.963 212.607 344.535 213.615 344.028 214.794C342.879 217.442 341.389 220.882 339.743 224.688C338.067 228.547 336.597 232.074 335.594 234.657C335.097 235.944 334.697 237.005 334.454 237.734C334.201 238.473 334.074 238.881 334.113 238.891C334.142 238.902 334.327 238.527 334.639 237.819C334.99 237.005 335.418 235.997 335.925 234.818C337.074 232.17 338.564 228.729 340.21 224.924C341.885 221.065 343.356 217.538 344.359 214.955C344.856 213.668 345.255 212.607 345.499 211.878C345.752 211.149 345.869 210.731 345.84 210.72Z" fill="#263238"/>
<path d="M244.902 268.237C244.871 268.248 244.974 268.699 245.2 269.517C245.426 270.325 245.786 271.49 246.248 272.927C247.184 275.791 248.603 279.694 250.392 283.922C252.181 288.149 254.001 291.884 255.399 294.539C256.098 295.871 256.684 296.931 257.106 297.654C257.527 298.378 257.774 298.767 257.805 298.756C257.836 298.735 257.651 298.315 257.28 297.56C256.869 296.71 256.345 295.64 255.728 294.371C254.422 291.674 252.664 287.929 250.875 283.712C249.096 279.505 247.626 275.623 246.598 272.801C246.115 271.469 245.714 270.356 245.385 269.454C245.107 268.657 244.932 268.227 244.902 268.237Z" fill="#263238"/>
<path d="M244.904 285.846C244.842 285.877 245.145 286.634 245.74 287.791C246.336 288.947 247.245 290.514 248.395 292.144C249.534 293.774 250.694 295.172 251.572 296.129C252.46 297.086 253.056 297.622 253.108 297.58C253.223 297.464 251.091 295.078 248.834 291.839C246.566 288.611 245.051 285.772 244.904 285.846Z" fill="#263238"/>
<path d="M251.956 285.844C251.976 285.844 252.017 285.571 252.068 285.035C252.129 284.447 252.2 283.67 252.291 282.704C252.464 280.676 252.749 277.745 253.115 274.122C253.888 266.895 255.077 256.905 257.11 246.002C259.123 235.088 261.614 225.371 263.698 218.418C264.196 216.674 264.694 215.109 265.132 213.733C265.558 212.357 265.935 211.17 266.26 210.214C266.555 209.289 266.799 208.544 266.982 207.987C267.144 207.472 267.216 207.209 267.195 207.199C267.175 207.188 267.073 207.451 266.88 207.945C266.677 208.491 266.402 209.226 266.067 210.13C265.711 211.075 265.304 212.252 264.847 213.628C264.379 214.993 263.861 216.548 263.342 218.291C261.177 225.224 258.605 234.962 256.592 245.886C254.548 256.811 253.41 266.821 252.739 274.069C252.424 277.693 252.19 280.634 252.078 282.672C252.027 283.649 251.986 284.426 251.946 285.014C251.936 285.571 251.936 285.844 251.956 285.844Z" fill="#263238"/>
<path d="M249.926 292.886C250.116 292.825 248.848 290.796 249.114 288.122C249.317 285.447 250.94 283.58 250.75 283.499C250.686 283.459 250.192 283.873 249.647 284.68C249.101 285.477 248.569 286.699 248.442 288.092C248.328 289.484 248.632 290.746 249.025 291.604C249.444 292.462 249.862 292.916 249.926 292.886Z" fill="#263238"/>
<path d="M251.526 297.582C251.83 297.574 252.004 297.045 251.917 296.392C251.808 295.747 251.482 295.227 251.179 295.235C250.875 295.243 250.701 295.772 250.788 296.425C250.896 297.07 251.222 297.591 251.526 297.582Z" fill="#263238"/>
<path d="M364.625 277.639C364.615 277.682 365.05 277.833 365.838 278.081C366.627 278.319 367.759 278.707 369.134 279.226C370.518 279.722 372.125 280.435 373.894 281.255C375.653 282.108 377.553 283.112 379.504 284.268C383.396 286.6 386.701 289.083 389.036 290.972C390.198 291.922 391.128 292.699 391.765 293.25C392.402 293.801 392.776 294.081 392.796 294.06C392.816 294.027 392.503 293.682 391.896 293.088C391.3 292.484 390.4 291.652 389.258 290.659C386.974 288.683 383.679 286.124 379.757 283.771C377.796 282.605 375.865 281.601 374.086 280.769C372.287 279.971 370.65 279.29 369.245 278.837C367.84 278.362 366.687 278.038 365.889 277.865C365.08 277.682 364.636 277.595 364.625 277.639Z" fill="#263238"/>
<path d="M364.625 277.785C364.625 277.884 366.108 277.84 368.467 278.05C370.825 278.26 374.072 278.822 377.502 279.992C380.932 281.172 383.875 282.684 385.931 283.875C387.997 285.067 389.22 285.917 389.274 285.839C389.296 285.806 389.015 285.564 388.474 285.155C387.943 284.736 387.143 284.184 386.125 283.533C384.102 282.243 381.148 280.654 377.664 279.462C374.18 278.271 370.869 277.763 368.477 277.664C367.276 277.609 366.302 277.62 365.642 277.675C364.993 277.697 364.625 277.741 364.625 277.785Z" fill="#263238"/>
<g opacity="0.3">
<g opacity="0.3">
<path opacity="0.3" d="M344.271 214.581C345.571 222.916 341.545 231.838 334.437 236.388C336.911 230.098 341.188 221.05 344.271 214.581Z" fill="black"/>
</g>
</g>
<g opacity="0.3">
<g opacity="0.3">
<path opacity="0.3" d="M304.2 190.091C302.879 192.785 301.044 195.228 298.822 197.241C298.853 195.333 298.895 193.425 298.927 191.506C290.172 195.396 281.418 199.284 272.664 203.174C282.058 196.443 291.462 189.703 300.856 182.972C302.397 185.562 302.659 187.501 304.2 190.091Z" fill="black"/>
</g>
</g>
<g opacity="0.3">
<g opacity="0.3">
<path opacity="0.3" d="M255.712 185.624C256.833 183.863 259.937 180.141 259.937 180.141C260.041 182.898 260.272 186.662 260.377 189.409L260.775 196.003C260.366 193.707 260.062 189.272 259.654 186.976C258.028 188.518 256.393 190.059 254.768 191.61C254.034 189.639 254.59 187.385 255.712 185.624Z" fill="black"/>
</g>
</g>
<g opacity="0.3">
<g opacity="0.3">
<path opacity="0.3" d="M223.662 192.376L220.318 222.622C218.86 212.778 216.176 207.431 223.662 192.376Z" fill="black"/>
</g>
</g>
<g opacity="0.3">
<g opacity="0.3">
<path opacity="0.3" d="M148.963 235.979C150.221 234.941 152.999 234.291 154.435 233.505C160.946 229.972 164.395 223.493 166.943 216.521L167.163 215.745C166.901 225.086 160.988 235.057 152.464 238.894C151.584 239.292 150.619 239.638 149.676 239.481C148.722 239.324 147.82 238.474 147.935 237.52C148.009 236.891 148.48 236.378 148.963 235.979Z" fill="black"/>
</g>
</g>
<g opacity="0.3">
<g opacity="0.3">
<path opacity="0.3" d="M284.018 261.906C273.241 258.331 268.041 248.183 265.283 239.303C265.22 243.15 265.493 247.04 266.657 250.709C267.82 254.379 269.949 257.818 273.083 260.051C276.197 262.294 280.391 263.185 284.018 261.906Z" fill="black"/>
</g>
</g>
<g opacity="0.3">
<g opacity="0.3">
<path opacity="0.3" d="M366.193 278.324C374.003 277.8 381.982 280.379 388.01 285.37C388.45 285.737 388.933 286.271 388.744 286.817C388.597 287.225 388.115 287.425 387.675 287.383C387.245 287.341 386.857 287.11 386.49 286.879C380.231 283.137 373.154 280.295 366.193 278.146" fill="black"/>
</g>
</g>
<g opacity="0.3">
<g opacity="0.3">
<path opacity="0.3" d="M236.862 257.272C237.553 256.423 238.969 256.538 239.829 257.219C240.688 257.901 241.129 258.96 241.537 259.977C245.804 270.566 250.071 281.165 254.338 291.754L256.299 296.472C251.822 288.976 247.356 281.469 242.879 273.973C240.206 269.486 237.48 264.873 236.547 259.725C236.4 258.897 236.327 257.932 236.862 257.272Z" fill="black"/>
</g>
</g>
<path d="M324.919 78.6596C316.972 67.5681 303.826 61.0728 290.417 58.6173C284.777 57.5785 281.077 58.334 275.458 59.4673C269.838 60.6111 264.659 63.2554 261.064 67.7255C256.797 73.0352 253.107 79.0584 251.932 85.7741C250.727 92.6787 249.521 99.6253 249.595 106.624C249.678 113.623 251.115 120.769 254.857 126.688L272.375 130.906C282.136 131.861 292.042 132.826 301.719 131.2C311.395 129.573 320.987 125.03 326.628 116.992C334.469 105.837 332.865 89.7511 324.919 78.6596Z" fill="#263238"/>
<path d="M260.154 137.222C260.187 137.265 259.822 137.649 258.972 138.097C258.132 138.545 256.785 139.025 255.04 139.11C253.317 139.174 251.152 138.833 249.186 137.585C247.198 136.359 245.64 134.14 245.099 131.592C244.569 129.043 245.099 126.409 246.436 124.532C247.75 122.644 249.595 121.503 251.218 120.917C252.864 120.341 254.289 120.277 255.25 120.373C256.211 120.469 256.697 120.682 256.686 120.735C256.686 120.949 254.532 120.373 251.516 121.621C250.058 122.25 248.424 123.359 247.308 125.065C246.171 126.75 245.729 129.075 246.204 131.368C246.69 133.661 248.037 135.633 249.771 136.753C251.494 137.905 253.438 138.31 255.04 138.342C258.309 138.374 260.065 137.02 260.154 137.222Z" fill="#E0E0E0"/>
<path d="M338.785 129.027C338.596 124.952 336.748 120.835 333.418 118.542C330.079 116.25 325.216 116.144 322.15 118.797L319.146 121.981C314.651 123.583 311.585 128.422 311.816 133.23C312.047 138.037 315.408 142.473 319.86 144.171C324.313 145.869 329.617 144.839 333.292 141.794C336.989 138.748 339.006 133.835 338.785 129.027Z" fill="#263238"/>
<path d="M334.672 140.286C334.548 140.216 335.831 139.219 335.831 136.986C335.831 134.822 334.393 131.891 332.334 129.16C330.233 126.418 327.667 124.474 325.68 123.317C323.704 122.131 322.318 121.652 322.369 121.523C322.39 121.443 323.859 121.722 325.981 122.809C328.102 123.866 330.833 125.81 333.017 128.671C334.113 130.087 334.972 131.572 335.572 132.988C336.183 134.394 336.524 135.809 336.441 137.006C336.369 138.202 335.903 139.109 335.479 139.628C335.055 140.156 334.703 140.325 334.672 140.286Z" fill="#455A64"/>
<path d="M325.76 144.986C325.468 144.955 327.058 139.757 325.717 133.424C324.473 127.07 320.948 122.831 321.208 122.687C321.283 122.625 322.267 123.584 323.446 125.42C324.636 127.246 325.922 130.01 326.593 133.259C327.252 136.508 327.133 139.53 326.755 141.644C326.387 143.779 325.847 145.017 325.76 144.986Z" fill="#455A64"/>
<path d="M270.379 159.215C270.901 153.001 271.38 147.909 271.38 147.941C271.38 147.941 256.807 145.422 253.954 126.621C252.538 117.267 253.145 101.973 254.06 89.4599C254.88 78.2067 265.599 63.4789 279.704 64.3186L286.017 63.9932L309.393 74.9105C312.842 75.2989 315.418 78.2382 315.322 81.6603L310.202 162.07L266.738 207.199L264.247 194.465L270.379 159.215Z" fill="white"/>
<path d="M282.452 124.184C282.391 123.15 281.913 122.204 281.282 121.545C280.009 120.203 278.055 119.95 276.558 120.929C275.052 121.896 274.105 124.041 274.258 126.108C274.991 127.361 276.182 128.252 277.535 128.483C277.749 128.516 277.963 128.538 278.177 128.549C279.215 128.593 280.294 128.285 281.129 127.515C281.964 126.735 282.523 125.459 282.452 124.184Z" fill="#DADADA"/>
<path d="M258.984 102.579C258.933 103.873 259.939 104.986 261.232 105.072C262.526 105.157 263.624 104.173 263.675 102.878C263.727 101.584 262.721 100.46 261.427 100.386C260.134 100.311 259.035 101.284 258.984 102.579Z" fill="#263238"/>
<path d="M259.019 96.7785C259.307 97.0653 261.112 95.8511 263.659 95.8797C266.206 95.8702 268.063 97.1036 268.341 96.8167C268.475 96.6925 268.186 96.1666 267.372 95.612C266.578 95.0575 265.216 94.5125 263.628 94.5125C262.04 94.503 260.699 95.0384 259.936 95.5834C259.153 96.1379 258.874 96.6542 259.019 96.7785Z" fill="#263238"/>
<path d="M273.964 117.887C273.975 117.735 272.324 117.433 269.649 117.065C268.969 116.989 268.333 116.849 268.214 116.384C268.063 115.887 268.354 115.163 268.689 114.374C269.347 112.731 270.026 111.013 270.749 109.208C273.608 101.848 275.679 95.7958 275.388 95.6877C275.086 95.5796 272.529 101.448 269.67 108.808C268.98 110.624 268.322 112.353 267.696 114.007C267.427 114.774 266.984 115.649 267.319 116.676C267.502 117.184 267.988 117.562 268.43 117.681C268.861 117.822 269.25 117.832 269.584 117.854C272.281 118.016 273.953 118.038 273.964 117.887Z" fill="#263238"/>
<path d="M271.102 148.242C271.102 148.242 283.839 149.208 296.544 141.465C296.544 141.465 289.667 155.019 270.72 152.998L271.102 148.242Z" fill="#DADADA"/>
<path d="M280.895 119.163C280.5 119.128 280.47 122.258 278.188 124.454C275.915 126.662 273.089 126.276 273.069 126.708C273.03 126.907 273.692 127.327 274.887 127.374C276.053 127.432 277.763 127.012 279.156 125.669C280.549 124.325 281.152 122.515 281.261 121.23C281.369 119.934 281.083 119.151 280.895 119.163Z" fill="#263238"/>
<path d="M260.215 86.0843C260.632 86.5606 262.28 86.0843 264.268 86.0758C266.246 86.0077 267.923 86.4245 268.32 85.9312C268.495 85.693 268.233 85.2082 267.506 84.7574C266.789 84.298 265.586 83.9238 264.219 83.9493C262.862 83.9748 261.669 84.4001 260.981 84.885C260.273 85.3613 260.031 85.8461 260.215 86.0843Z" fill="#263238"/>
<path d="M288.327 103.3C288.317 104.273 287.253 105.069 285.954 105.077C284.665 105.085 283.622 104.305 283.632 103.332C283.642 102.359 284.706 101.564 285.995 101.556C287.294 101.539 288.337 102.319 288.327 103.3Z" fill="#263238"/>
<path d="M292.979 99.1722C292.669 99.4282 290.944 98.2186 288.392 98.1214C285.851 97.9978 283.919 99.0397 283.661 98.766C283.527 98.6424 283.857 98.1744 284.694 97.7065C285.52 97.2297 286.915 96.797 288.506 96.8676C290.097 96.9383 291.398 97.4946 292.142 98.0332C292.886 98.5718 293.133 99.0574 292.979 99.1722Z" fill="#263238"/>
<path d="M292.942 95.4376C292.431 96.0782 290.573 95.2953 288.305 95.153C286.036 94.9276 284.09 95.3902 283.678 94.6785C283.5 94.3345 283.834 93.6821 284.701 93.089C285.558 92.5077 286.959 92.057 288.527 92.1874C290.084 92.3179 291.407 92.9822 292.175 93.7058C292.931 94.4294 293.165 95.1292 292.942 95.4376Z" fill="#263238"/>
<path d="M308.286 113.738C308.306 112.314 309.889 108.965 311.229 108.762C314.801 108.205 321.214 108.569 321.194 118.115C321.164 131.159 308.753 128.441 308.722 128.067C308.722 127.778 308.235 118.66 308.286 113.738Z" fill="white"/>
<path d="M314.16 122.743C314.203 122.698 314.34 122.908 314.649 123.084C314.949 123.26 315.464 123.382 316.013 123.128C317.119 122.61 318.054 120.363 318.106 117.939C318.131 116.716 317.934 115.548 317.6 114.589C317.282 113.608 316.785 112.914 316.236 112.793C315.687 112.628 315.292 113.057 315.164 113.432C315.027 113.807 315.087 114.071 315.035 114.093C315.009 114.126 314.812 113.873 314.898 113.311C314.941 113.046 315.061 112.727 315.31 112.474C315.558 112.209 315.927 112.077 316.322 112.132C317.128 112.209 317.848 113.157 318.217 114.225C318.629 115.294 318.878 116.594 318.843 117.972C318.775 120.682 317.685 123.205 316.176 123.767C315.438 124.01 314.829 123.723 314.512 123.404C314.177 123.073 314.126 122.765 314.16 122.743Z" fill="#DADADA"/>
<path d="M312.934 108.967L309.529 112.12C296.583 97.8159 271.746 62.5031 273.123 64.605C273.123 64.605 282.819 61.2734 292.961 63.7117C303.103 66.15 322.227 72.624 321.151 84.8889C320.074 97.1537 312.934 108.967 312.934 108.967Z" fill="#263238"/>
<path d="M310.634 140.155C310.592 140.195 310.893 140.585 311.621 141.106C312.349 141.627 313.545 142.218 315.166 142.508C316.767 142.768 318.826 142.698 320.822 141.757C322.828 140.846 324.554 138.963 325.375 136.65C326.186 134.337 326.02 131.823 325.001 129.92C324.003 128.008 322.423 126.736 320.988 126.005C319.522 125.284 318.192 125.054 317.298 125.034C316.393 125.014 315.904 125.154 315.915 125.204C315.884 125.404 317.973 125.114 320.635 126.626C321.924 127.377 323.307 128.599 324.138 130.321C324.991 132.023 325.116 134.236 324.388 136.319C323.65 138.392 322.142 140.075 320.396 140.926C318.639 141.797 316.778 141.957 315.281 141.797C312.214 141.437 310.738 139.975 310.634 140.155Z" fill="#E0E0E0"/>
<path d="M321.858 120.336C321.785 120.326 321.869 119.266 321.921 117.337C321.973 115.419 321.89 112.622 321.368 109.231C320.397 102.459 317.12 93.3037 310.858 84.9427C304.596 76.5818 297.123 70.6263 291.602 66.6736C288.826 64.692 286.509 63.1767 284.912 62.1488C283.305 61.1103 282.418 60.538 282.46 60.4745C282.47 60.4533 282.721 60.5592 283.159 60.7924C283.608 61.0255 284.265 61.3752 285.09 61.8521C286.749 62.7952 289.118 64.2364 291.957 66.165C297.593 70.0011 305.201 75.9353 311.557 84.4129C317.913 92.8904 321.149 102.247 321.984 109.135C322.432 112.579 322.432 115.409 322.265 117.348C322.224 118.312 322.078 119.065 322.025 119.563C321.942 120.071 321.879 120.336 321.858 120.336Z" fill="#455A64"/>
<path d="M290.676 60.4772C290.686 60.446 290.932 60.5502 291.384 60.769C291.835 60.9774 292.502 61.3212 293.343 61.7692C295.026 62.6653 297.437 64.0406 300.3 65.9161C303.162 67.7916 306.486 70.1672 309.975 73.0637C313.432 75.9707 317.229 79.3049 320.378 83.5768C321.948 85.7128 323.231 88.005 324.134 90.3598C325.026 92.7145 325.519 95.1214 325.744 97.424C326.165 102.04 325.601 106.187 324.944 109.573C324.267 112.97 323.487 115.658 322.933 117.502C322.656 118.429 322.42 119.138 322.256 119.617C322.092 120.096 321.989 120.346 321.958 120.336C321.897 120.315 322.153 119.284 322.615 117.408C323.077 115.543 323.754 112.834 324.349 109.458C324.924 106.082 325.416 101.988 324.954 97.497C324.718 95.2568 324.226 92.9333 323.354 90.6619C322.471 88.3905 321.23 86.1712 319.691 84.0978C316.623 79.9196 312.889 76.6063 309.472 73.6785C306.035 70.7611 302.772 68.3542 299.961 66.4267C297.16 64.4991 294.81 63.0508 293.179 62.061C291.558 61.0711 290.645 60.5398 290.676 60.4772Z" fill="#455A64"/>
<path d="M312.975 108.597C312.922 108.628 312.376 108.027 311.41 106.898C310.36 105.634 309.016 104.017 307.399 102.08C304.05 97.9872 299.461 92.2989 294.442 85.9786C289.423 79.6583 284.908 73.9078 281.684 69.7219C280.162 67.7222 278.891 66.0437 277.894 64.7278C277.012 63.5363 276.55 62.8628 276.592 62.8214C276.634 62.7799 277.19 63.3912 278.156 64.5102C279.206 65.7743 280.55 67.3907 282.167 69.3282C285.517 73.4209 290.105 79.1091 295.135 85.4398C300.154 91.7601 304.669 97.5106 307.903 101.696C309.426 103.696 310.696 105.375 311.694 106.68C312.555 107.892 313.017 108.566 312.975 108.597Z" fill="#E0E0E0"/>
<path d="M280.116 118.818C280.181 119.04 281.255 118.486 282.544 118.929C283.855 119.324 284.671 120.48 284.789 120.322C284.929 120.227 284.177 118.596 282.662 118.122C281.158 117.631 280.02 118.644 280.116 118.818Z" fill="#DADADA"/>
<path d="M294.197 104.001C294.175 104.157 294.964 104.364 295.91 104.654C296.855 104.934 297.634 105.173 297.712 105.038C297.79 104.914 297.089 104.437 296.077 104.147C295.076 103.846 294.208 103.856 294.197 104.001Z" fill="#DADADA"/>
<path d="M255.463 101.61C255.421 101.757 255.91 102.102 256.559 102.396C257.207 102.689 257.764 102.814 257.806 102.668C257.848 102.521 257.359 102.176 256.71 101.883C256.061 101.6 255.505 101.474 255.463 101.61Z" fill="#DADADA"/>
<path d="M255.462 103.833C255.506 103.988 256.063 103.877 256.708 103.588C257.353 103.299 257.849 102.955 257.806 102.8C257.762 102.644 257.204 102.755 256.56 103.044C255.915 103.333 255.427 103.688 255.462 103.833Z" fill="#DADADA"/>
<path d="M43 443.722C43 444.038 149.95 444.309 281.856 444.309C413.803 444.309 520.743 444.038 520.743 443.722C520.743 443.406 413.814 443.135 281.856 443.135C149.96 443.135 43 443.384 43 443.722Z" fill="#263238"/>
<ellipse cx="88.9519" cy="77.3565" rx="10.4245" ry="35.655" transform="rotate(18.6924 88.9519 77.3565)" fill="#9D9D9D"/>
<rect x="86.9404" y="66.291" width="30.378" height="20.3857" rx="10.1928" transform="rotate(18.3984 86.9404 66.291)" fill="white"/>
<path fill-rule="evenodd" clip-rule="evenodd" d="M106.111 41.9191C119.655 53.2354 146.745 75.8687 158.52 84.6447C168.703 92.2347 172.727 94.3896 176.208 96.2541C176.627 96.4785 177.039 96.6986 177.452 96.9236C178.97 97.7503 180.709 98.8943 182.449 100.039C184.192 101.185 185.935 102.331 187.456 103.159L183.296 120.207L173.407 119.551L148.239 117.277C135.306 116.569 114.715 115.909 98.7945 115.399C88.9615 115.084 80.9103 114.826 77.5456 114.649C69.5879 114.23 70.4286 92.2497 75.6654 75.3954C82.6084 53.0497 98.3712 35.4527 106.111 41.9191ZM77.5255 111.131C82.9792 112.977 92.5162 99.3511 98.8272 80.698C105.138 62.045 105.833 45.4279 100.379 43.5828C94.9259 41.7376 85.3888 55.3631 79.0779 74.0162C72.7669 92.6692 72.0719 109.286 77.5255 111.131Z" fill="#E1E1E1"/>
<path d="M158.52 84.6447L158.818 84.2438L158.52 84.6447ZM106.111 41.9191L105.79 42.3028L105.79 42.3028L106.111 41.9191ZM176.208 96.2541L176.445 95.8133L176.208 96.2541ZM177.452 96.9236L177.691 96.4845L177.452 96.9236ZM182.449 100.039L182.724 99.621L182.449 100.039ZM187.456 103.159L187.942 103.278L188.033 102.904L187.695 102.72L187.456 103.159ZM183.296 120.207L183.263 120.706L183.682 120.733L183.782 120.325L183.296 120.207ZM173.407 119.551L173.362 120.05L173.374 120.05L173.407 119.551ZM148.239 117.277L148.284 116.779L148.276 116.778L148.267 116.778L148.239 117.277ZM98.7945 115.399L98.7785 115.899L98.7945 115.399ZM77.5456 114.649L77.5194 115.148L77.5456 114.649ZM75.6654 75.3954L75.1879 75.247L75.6654 75.3954ZM98.8272 80.698L98.3536 80.5378L98.8272 80.698ZM77.5255 111.131L77.3653 111.605L77.3653 111.605L77.5255 111.131ZM100.379 43.5828L100.54 43.1091L100.379 43.5828ZM79.0779 74.0162L78.6042 73.8559L79.0779 74.0162ZM158.818 84.2438C147.058 75.4784 119.982 52.8573 106.431 41.5354L105.79 42.3028C119.328 53.6135 146.432 76.259 158.221 85.0456L158.818 84.2438ZM176.445 95.8133C172.984 93.9602 168.982 91.8185 158.818 84.2438L158.221 85.0456C168.425 92.6508 172.47 94.819 175.972 96.6948L176.445 95.8133ZM177.691 96.4845C177.276 96.2585 176.863 96.0375 176.445 95.8133L175.972 96.6948C176.392 96.9194 176.801 97.1387 177.212 97.3627L177.691 96.4845ZM182.724 99.621C180.989 98.4801 179.231 97.3232 177.691 96.4845L177.212 97.3627C178.709 98.1774 180.429 99.3086 182.174 100.456L182.724 99.621ZM187.695 102.72C186.196 101.904 184.472 100.77 182.724 99.621L182.174 100.456C183.912 101.599 185.673 102.758 187.217 103.599L187.695 102.72ZM183.782 120.325L187.942 103.278L186.971 103.041L182.81 120.088L183.782 120.325ZM173.374 120.05L183.263 120.706L183.329 119.708L173.44 119.053L173.374 120.05ZM148.194 117.775L173.362 120.049L173.452 119.053L148.284 116.779L148.194 117.775ZM98.7785 115.899C114.701 116.409 135.285 117.069 148.212 117.776L148.267 116.778C135.326 116.069 114.728 115.409 98.8105 114.899L98.7785 115.899ZM77.5194 115.148C80.8907 115.325 88.9494 115.584 98.7785 115.899L98.8105 114.899C88.9737 114.584 80.9299 114.326 77.5719 114.149L77.5194 115.148ZM75.1879 75.247C72.5563 83.7167 71.0267 93.4786 71.1577 101.194C71.2231 105.046 71.7028 108.43 72.6944 110.896C73.6846 113.357 75.2461 115.028 77.5194 115.148L77.5719 114.149C75.8663 114.06 74.5488 112.826 73.6222 110.522C72.6969 108.222 72.2221 104.979 72.1575 101.177C72.0286 93.5839 73.5377 83.9284 76.1429 75.5438L75.1879 75.247ZM106.431 41.5354C104.312 39.765 101.665 39.6805 98.8763 40.8163C96.1038 41.9457 93.1313 44.2978 90.2186 47.5173C84.3867 53.9633 78.6776 64.0159 75.1879 75.247L76.1429 75.5438C79.5963 64.4293 85.2401 54.5105 90.9602 48.1882C93.8234 45.0234 96.6768 42.7921 99.2535 41.7424C101.815 40.6992 104.039 40.8401 105.79 42.3028L106.431 41.5354ZM98.3536 80.5378C95.2089 89.8324 91.2659 97.8562 87.4452 103.315C85.5329 106.047 83.668 108.112 81.9687 109.377C80.2546 110.652 78.8139 111.039 77.6858 110.658L77.3653 111.605C78.964 112.146 80.7606 111.522 82.5657 110.179C84.3857 108.825 86.322 106.664 88.2645 103.888C92.1535 98.3321 96.1345 90.2167 99.3008 80.8583L98.3536 80.5378ZM100.219 44.0564C101.347 44.4381 102.257 45.6206 102.844 47.6748C103.427 49.7113 103.655 52.4846 103.515 55.8165C103.237 62.4736 101.498 71.2432 98.3536 80.5378L99.3008 80.8583C102.467 71.4998 104.231 62.6343 104.515 55.8583C104.656 52.4737 104.43 49.5809 103.806 47.3998C103.187 45.2366 102.138 43.65 100.54 43.1091L100.219 44.0564ZM79.5515 74.1764C82.6961 64.8818 86.6391 56.8579 90.4598 51.3994C92.3721 48.6672 94.237 46.6021 95.9363 45.3376C97.6505 44.0621 99.0911 43.6747 100.219 44.0564L100.54 43.1091C98.9411 42.5682 97.1444 43.1921 95.3393 44.5353C93.5194 45.8896 91.5831 48.0507 89.6405 50.8259C85.7516 56.3821 81.7705 64.4975 78.6042 73.8559L79.5515 74.1764ZM77.6858 110.658C76.5576 110.276 75.6482 109.094 75.0606 107.039C74.4781 105.003 74.2502 102.23 74.3896 98.8977C74.668 92.2406 76.4068 83.471 79.5515 74.1764L78.6042 73.8559C75.438 83.2144 73.6738 92.0798 73.3904 98.8559C73.2489 102.24 73.4753 105.133 74.0992 107.314C74.7179 109.478 75.7666 111.064 77.3653 111.605L77.6858 110.658Z" fill="#9D9D9D"/>
<rect x="157.08" y="113.594" width="10.9458" height="50.8209" rx="2" transform="rotate(12.4571 157.08 113.594)" fill="#9D9D9D"/>
<path d="M159.822 82.289C160.015 81.6829 160.716 81.4079 161.269 81.7219L179.718 92.2012C180.108 92.4227 180.302 92.8768 180.194 93.3121L172.543 124.073C172.42 124.567 171.946 124.889 171.441 124.823L148.521 121.791C147.905 121.709 147.511 121.09 147.699 120.497L159.822 82.289Z" fill="#9D9D9D"/>
<path d="M108.224 44.3312C110.211 52.9444 106.898 94.0228 83.0467 114.562" stroke="#9D9D9D" stroke-linecap="round"/>
<path d="M152.968 130.835C152.968 130.835 149.843 126.117 146.95 128.361C144.046 130.605 144.717 131.947 146.95 136.077C146.95 136.077 141.257 135.302 142.599 141.319C142.599 141.319 136.958 140.208 137.105 145.062C137.105 145.062 132.45 148.91 134.463 151.803C136.466 154.708 144.161 160.275 146.289 159.614C148.407 158.943 148.669 156.05 148.669 156.05C148.669 156.05 151.196 155.158 151.982 153.932C152.758 152.705 151.762 150.807 151.762 150.807C151.762 150.807 153.995 148.878 154.551 148.344C155.106 147.799 154.551 145.01 154.551 145.01L151.542 141.55C151.542 141.55 155.893 143.888 156.899 143.227C157.906 142.557 159.017 142.001 158.126 140.554C157.235 139.107 153.911 135.752 153.911 135.752L152.968 130.835Z" fill="white"/>
<path d="M148.166 156.332C148.218 156.28 147.673 155.588 146.834 154.414C145.996 153.261 144.811 151.562 142.987 150.241C141.194 148.931 139.548 147.851 138.552 146.834C137.535 145.838 137.179 145.01 137.095 145.052C137.042 145.062 137.283 145.985 138.269 147.096C139.223 148.228 140.9 149.392 142.651 150.671C144.413 151.94 145.597 153.533 146.52 154.644C147.453 155.766 148.114 156.385 148.166 156.332Z" fill="#DADADA"/>
<path d="M151.752 151.645C151.867 151.551 149.959 149.108 147.495 146.193C146.258 144.757 145.199 143.373 144.266 142.503C143.354 141.612 142.631 141.255 142.599 141.318C142.557 141.391 143.176 141.842 143.994 142.775C144.822 143.687 145.828 145.103 147.076 146.55C149.54 149.464 151.637 151.75 151.752 151.645Z" fill="#DADADA"/>
<path d="M151.521 141.54C151.636 141.414 150.431 140.271 149.11 138.782C147.757 137.293 147.17 135.784 147.023 135.826C146.866 135.847 147.275 137.587 148.69 139.139C150.064 140.69 151.427 141.634 151.521 141.54Z" fill="#DADADA"/>
<path d="M152.968 130.813C152.957 130.813 152.968 130.928 152.999 131.149C153.041 131.4 153.083 131.715 153.146 132.103C153.293 132.973 153.503 134.189 153.765 135.741L153.775 135.772L153.807 135.803C154.415 136.443 155.107 137.166 155.84 137.984C156.553 138.812 157.424 139.714 158.063 140.794C158.199 141.067 158.294 141.36 158.241 141.643C158.189 141.916 157.99 142.167 157.738 142.377C157.486 142.587 157.182 142.775 156.878 142.975C156.627 143.163 156.312 143.132 155.956 143.079C154.54 142.796 153.094 142.083 151.647 141.329L150.63 140.804L151.374 141.675C152.318 142.765 153.324 143.939 154.373 145.145L154.331 145.071C154.656 146.12 154.813 147.43 154.215 148.405C153.565 149.37 152.486 150.146 151.406 150.827L151.165 150.974L151.322 151.205C151.961 152.106 152.36 153.48 151.353 154.224C150.452 155.01 149.256 155.587 148.082 156.08L148.449 156.321V156.258C148.449 156.258 148.449 156.226 148.449 156.237C148.376 156.31 148.617 156.059 148.271 156.457C147.569 156.048 148.072 156.3 147.915 156.226V156.352L147.894 156.614C147.873 156.793 147.841 156.971 147.799 157.149C147.715 157.506 147.59 157.841 147.432 158.156C147.264 158.47 147.044 158.753 146.782 158.973C146.51 159.193 146.185 159.382 145.891 159.393C145.22 159.414 144.465 159.099 143.763 158.785C143.06 158.46 142.368 158.061 141.697 157.642C140.418 156.835 139.213 155.954 138.08 155.01C136.948 154.067 135.858 153.081 134.977 151.991C134.526 151.446 134.243 150.869 134.254 150.198C134.243 149.548 134.463 148.898 134.767 148.301C135.386 147.105 136.319 146.088 137.284 145.229L137.368 145.155V145.029C137.388 144.379 137.42 143.719 137.714 143.174C137.986 142.618 138.437 142.188 138.982 141.916C140.083 141.371 141.404 141.371 142.557 141.538L142.882 141.591L142.83 141.255C142.777 140.888 142.704 140.532 142.662 140.175C142.672 139.819 142.599 139.462 142.672 139.116C142.714 138.425 142.987 137.785 143.417 137.313C144.308 136.359 145.744 136.17 146.929 136.265L147.306 136.296L147.128 135.971C146.531 134.881 145.954 133.843 145.545 132.816C145.346 132.302 145.21 131.788 145.199 131.295C145.189 130.803 145.356 130.331 145.608 129.932C146.143 129.167 146.877 128.517 147.569 128.129C148.302 127.762 149.099 127.846 149.718 128.087C150.986 128.611 151.731 129.461 152.234 129.974C152.486 130.247 152.653 130.457 152.779 130.603C152.894 130.75 152.957 130.824 152.968 130.813C152.978 130.813 152.926 130.719 152.821 130.561C152.716 130.404 152.559 130.174 152.318 129.89C152.087 129.607 151.773 129.261 151.374 128.905C150.976 128.538 150.462 128.15 149.802 127.878C149.152 127.605 148.271 127.49 147.443 127.878C147.254 127.993 147.055 128.108 146.866 128.234C146.688 128.37 146.51 128.517 146.331 128.664C145.985 128.978 145.618 129.314 145.335 129.754C145.052 130.184 144.853 130.719 144.853 131.285C144.853 131.851 145 132.407 145.199 132.941C145.618 134.011 146.185 135.059 146.772 136.16L146.971 135.866C146.3 135.793 145.639 135.824 144.958 135.982C144.287 136.139 143.595 136.454 143.081 137.009C142.568 137.554 142.253 138.309 142.201 139.064C142.127 139.441 142.19 139.819 142.19 140.207C142.232 140.584 142.306 140.962 142.368 141.35L142.641 141.066C141.383 140.878 140.02 140.857 138.751 141.465C138.122 141.769 137.577 142.293 137.252 142.943C136.896 143.593 136.864 144.327 136.843 145.04L136.938 144.83C135.91 145.742 134.946 146.77 134.275 148.059C133.95 148.699 133.698 149.422 133.698 150.198C133.698 150.586 133.792 150.974 133.918 151.341C134.097 151.697 134.285 152.033 134.526 152.316C135.459 153.469 136.56 154.465 137.714 155.419C138.867 156.373 140.093 157.275 141.393 158.093C142.085 158.523 142.777 158.931 143.511 159.267C144.256 159.592 145 159.938 145.902 159.927C146.866 159.802 147.485 159.12 147.883 158.407C148.072 158.04 148.208 157.652 148.302 157.264C148.344 157.065 148.386 156.876 148.407 156.677L148.439 156.373L148.449 156.216V156.185V156.174C148.292 156.101 148.795 156.352 148.093 155.933C147.747 156.321 147.988 156.08 147.915 156.153V156.174V156.226V156.3V156.698L148.281 156.541C149.508 156.017 150.703 155.461 151.72 154.57C151.961 154.339 152.203 154.067 152.349 153.731C152.496 153.396 152.517 153.018 152.486 152.683C152.402 151.991 152.119 151.404 151.741 150.859L151.668 151.236C152.79 150.513 153.88 149.758 154.635 148.636C155.002 148.049 155.117 147.357 155.096 146.728C155.086 146.088 154.97 145.48 154.771 144.883L154.761 144.841L154.729 144.809C153.681 143.614 152.664 142.45 151.71 141.36L151.437 141.696C152.936 142.45 154.362 143.153 155.893 143.446C156.26 143.499 156.742 143.53 157.099 143.268C157.392 143.069 157.707 142.88 157.99 142.639C158.273 142.408 158.535 142.083 158.608 141.685C158.671 141.287 158.545 140.92 158.388 140.616C157.675 139.441 156.815 138.603 156.082 137.764C155.327 136.957 154.624 136.233 153.995 135.615L154.027 135.678C153.712 134.137 153.471 132.92 153.293 132.05C153.209 131.673 153.146 131.358 153.083 131.117C153.01 130.918 152.978 130.813 152.968 130.813Z" fill="#DADADA"/>
<g filter="url(#filter0_d_2303_262)">
<rect width="156.577" height="226.356" rx="8" transform="matrix(-1 0 0 1 548.577 0.421387)" fill="white"/>
<rect x="-0.5" y="0.5" width="155.577" height="225.356" rx="7.5" transform="matrix(-1 0 0 1 547.577 0.421387)" stroke="#6914E7"/>
</g>
<path opacity="0.22" d="M414.269 119.556H532.572V129.768H414.269V119.556Z" fill="#6914E7"/>
<path opacity="0.22" d="M430.97 143.383H513.782V153.595H430.97V143.383Z" fill="#6914E7"/>
<path opacity="0.22" d="M414.269 168.912H532.572V179.124H414.269V168.912Z" fill="#6914E7"/>
<defs>
<filter id="filter0_d_2303_262" x="388" y="0.421387" width="164.577" height="234.356" filterUnits="userSpaceOnUse" color-interpolation-filters="sRGB">
<feFlood flood-opacity="0" result="BackgroundImageFix"/>
<feColorMatrix in="SourceAlpha" type="matrix" values="0 0 0 0 0 0 0 0 0 0 0 0 0 0 0 0 0 0 127 0" result="hardAlpha"/>
<feOffset dy="4"/>
<feGaussianBlur stdDeviation="2"/>
<feComposite in2="hardAlpha" operator="out"/>
<feColorMatrix type="matrix" values="0 0 0 0 0 0 0 0 0 0 0 0 0 0 0 0 0 0 0.05 0"/>
<feBlend mode="normal" in2="BackgroundImageFix" result="effect1_dropShadow_2303_262"/>
<feBlend mode="normal" in="SourceGraphic" in2="effect1_dropShadow_2303_262" result="shape"/>
</filter>
<linearGradient id="paint0_linear_2303_262" x1="300.297" y1="78.4214" x2="300.297" y2="483.037" gradientUnits="userSpaceOnUse">
<stop stop-color="#BCBFFD"/>
<stop offset="1" stop-color="#6A10E7"/>
</linearGradient>
</defs>
</svg>
