<svg width="25" height="24" viewBox="0 0 25 24" fill="none" xmlns="http://www.w3.org/2000/svg">
<path fill-rule="evenodd" clip-rule="evenodd" d="M21.0875 0H10.5438C8.88689 0 7.53126 1.34299 7.53126 2.98443V4.47664C7.53126 5.29736 8.20907 5.96886 9.03751 5.96886C9.86595 5.96886 10.5438 5.29736 10.5438 4.47664V2.98443H21.0875V19.3988H19.5813C18.7528 19.3988 18.075 20.0703 18.075 20.891C18.075 21.7117 18.7528 22.3832 19.5813 22.3832H21.0875C22.7444 22.3832 24.1 21.0402 24.1 19.3988V2.98443C24.1 1.34299 22.7444 0 21.0875 0ZM17.6231 7.38646C17.7586 7.43122 17.9244 7.46107 18.075 7.46107C18.9035 7.46107 19.5813 6.78958 19.5813 5.96886C19.5813 5.14814 18.9035 4.47664 18.075 4.47664C17.2466 4.47664 16.5688 5.14814 16.5688 5.96886C16.5688 6.11808 16.5989 6.28223 16.6441 6.41653C16.7947 6.87911 17.1561 7.23724 17.6231 7.38646ZM15.0625 19.3988C16.7194 19.3988 18.075 18.0558 18.075 16.4144V10.4455C18.075 8.80407 16.7194 7.46107 15.0625 7.46107H3.0125C1.35563 7.46107 0 8.80407 0 10.4455V16.4144C0 18.0558 1.35563 19.3988 3.0125 19.3988H4.51876V20.891H2.93712C2.1388 20.891 1.50625 21.5327 1.50625 22.3086V22.4429C1.50625 23.2338 2.15387 23.8605 2.93712 23.8605H15.1227C15.9211 23.8605 16.5537 23.2189 16.5537 22.4429V22.3086C16.5537 21.5177 15.906 20.891 15.1227 20.891H13.5412V19.3988H15.0625ZM10.5438 20.891H7.53126V19.3988H10.5438V20.891ZM3.0125 16.4144V10.4455H15.0625V16.4144H3.0125Z" fill="white"/>
</svg>
