<svg width="24" height="24" viewBox="0 0 24 24" fill="none" xmlns="http://www.w3.org/2000/svg">
<path fill-rule="evenodd" clip-rule="evenodd" d="M18 0.0372925H6C4.35 0.0372925 3 1.37471 3 3.00933V20.8416C3 22.4762 4.35 23.8136 6 23.8136H18C19.65 23.8136 21 22.4762 21 20.8416V3.00933C21 1.37471 19.665 0.0372925 18 0.0372925ZM18 20.8416H6V3.00933H18V20.8416ZM12 19.3556C12.825 19.3556 13.5 18.6869 13.5 17.8695C13.5 17.0522 12.825 16.3835 12 16.3835C11.175 16.3835 10.5 17.0522 10.5 17.8695C10.5 18.6869 11.175 19.3556 12 19.3556Z" fill="white"/>
</svg>
