<svg width="139" height="32" viewBox="0 0 139 32" fill="none" xmlns="http://www.w3.org/2000/svg">
<g clip-path="url(#clip0_3_224)">
<path d="M36.1001 13.4526C36.1001 12.3018 36.4871 11.3368 37.2671 10.5576C38.2674 9.49669 39.5416 8.96924 41.1016 8.96924C42.5008 8.96924 43.6738 9.2989 44.6324 9.95822C45.3946 10.5037 45.7756 11.0851 45.7756 11.7084C45.7756 12.152 45.6149 12.5595 45.2993 12.9311C44.9837 13.3028 44.5848 13.4826 44.1204 13.4826C43.8703 13.4586 43.3463 13.2728 42.5425 12.9371C41.8876 12.6614 41.3457 12.5236 40.9111 12.5236C40.3037 12.5655 39.9882 12.7873 39.9703 13.1769C39.9703 13.4286 40.0894 13.6444 40.3276 13.8302C40.5657 14.016 40.8634 14.1839 41.2147 14.3217C41.566 14.4656 41.8459 14.5735 42.0483 14.6574C43.5071 15.2088 44.5252 15.7842 45.0968 16.3776C45.7518 17.0968 46.0793 17.9 46.0793 18.7811C46.0793 19.4284 45.9483 20.0518 45.6863 20.6512C45.4243 21.2506 45.0552 21.754 44.5788 22.1736C43.6619 22.9768 42.4353 23.3724 40.9051 23.3724C40.2621 23.3724 39.5297 23.2705 38.714 23.0727C37.8983 22.8749 37.1957 22.5512 36.5943 22.1017C35.9929 21.6581 35.6952 21.0947 35.6952 20.4174C35.6952 19.9979 35.8619 19.6023 36.1954 19.2306C36.5288 18.859 36.9039 18.6672 37.3267 18.6672C37.4934 18.6672 37.672 18.6912 37.8625 18.7332C38.0531 18.7751 38.2198 18.8291 38.3686 18.889C38.5175 18.9489 38.6842 19.0209 38.8867 19.1168C39.0831 19.2127 39.2618 19.2966 39.4225 19.3745C40.0656 19.6682 40.5955 19.818 41.0004 19.818C41.2862 19.818 41.5541 19.7401 41.8101 19.5783C42.0662 19.4165 42.1972 19.2067 42.1972 18.9369C42.1972 18.6073 42.0721 18.3735 41.8221 18.2297C41.572 18.0858 41.179 17.912 40.6491 17.7082L39.5595 17.3066C38.452 16.8691 37.6006 16.3656 37.0051 15.7962C36.3978 15.2328 36.1001 14.4476 36.1001 13.4526Z" fill="#6A10E7"/>
<path d="M45.8888 16.1918C45.8888 15.2388 46.0376 14.3217 46.3353 13.4466C46.633 12.5715 47.0796 11.8043 47.681 11.157C48.3062 10.4737 49.0504 9.93424 49.9078 9.55064C50.7652 9.16104 51.6524 8.96924 52.5753 8.96924C53.4803 8.96924 54.3615 9.16104 55.2368 9.55064C56.1121 9.94024 56.8504 10.4737 57.4577 11.157C58.0591 11.8163 58.5056 12.5775 58.7914 13.4406C59.0772 14.3037 59.2201 15.2208 59.2201 16.1918C59.2201 17.1328 59.0772 18.0379 58.7914 18.895C58.5056 19.7521 58.0591 20.5193 57.4577 21.1846C56.8504 21.8679 56.1121 22.4074 55.2487 22.791C54.3854 23.1806 53.5041 23.3724 52.6051 23.3724C51.6762 23.3724 50.7771 23.1806 49.9138 22.791C49.0445 22.4014 48.3062 21.8679 47.6869 21.1846C46.4901 19.9139 45.8888 18.2477 45.8888 16.1918ZM49.8304 16.1918C49.8304 16.7372 49.9316 17.2707 50.1341 17.8101C50.3365 18.3436 50.6402 18.7811 51.051 19.1288C51.4559 19.4704 51.9322 19.6442 52.486 19.6442C53.0695 19.6442 53.5756 19.4764 53.9983 19.1347C54.4211 18.7931 54.7486 18.3615 54.9748 17.8281C55.2011 17.2946 55.3142 16.7492 55.3142 16.1978C55.3142 15.6344 55.2011 15.0889 54.9808 14.5495C54.7605 14.01 54.433 13.5725 54.0043 13.2368C53.5756 12.9012 53.0695 12.7274 52.486 12.7274C51.6524 12.7274 51.0034 13.087 50.533 13.8003C50.0626 14.5135 49.8304 15.3107 49.8304 16.1918Z" fill="#6A10E7"/>
<path d="M63.525 5.26505V21.0468C63.525 21.6881 63.3464 22.2215 62.9951 22.6471C62.6438 23.0727 62.1496 23.2884 61.5244 23.2884C60.9171 23.2884 60.4288 23.0727 60.0716 22.6411C59.7143 22.2096 59.5357 21.6761 59.5357 21.0468V5.26505C59.5357 4.87545 59.6131 4.50384 59.7679 4.16219C59.9227 3.82054 60.1549 3.55082 60.4586 3.35302C60.7623 3.15523 61.1195 3.05933 61.5244 3.05933C62.1436 3.05933 62.6319 3.26911 62.9891 3.69467C63.3464 4.12023 63.525 4.64769 63.525 5.26505Z" fill="#6A10E7"/>
<path d="M64.4955 5.415C64.4955 4.77367 64.7218 4.22224 65.1802 3.76071C65.6387 3.29919 66.1746 3.06543 66.8057 3.06543C67.2225 3.06543 67.6036 3.17332 67.9608 3.3831C68.3181 3.59289 68.5979 3.88658 68.8063 4.24621C69.0147 4.60584 69.1159 4.99544 69.1159 5.415C69.1159 6.04435 68.8897 6.59579 68.4372 7.0633C67.9847 7.53082 67.4428 7.76458 66.8057 7.76458C66.1805 7.76458 65.6387 7.53082 65.1802 7.0633C64.7218 6.59579 64.4955 6.04435 64.4955 5.415ZM64.7694 21.0529V11.2889C64.7694 10.6596 64.948 10.1321 65.2993 9.70657C65.6506 9.28101 66.1329 9.07123 66.7462 9.07123C67.3654 9.07123 67.8537 9.28101 68.2169 9.70657C68.5801 10.1321 68.7587 10.6596 68.7587 11.2889V21.0529C68.7587 21.6942 68.5801 22.2276 68.2228 22.6532C67.8656 23.0788 67.3714 23.2945 66.7462 23.2945C66.1448 23.2945 65.6625 23.0788 65.3053 22.6472C64.948 22.2157 64.7694 21.6822 64.7694 21.0529Z" fill="#6A10E7"/>
<path d="M78.7796 10.2519V5.26505C78.7796 4.64169 78.9582 4.12023 79.3155 3.69467C79.6727 3.26911 80.1669 3.05933 80.7921 3.05933C81.3994 3.05933 81.8817 3.26911 82.2389 3.68868C82.5902 4.10824 82.7689 4.62971 82.7689 5.26505V20.9988C82.7689 21.6461 82.6021 22.1916 82.2628 22.6351C81.9234 23.0787 81.4411 23.2944 80.8159 23.2944C80.2919 23.2944 79.8811 23.1626 79.5834 22.8988C79.2797 22.6351 79.0356 22.2395 78.8391 21.7061C78.4045 22.3055 77.9043 22.731 77.3327 22.9888C76.7611 23.2465 76.0942 23.3783 75.3202 23.3783C74.433 23.3783 73.5995 23.1506 72.8195 22.6951C72.0395 22.2395 71.3785 21.6282 70.8367 20.8669C69.8483 19.4045 69.3482 17.7202 69.3482 15.8082C69.3482 14.8492 69.5744 13.8722 70.0269 12.8832C70.4795 11.8942 71.0689 11.085 71.7894 10.4497C72.9147 9.46072 74.2008 8.96923 75.6477 8.96923C76.7075 8.96923 77.7495 9.39479 78.7796 10.2519ZM73.3553 15.994C73.3553 16.893 73.6054 17.6902 74.1056 18.3915C74.6057 19.0928 75.2785 19.4404 76.13 19.4404C76.6897 19.4404 77.1719 19.2726 77.5768 18.9309C77.9817 18.5893 78.2913 18.1517 78.4997 17.6183C78.7081 17.0848 78.8093 16.5274 78.8093 15.97C78.8093 15.4246 78.7081 14.8911 78.4997 14.3517C78.2913 13.8182 77.9817 13.3807 77.5768 13.039C77.1719 12.6974 76.6897 12.5236 76.13 12.5236C75.5465 12.5236 75.0463 12.6914 74.6236 13.027C74.2008 13.3627 73.8852 13.7942 73.6769 14.3277C73.4625 14.8551 73.3553 15.4126 73.3553 15.994Z" fill="#6A10E7"/>
<path d="M85.8948 13.4526C85.8948 12.3018 86.2818 11.3368 87.0618 10.5576C88.0621 9.49669 89.3363 8.96924 90.8963 8.96924C92.2955 8.96924 93.4685 9.2989 94.4271 9.95822C95.1892 10.5037 95.5703 11.0851 95.5703 11.7084C95.5703 12.152 95.4095 12.5595 95.094 12.9311C94.7784 13.3028 94.3795 13.4826 93.915 13.4826C93.665 13.4586 93.141 13.2728 92.3372 12.9371C91.6822 12.6614 91.1404 12.5236 90.7057 12.5236C90.0984 12.5655 89.7828 12.7873 89.765 13.1769C89.765 13.4286 89.8841 13.6444 90.1222 13.8302C90.3604 14.016 90.6581 14.1839 91.0094 14.3217C91.3607 14.4656 91.6406 14.5735 91.843 14.6574C93.3018 15.2088 94.3199 15.7842 94.8915 16.3776C95.5465 17.0968 95.874 17.9 95.874 18.7811C95.874 19.4284 95.743 20.0518 95.481 20.6512C95.219 21.2506 94.8498 21.754 94.3735 22.1736C93.4566 22.9768 92.23 23.3724 90.6998 23.3724C90.0567 23.3724 89.3244 23.2705 88.5087 23.0727C87.6929 22.8749 86.9903 22.5512 86.389 22.1017C85.7876 21.6581 85.4839 21.0947 85.4839 20.4174C85.4839 19.9979 85.6507 19.6023 85.9841 19.2306C86.3175 18.859 86.6926 18.6672 87.1154 18.6672C87.2821 18.6672 87.4607 18.6912 87.6513 18.7332C87.8418 18.7751 88.0085 18.8291 88.1574 18.889C88.3062 18.9489 88.4789 19.0209 88.6754 19.1168C88.8719 19.2127 89.0505 19.2966 89.2113 19.3745C89.8543 19.6682 90.3842 19.818 90.7891 19.818C91.0689 19.818 91.3428 19.7401 91.5989 19.5783C91.8549 19.4165 91.9859 19.2067 91.9859 18.9369C91.9859 18.6073 91.8609 18.3735 91.6108 18.2297C91.3607 18.0858 90.9677 17.912 90.4378 17.7082L89.3482 17.3066C88.2407 16.8691 87.3893 16.3656 86.7939 15.7962C86.1925 15.2328 85.8948 14.4476 85.8948 13.4526Z" fill="#6A10E7"/>
<path d="M95.6834 16.1918C95.6834 15.2388 95.8323 14.3217 96.13 13.4466C96.4277 12.5715 96.8743 11.8043 97.4757 11.157C98.1008 10.4737 98.8451 9.93424 99.7025 9.55064C100.56 9.16104 101.447 8.96924 102.37 8.96924C103.269 8.96924 104.156 9.16104 105.031 9.55064C105.907 9.94024 106.645 10.4737 107.252 11.157C107.854 11.8163 108.3 12.5775 108.586 13.4406C108.872 14.3037 109.015 15.2208 109.015 16.1918C109.015 17.1328 108.872 18.0379 108.586 18.895C108.3 19.7521 107.854 20.5193 107.252 21.1846C106.645 21.8679 105.907 22.4074 105.043 22.791C104.18 23.1806 103.299 23.3724 102.4 23.3724C101.471 23.3724 100.572 23.1806 99.7085 22.791C98.8392 22.4014 98.1008 21.8679 97.4816 21.1846C96.2848 19.9139 95.6834 18.2477 95.6834 16.1918ZM99.6251 16.1918C99.6251 16.7372 99.7263 17.2707 99.9288 17.8101C100.131 18.3436 100.435 18.7811 100.846 19.1288C101.251 19.4704 101.733 19.6442 102.281 19.6442C102.864 19.6442 103.37 19.4764 103.793 19.1347C104.216 18.7931 104.543 18.3615 104.77 17.8281C104.996 17.2946 105.109 16.7492 105.109 16.1978C105.109 15.6344 104.996 15.0889 104.775 14.5495C104.555 14.01 104.228 13.5725 103.799 13.2368C103.37 12.9012 102.864 12.7274 102.281 12.7274C101.447 12.7274 100.798 13.087 100.334 13.8003C99.8573 14.5135 99.6251 15.3107 99.6251 16.1918Z" fill="#6A10E7"/>
<path d="M113.314 5.26505V21.0468C113.314 21.6881 113.135 22.2215 112.784 22.6471C112.433 23.0727 111.938 23.2884 111.313 23.2884C110.7 23.2884 110.218 23.0727 109.86 22.6411C109.503 22.2096 109.324 21.6761 109.324 21.0468V5.26505C109.324 4.87545 109.402 4.50384 109.557 4.16219C109.711 3.82054 109.944 3.55082 110.247 3.35302C110.551 3.15523 110.908 3.05933 111.313 3.05933C111.932 3.05933 112.421 3.26911 112.778 3.69467C113.135 4.12023 113.314 4.64769 113.314 5.26505Z" fill="#6A10E7"/>
<path d="M119.768 17.1387L121.912 10.6894C122.06 10.2458 122.299 9.86223 122.626 9.55055C122.954 9.23288 123.323 9.07704 123.728 9.07704C124.329 9.07704 124.859 9.23288 125.317 9.53856C125.776 9.84425 126.008 10.2638 126.008 10.8033C126.008 11.2947 125.883 11.8761 125.621 12.5535L122.197 21.0886C121.923 21.8259 121.614 22.3833 121.269 22.7489C120.923 23.1145 120.417 23.3004 119.756 23.3004C118.696 23.3004 117.928 22.665 117.446 21.3883L113.742 12.0799C113.617 11.7323 113.558 11.3067 113.558 10.7973C113.558 10.2518 113.79 9.83226 114.249 9.52657C114.707 9.22089 115.237 9.07104 115.838 9.07104C116.225 9.07104 116.577 9.22688 116.886 9.53856C117.196 9.85024 117.428 10.2219 117.577 10.6594L119.768 17.1387Z" fill="#6A10E7"/>
<path d="M129.837 17.4984C130.116 18.3016 130.515 18.883 131.027 19.2486C131.587 19.6682 132.212 19.878 132.909 19.878C133.689 19.878 134.439 19.6982 135.166 19.3325L136.309 18.7571C136.493 18.6612 136.749 18.5953 137.065 18.5713C137.351 18.5713 137.625 18.6492 137.893 18.7991C138.16 18.9489 138.375 19.1527 138.536 19.4105C138.696 19.6682 138.774 19.9379 138.774 20.2136C138.774 20.9629 138.238 21.6402 137.166 22.2575C135.868 23.0067 134.374 23.3784 132.683 23.3784C131.575 23.3784 130.533 23.1626 129.551 22.725C128.568 22.2875 127.729 21.6521 127.032 20.813C126.044 19.5903 125.544 18.0199 125.544 16.0959C125.544 14.8132 125.841 13.6264 126.443 12.5296C127.044 11.4327 127.872 10.5696 128.931 9.92825C129.985 9.28691 131.146 8.96924 132.415 8.96924C133.629 8.96924 134.737 9.27492 135.749 9.8803C136.761 10.4857 137.553 11.3068 138.131 12.3378C138.708 13.3687 138.994 14.4835 138.994 15.6763C138.994 16.3057 138.863 16.7732 138.595 17.0669C138.327 17.3606 137.893 17.5104 137.279 17.5104H129.837V17.4984ZM135.088 14.7653C134.665 13.093 133.754 12.2538 132.367 12.2538C131.14 12.2538 130.247 13.093 129.7 14.7653H135.088Z" fill="#6A10E7"/>
<path d="M30.5688 12.7154C30.5211 9.36487 28.979 6.78754 25.9841 5.05532C24.1919 4.01839 22.2627 2.95749 19.9227 1.71677C16.8504 0.0984408 13.7363 0.092447 10.6699 1.70478C8.52644 2.83162 6.45439 3.97044 4.51334 5.09728C1.79228 6.67365 0.2442 9.08916 0.0477121 12.0801C-0.0118296 12.9971 7.87702e-05 13.9022 0.0179413 14.7893C0.0238954 15.1549 0.0298496 15.5385 0.0298496 15.9101C0.0298496 16.3117 0.0238954 16.7253 0.0179413 17.1209C7.87702e-05 18.0379 -0.0177837 18.9849 0.0477121 19.944C0.232291 22.8749 1.71488 25.2425 4.32876 26.7949C6.42462 28.0416 8.63957 29.2583 10.9081 30.4151C12.3192 31.1344 13.784 31.5 15.2666 31.5C16.8087 31.5 18.3449 31.1044 19.8334 30.3312C21.8876 29.2583 23.9596 28.1195 25.996 26.9387C28.979 25.2065 30.5211 22.6292 30.5628 19.2667C30.5985 17.031 30.5985 14.8252 30.5688 12.7154ZM25.347 19.3446C25.3112 20.7831 24.6801 21.844 23.4119 22.5872C21.5601 23.6661 19.5238 24.7929 17.1898 26.0157C15.9156 26.687 14.6711 26.687 13.397 26.0217C11.1284 24.8409 9.09209 23.7201 7.1808 22.5992C5.8828 21.838 5.25165 20.7531 5.2457 19.2906C5.2457 18.5354 5.2457 17.7742 5.2457 17.019V14.6274C5.2457 13.9861 5.2457 13.3388 5.2457 12.6974C5.25165 11.2469 5.8947 10.168 7.20462 9.39484C9.39575 8.10617 11.6286 6.91341 13.3255 6.02033C13.9805 5.67269 14.6295 5.50486 15.2725 5.50486C15.9156 5.50486 16.5586 5.67868 17.2136 6.02033C19.5536 7.25505 21.5899 8.3759 23.4357 9.45478C24.6741 10.174 25.2934 11.211 25.3351 12.6135C25.4006 14.6814 25.4006 16.8871 25.347 19.3446Z" fill="#6A10E7"/>
<path d="M22.3581 10.7855C21.9175 9.78456 21.0779 9.21515 19.9466 9.19117C17.8567 9.14921 15.7668 9.15521 13.6769 9.17918C10.414 9.22114 8.02045 11.6307 8.0145 14.7414C8.0145 15.8263 8.0145 16.102 8.0145 17.1869C8.0145 17.1869 13.2542 17.1929 13.2542 17.1989C13.2542 17.103 13.2542 17.0251 13.2542 16.9412C13.2542 16.2459 13.2542 15.5506 13.2542 14.8553C13.2542 14.3878 13.3852 14.2619 13.8674 14.2619C15.8621 14.2619 17.8567 14.2619 19.8514 14.2619C20.6373 14.2619 21.3161 14.0042 21.8401 13.4468C22.5784 12.6736 22.7868 11.7625 22.3581 10.7855Z" fill="#6A10E7"/>
<path d="M22.5782 15.2869C22.5782 15.2869 17.3385 15.2809 17.3385 15.2749C17.3385 15.3708 17.3385 15.4487 17.3385 15.5326C17.3385 16.2279 17.3385 16.9232 17.3385 17.6185C17.3385 18.086 17.2075 18.2119 16.7252 18.2119C14.7306 18.2119 12.7359 18.2119 10.7413 18.2119C9.95535 18.2119 9.27657 18.4696 8.75261 19.027C8.01429 19.8062 7.8059 20.7173 8.2346 21.6943C8.6752 22.6952 9.51474 23.2647 10.646 23.2886C12.7359 23.3306 14.8259 23.3246 16.9158 23.3006C20.1787 23.2587 22.5722 20.8491 22.5782 17.7384C22.5782 16.6475 22.5782 16.3778 22.5782 15.2869Z" fill="#6A10E7"/>
</g>
<defs>
<clipPath id="clip0_3_224">
<rect width="139" height="31" fill="white" transform="translate(0 0.5)"/>
</clipPath>
</defs>
</svg>
