<svg width="139" height="31" viewBox="0 0 139 31" fill="none" xmlns="http://www.w3.org/2000/svg">
<g clip-path="url(#clip0_3_671)">
<path d="M36.1001 12.9526C36.1001 11.8018 36.4872 10.8368 37.2672 10.0576C38.2675 8.99669 39.5416 8.46924 41.1016 8.46924C42.5009 8.46924 43.6738 8.7989 44.6325 9.45822C45.3946 10.0037 45.7757 10.5851 45.7757 11.2084C45.7757 11.652 45.6149 12.0595 45.2993 12.4311C44.9838 12.8028 44.5848 12.9826 44.1204 12.9826C43.8703 12.9586 43.3464 12.7728 42.5425 12.4371C41.8876 12.1614 41.3458 12.0236 40.9111 12.0236C40.3038 12.0655 39.9882 12.2873 39.9703 12.6769C39.9703 12.9286 40.0894 13.1444 40.3276 13.3302C40.5658 13.516 40.8635 13.6839 41.2148 13.8217C41.5661 13.9656 41.8459 14.0735 42.0483 14.1574C43.5071 14.7088 44.5253 15.2842 45.0969 15.8776C45.7518 16.5968 46.0793 17.4 46.0793 18.2811C46.0793 18.9284 45.9483 19.5518 45.6863 20.1512C45.4244 20.7506 45.0552 21.254 44.5789 21.6736C43.6619 22.4768 42.4354 22.8724 40.9051 22.8724C40.2621 22.8724 39.5297 22.7705 38.714 22.5727C37.8983 22.3749 37.1957 22.0512 36.5943 21.6017C35.993 21.1581 35.6953 20.5947 35.6953 19.9174C35.6953 19.4979 35.862 19.1023 36.1954 18.7306C36.5288 18.359 36.9039 18.1672 37.3267 18.1672C37.4934 18.1672 37.672 18.1912 37.8626 18.2332C38.0531 18.2751 38.2198 18.3291 38.3687 18.389C38.5175 18.4489 38.6842 18.5209 38.8867 18.6168C39.0832 18.7127 39.2618 18.7966 39.4226 18.8745C40.0656 19.1682 40.5955 19.318 41.0004 19.318C41.2862 19.318 41.5542 19.2401 41.8102 19.0783C42.0662 18.9165 42.1972 18.7067 42.1972 18.4369C42.1972 18.1073 42.0722 17.8735 41.8221 17.7297C41.572 17.5858 41.179 17.412 40.6491 17.2082L39.5595 16.8066C38.452 16.3691 37.6006 15.8656 37.0052 15.2962C36.3978 14.7328 36.1001 13.9476 36.1001 12.9526Z" fill="white"/>
<path d="M45.8888 15.6918C45.8888 14.7388 46.0376 13.8217 46.3354 12.9466C46.6331 12.0715 47.0796 11.3043 47.681 10.657C48.3062 9.97369 49.0505 9.43424 49.9079 9.05064C50.7653 8.66104 51.6524 8.46924 52.5753 8.46924C53.4804 8.46924 54.3616 8.66104 55.2368 9.05064C56.1121 9.44024 56.8504 9.97369 57.4577 10.657C58.0591 11.3163 58.5057 12.0775 58.7915 12.9406C59.0773 13.8037 59.2202 14.7208 59.2202 15.6918C59.2202 16.6328 59.0773 17.5379 58.7915 18.395C58.5057 19.2521 58.0591 20.0193 57.4577 20.6846C56.8504 21.3679 56.1121 21.9074 55.2487 22.291C54.3854 22.6806 53.5042 22.8724 52.6051 22.8724C51.6762 22.8724 50.7772 22.6806 49.9138 22.291C49.0445 21.9014 48.3062 21.3679 47.687 20.6846C46.4902 19.4139 45.8888 17.7477 45.8888 15.6918ZM49.8305 15.6918C49.8305 16.2372 49.9317 16.7707 50.1341 17.3101C50.3366 17.8436 50.6402 18.2811 51.0511 18.6288C51.4559 18.9704 51.9323 19.1442 52.486 19.1442C53.0695 19.1442 53.5756 18.9764 53.9984 18.6347C54.4211 18.2931 54.7486 17.8615 54.9749 17.3281C55.2011 16.7946 55.3142 16.2492 55.3142 15.6978C55.3142 15.1344 55.2011 14.5889 54.9808 14.0495C54.7605 13.51 54.433 13.0725 54.0043 12.7368C53.5756 12.4012 53.0695 12.2274 52.486 12.2274C51.6524 12.2274 51.0034 12.587 50.533 13.3003C50.0627 14.0135 49.8305 14.8107 49.8305 15.6918Z" fill="white"/>
<path d="M63.525 4.76505V20.5468C63.525 21.1881 63.3464 21.7215 62.9951 22.1471C62.6438 22.5727 62.1496 22.7884 61.5244 22.7884C60.9171 22.7884 60.4288 22.5727 60.0716 22.1411C59.7143 21.7096 59.5357 21.1761 59.5357 20.5468V4.76505C59.5357 4.37545 59.6131 4.00384 59.7679 3.66219C59.9227 3.32054 60.1549 3.05082 60.4586 2.85302C60.7623 2.65523 61.1195 2.55933 61.5244 2.55933C62.1436 2.55933 62.6319 2.76911 62.9891 3.19467C63.3464 3.62023 63.525 4.14769 63.525 4.76505Z" fill="white"/>
<path d="M64.4955 4.915C64.4955 4.27367 64.7218 3.72224 65.1803 3.26071C65.6387 2.79919 66.1746 2.56543 66.8058 2.56543C67.2226 2.56543 67.6036 2.67332 67.9609 2.8831C68.3181 3.09289 68.598 3.38658 68.8064 3.74621C69.0148 4.10584 69.116 4.49544 69.116 4.915C69.116 5.54435 68.8897 6.09579 68.4372 6.5633C67.9847 7.03082 67.4429 7.26458 66.8058 7.26458C66.1806 7.26458 65.6387 7.03082 65.1803 6.5633C64.7218 6.09579 64.4955 5.54435 64.4955 4.915ZM64.7694 20.5529V10.7889C64.7694 10.1596 64.9481 9.63213 65.2994 9.20657C65.6507 8.78101 66.1329 8.57123 66.7462 8.57123C67.3655 8.57123 67.8537 8.78101 68.2169 9.20657C68.5801 9.63213 68.7587 10.1596 68.7587 10.7889V20.5529C68.7587 21.1942 68.5801 21.7276 68.2229 22.1532C67.8656 22.5788 67.3714 22.7945 66.7462 22.7945C66.1448 22.7945 65.6626 22.5788 65.3053 22.1472C64.9481 21.7157 64.7694 21.1822 64.7694 20.5529Z" fill="white"/>
<path d="M78.7796 9.7519V4.76505C78.7796 4.14169 78.9582 3.62023 79.3155 3.19467C79.6727 2.76911 80.1669 2.55933 80.7921 2.55933C81.3994 2.55933 81.8817 2.76911 82.239 3.18868C82.5903 3.60824 82.7689 4.12971 82.7689 4.76505V20.4988C82.7689 21.1461 82.6022 21.6916 82.2628 22.1351C81.9234 22.5787 81.4411 22.7944 80.8159 22.7944C80.292 22.7944 79.8811 22.6626 79.5834 22.3988C79.2798 22.1351 79.0356 21.7395 78.8391 21.2061C78.4045 21.8055 77.9043 22.231 77.3327 22.4888C76.7611 22.7465 76.0943 22.8783 75.3202 22.8783C74.4331 22.8783 73.5995 22.6506 72.8195 22.1951C72.0395 21.7395 71.3786 21.1282 70.8367 20.3669C69.8484 18.9045 69.3482 17.2202 69.3482 15.3082C69.3482 14.3492 69.5745 13.3722 70.027 12.3832C70.4795 11.3942 71.069 10.585 71.7894 9.9497C72.9148 8.96072 74.2009 8.46923 75.6477 8.46923C76.7076 8.46923 77.7495 8.89479 78.7796 9.7519ZM73.3554 15.494C73.3554 16.393 73.6054 17.1902 74.1056 17.8915C74.6057 18.5928 75.2786 18.9404 76.13 18.9404C76.6897 18.9404 77.172 18.7726 77.5769 18.4309C77.9817 18.0893 78.2914 17.6517 78.4998 17.1183C78.7082 16.5848 78.8094 16.0274 78.8094 15.47C78.8094 14.9246 78.7082 14.3911 78.4998 13.8517C78.2914 13.3182 77.9817 12.8807 77.5769 12.539C77.172 12.1974 76.6897 12.0236 76.13 12.0236C75.5465 12.0236 75.0463 12.1914 74.6236 12.527C74.2009 12.8627 73.8853 13.2942 73.6769 13.8277C73.4625 14.3551 73.3554 14.9126 73.3554 15.494Z" fill="white"/>
<path d="M85.8948 12.9526C85.8948 11.8018 86.2819 10.8368 87.0619 10.0576C88.0622 8.99669 89.3364 8.46924 90.8963 8.46924C92.2956 8.46924 93.4685 8.7989 94.4272 9.45822C95.1893 10.0037 95.5704 10.5851 95.5704 11.2084C95.5704 11.652 95.4096 12.0595 95.094 12.4311C94.7785 12.8028 94.3795 12.9826 93.9151 12.9826C93.665 12.9586 93.1411 12.7728 92.3373 12.4371C91.6823 12.1614 91.1405 12.0236 90.7058 12.0236C90.0985 12.0655 89.7829 12.2873 89.765 12.6769C89.765 12.9286 89.8841 13.1444 90.1223 13.3302C90.3605 13.516 90.6582 13.6839 91.0095 13.8217C91.3608 13.9656 91.6406 14.0735 91.8431 14.1574C93.3018 14.7088 94.32 15.2842 94.8916 15.8776C95.5465 16.5968 95.874 17.4 95.874 18.2811C95.874 18.9284 95.743 19.5518 95.481 20.1512C95.2191 20.7506 94.8499 21.254 94.3736 21.6736C93.4566 22.4768 92.2301 22.8724 90.6999 22.8724C90.0568 22.8724 89.3244 22.7705 88.5087 22.5727C87.693 22.3749 86.9904 22.0512 86.389 21.6017C85.7877 21.1581 85.484 20.5947 85.484 19.9174C85.484 19.4979 85.6507 19.1023 85.9842 18.7306C86.3176 18.359 86.6927 18.1672 87.1154 18.1672C87.2822 18.1672 87.4608 18.1912 87.6513 18.2332C87.8419 18.2751 88.0086 18.3291 88.1574 18.389C88.3063 18.4489 88.4789 18.5209 88.6754 18.6168C88.8719 18.7127 89.0506 18.7966 89.2113 18.8745C89.8544 19.1682 90.3843 19.318 90.7892 19.318C91.069 19.318 91.3429 19.2401 91.5989 19.0783C91.855 18.9165 91.986 18.7067 91.986 18.4369C91.986 18.1073 91.8609 17.8735 91.6108 17.7297C91.3608 17.5858 90.9678 17.412 90.4379 17.2082L89.3483 16.8066C88.2408 16.3691 87.3893 15.8656 86.7939 15.2962C86.1926 14.7328 85.8948 13.9476 85.8948 12.9526Z" fill="white"/>
<path d="M95.6835 15.6918C95.6835 14.7388 95.8323 13.8217 96.13 12.9466C96.4277 12.0715 96.8743 11.3043 97.4757 10.657C98.1009 9.97369 98.8451 9.43424 99.7025 9.05064C100.56 8.66104 101.447 8.46924 102.37 8.46924C103.269 8.46924 104.156 8.66104 105.032 9.05064C105.907 9.44024 106.645 9.97369 107.252 10.657C107.854 11.3163 108.3 12.0775 108.586 12.9406C108.872 13.8037 109.015 14.7208 109.015 15.6918C109.015 16.6328 108.872 17.5379 108.586 18.395C108.3 19.2521 107.854 20.0193 107.252 20.6846C106.645 21.3679 105.907 21.9074 105.043 22.291C104.18 22.6806 103.299 22.8724 102.4 22.8724C101.471 22.8724 100.572 22.6806 99.7085 22.291C98.8392 21.9014 98.1009 21.3679 97.4816 20.6846C96.2848 19.4139 95.6835 17.7477 95.6835 15.6918ZM99.6251 15.6918C99.6251 16.2372 99.7264 16.7707 99.9288 17.3101C100.131 17.8436 100.435 18.2811 100.846 18.6288C101.251 18.9704 101.733 19.1442 102.281 19.1442C102.864 19.1442 103.37 18.9764 103.793 18.6347C104.216 18.2931 104.543 17.8615 104.77 17.3281C104.996 16.7946 105.109 16.2492 105.109 15.6978C105.109 15.1344 104.996 14.5889 104.775 14.0495C104.555 13.51 104.228 13.0725 103.799 12.7368C103.37 12.4012 102.864 12.2274 102.281 12.2274C101.447 12.2274 100.798 12.587 100.334 13.3003C99.8573 14.0135 99.6251 14.8107 99.6251 15.6918Z" fill="white"/>
<path d="M113.314 4.76505V20.5468C113.314 21.1881 113.135 21.7215 112.784 22.1471C112.433 22.5727 111.938 22.7884 111.313 22.7884C110.7 22.7884 110.218 22.5727 109.86 22.1411C109.503 21.7096 109.324 21.1761 109.324 20.5468V4.76505C109.324 4.37545 109.402 4.00384 109.557 3.66219C109.711 3.32054 109.944 3.05082 110.247 2.85302C110.551 2.65523 110.908 2.55933 111.313 2.55933C111.932 2.55933 112.421 2.76911 112.778 3.19467C113.135 3.62023 113.314 4.14769 113.314 4.76505Z" fill="white"/>
<path d="M119.768 16.6387L121.912 10.1894C122.06 9.74583 122.299 9.36223 122.626 9.05055C122.954 8.73288 123.323 8.57704 123.728 8.57704C124.329 8.57704 124.859 8.73288 125.317 9.03856C125.776 9.34425 126.008 9.76381 126.008 10.3033C126.008 10.7947 125.883 11.3761 125.621 12.0535L122.197 20.5886C121.923 21.3259 121.614 21.8833 121.269 22.2489C120.923 22.6145 120.417 22.8004 119.756 22.8004C118.696 22.8004 117.928 22.165 117.446 20.8883L113.742 11.5799C113.617 11.2323 113.558 10.8067 113.558 10.2973C113.558 9.75183 113.79 9.33226 114.249 9.02657C114.707 8.72089 115.237 8.57104 115.838 8.57104C116.225 8.57104 116.577 8.72688 116.886 9.03856C117.196 9.35024 117.428 9.72186 117.577 10.1594L119.768 16.6387Z" fill="white"/>
<path d="M129.837 16.9984C130.116 17.8016 130.515 18.383 131.027 18.7486C131.587 19.1682 132.212 19.378 132.909 19.378C133.689 19.378 134.439 19.1982 135.166 18.8325L136.309 18.2571C136.493 18.1612 136.749 18.0953 137.065 18.0713C137.351 18.0713 137.625 18.1492 137.893 18.2991C138.16 18.4489 138.375 18.6527 138.536 18.9105C138.696 19.1682 138.774 19.4379 138.774 19.7136C138.774 20.4629 138.238 21.1402 137.166 21.7575C135.868 22.5067 134.374 22.8784 132.683 22.8784C131.575 22.8784 130.533 22.6626 129.551 22.225C128.568 21.7875 127.729 21.1521 127.032 20.313C126.044 19.0903 125.544 17.5199 125.544 15.5959C125.544 14.3132 125.841 13.1264 126.443 12.0296C127.044 10.9327 127.872 10.0696 128.932 9.42825C129.985 8.78691 131.146 8.46924 132.415 8.46924C133.629 8.46924 134.737 8.77492 135.749 9.3803C136.761 9.98567 137.553 10.8068 138.131 11.8378C138.708 12.8687 138.994 13.9835 138.994 15.1763C138.994 15.8057 138.863 16.2732 138.595 16.5669C138.327 16.8606 137.893 17.0104 137.279 17.0104H129.837V16.9984ZM135.088 14.2653C134.665 12.593 133.754 11.7538 132.367 11.7538C131.141 11.7538 130.247 12.593 129.7 14.2653H135.088Z" fill="white"/>
<path d="M30.5688 12.2154C30.5211 8.86487 28.979 6.28754 25.9841 4.55532C24.1919 3.51839 22.2627 2.45749 19.9227 1.21677C16.8504 -0.401559 13.7363 -0.407553 10.6699 1.20478C8.52644 2.33162 6.45439 3.47044 4.51334 4.59728C1.79228 6.17365 0.2442 8.58916 0.0477121 11.5801C-0.0118296 12.4971 7.87702e-05 13.4022 0.0179413 14.2893C0.0238954 14.6549 0.0298496 15.0385 0.0298496 15.4101C0.0298496 15.8117 0.0238954 16.2253 0.0179413 16.6209C7.87702e-05 17.5379 -0.0177837 18.4849 0.0477121 19.444C0.232291 22.3749 1.71488 24.7425 4.32876 26.2949C6.42462 27.5416 8.63957 28.7583 10.9081 29.9151C12.3192 30.6344 13.784 31 15.2666 31C16.8087 31 18.3449 30.6044 19.8334 29.8312C21.8876 28.7583 23.9596 27.6195 25.996 26.4387C28.979 24.7065 30.5211 22.1292 30.5628 18.7667C30.5985 16.531 30.5985 14.3252 30.5688 12.2154ZM25.347 18.8446C25.3112 20.2831 24.6801 21.344 23.4119 22.0872C21.5601 23.1661 19.5238 24.2929 17.1898 25.5157C15.9156 26.187 14.6711 26.187 13.397 25.5217C11.1284 24.3409 9.09209 23.2201 7.1808 22.0992C5.8828 21.338 5.25165 20.2531 5.2457 18.7906C5.2457 18.0354 5.2457 17.2742 5.2457 16.519V14.1274C5.2457 13.4861 5.2457 12.8388 5.2457 12.1974C5.25165 10.7469 5.8947 9.66805 7.20462 8.89484C9.39575 7.60617 11.6286 6.41341 13.3255 5.52033C13.9805 5.17269 14.6295 5.00486 15.2725 5.00486C15.9156 5.00486 16.5586 5.17868 17.2136 5.52033C19.5536 6.75505 21.5899 7.8759 23.4357 8.95478C24.6741 9.67404 25.2934 10.711 25.3351 12.1135C25.4006 14.1814 25.4006 16.3871 25.347 18.8446Z" fill="white"/>
<path d="M22.3581 10.2855C21.9175 9.28456 21.078 8.71515 19.9467 8.69117C17.8568 8.64921 15.7668 8.65521 13.6769 8.67918C10.4141 8.72114 8.02048 11.1307 8.01453 14.2414C8.01453 15.3263 8.01453 15.602 8.01453 16.6869C8.01453 16.6869 13.2542 16.6929 13.2542 16.6989C13.2542 16.603 13.2542 16.5251 13.2542 16.4412C13.2542 15.7459 13.2542 15.0506 13.2542 14.3553C13.2542 13.8878 13.3852 13.7619 13.8675 13.7619C15.8621 13.7619 17.8568 13.7619 19.8514 13.7619C20.6374 13.7619 21.3161 13.5042 21.8401 12.9468C22.5784 12.1736 22.7868 11.2625 22.3581 10.2855Z" fill="white"/>
<path d="M22.5782 14.7869C22.5782 14.7869 17.3385 14.7809 17.3385 14.7749C17.3385 14.8708 17.3385 14.9487 17.3385 15.0326C17.3385 15.7279 17.3385 16.4232 17.3385 17.1185C17.3385 17.586 17.2075 17.7119 16.7252 17.7119C14.7306 17.7119 12.7359 17.7119 10.7413 17.7119C9.95535 17.7119 9.27657 17.9696 8.75261 18.527C8.01429 19.3062 7.8059 20.2173 8.2346 21.1943C8.6752 22.1952 9.51474 22.7647 10.646 22.7886C12.7359 22.8306 14.8259 22.8246 16.9158 22.8006C20.1787 22.7587 22.5722 20.3491 22.5782 17.2384C22.5782 16.1475 22.5782 15.8778 22.5782 14.7869Z" fill="white"/>
</g>
<defs>
<clipPath id="clip0_3_671">
<rect width="139" height="31" fill="white"/>
</clipPath>
</defs>
</svg>
