<svg width="24" height="24" viewBox="0 0 24 24" fill="none" xmlns="http://www.w3.org/2000/svg">
<path fill-rule="evenodd" clip-rule="evenodd" d="M21 0H3C1.35 0 0 1.35 0 3V21C0 22.65 1.35 24 3 24H21C22.65 24 24 22.65 24 21V3C24 1.35 22.665 0 21 0ZM21 21H3V3H21V21Z" fill="#6A10E7"/>
<path d="M17.8182 7.41517C17.4552 6.54352 16.7635 6.04767 15.8314 6.02679C14.1094 5.99026 12.3874 5.99548 10.6655 6.01636C7.97706 6.05289 6.00491 8.15112 6 10.86C6 11.8047 6 12.0448 6 12.9896C6 12.9896 10.3172 12.9948 10.3172 13C10.3172 12.9165 10.3172 12.8486 10.3172 12.7756C10.3172 12.1701 10.3172 11.5646 10.3172 10.9592C10.3172 10.5521 10.4251 10.4425 10.8225 10.4425C12.4659 10.4425 14.1094 10.4425 15.7529 10.4425C16.4004 10.4425 16.9597 10.218 17.3914 9.73261C17.9997 9.0593 18.1714 8.26594 17.8182 7.41517Z" fill="#6914E7"/>
<path d="M18 11.0104C18 11.0104 13.6828 11.0052 13.6828 11C13.6828 11.0834 13.6828 11.1513 13.6828 11.2243C13.6828 11.8293 13.6828 12.4343 13.6828 13.0393C13.6828 13.4461 13.5749 13.5556 13.1775 13.5556C11.5341 13.5556 9.89061 13.5556 8.24715 13.5556C7.59957 13.5556 7.0403 13.7799 6.60859 14.265C6.00026 14.943 5.82855 15.7357 6.18178 16.5859C6.54481 17.4569 7.23654 17.9524 8.16865 17.9732C9.89061 18.0097 11.6126 18.0045 13.3345 17.9837C16.0229 17.9471 17.9951 15.8505 18 13.1436C18 12.1944 18 11.9597 18 11.0104Z" fill="#6914E7"/>
</svg>
