<svg width="284" height="189" viewBox="0 0 284 189" fill="none" xmlns="http://www.w3.org/2000/svg">
<g clip-path="url(#clip0_1_49)">
<path d="M135.54 184.68C136.31 183.91 137.55 183.91 138.32 184.68C139.09 185.45 139.09 186.69 138.32 187.46C137.55 188.23 136.31 188.23 135.54 187.46C134.77 186.69 134.77 185.44 135.54 184.68Z" fill="#BCBFFD"/>
<path d="M113.8 162.94C114.57 162.17 115.81 162.17 116.58 162.94C117.35 163.71 117.35 164.95 116.58 165.72C115.81 166.49 114.57 166.49 113.8 165.72C113.03 164.95 113.03 163.7 113.8 162.94Z" fill="#BCBFFD"/>
<path d="M92.06 141.2C92.83 140.43 94.07 140.43 94.84 141.2C95.61 141.97 95.61 143.21 94.84 143.98C94.07 144.75 92.83 144.75 92.06 143.98C91.29 143.21 91.29 141.96 92.06 141.2Z" fill="#BCBFFD"/>
<path d="M71.7 122.8C72.7825 122.8 73.66 121.922 73.66 120.84C73.66 119.758 72.7825 118.88 71.7 118.88C70.6175 118.88 69.74 119.758 69.74 120.84C69.74 121.922 70.6175 122.8 71.7 122.8Z" fill="#BCBFFD"/>
<path d="M48.57 97.71C49.34 96.94 50.58 96.94 51.35 97.71C52.12 98.48 52.12 99.72 51.35 100.49C50.58 101.26 49.34 101.26 48.57 100.49C47.81 99.72 47.81 98.48 48.57 97.71Z" fill="#BCBFFD"/>
<path d="M154.97 165.25C155.74 164.48 156.98 164.48 157.75 165.25C158.52 166.02 158.52 167.26 157.75 168.03C156.98 168.8 155.74 168.8 154.97 168.03C154.2 167.26 154.2 166.02 154.97 165.25Z" fill="#BCBFFD"/>
<path d="M133.23 143.51C134 142.74 135.24 142.74 136.01 143.51C136.78 144.28 136.78 145.52 136.01 146.29C135.24 147.06 134 147.06 133.23 146.29C132.46 145.52 132.46 144.28 133.23 143.51Z" fill="#BCBFFD"/>
<path d="M111.48 121.77C112.25 121 113.49 121 114.26 121.77C115.03 122.54 115.03 123.78 114.26 124.55C113.49 125.32 112.25 125.32 111.48 124.55C110.72 123.78 110.72 122.53 111.48 121.77Z" fill="#BCBFFD"/>
<path d="M91.13 103.38C92.2125 103.38 93.09 102.502 93.09 101.42C93.09 100.338 92.2125 99.46 91.13 99.46C90.0475 99.46 89.17 100.338 89.17 101.42C89.17 102.502 90.0475 103.38 91.13 103.38Z" fill="#BCBFFD"/>
<path d="M69.39 81.63C70.4725 81.63 71.35 80.7525 71.35 79.67C71.35 78.5875 70.4725 77.71 69.39 77.71C68.3075 77.71 67.43 78.5875 67.43 79.67C67.43 80.7525 68.3075 81.63 69.39 81.63Z" fill="#BCBFFD"/>
<path d="M175.78 149.17C176.862 149.17 177.74 148.292 177.74 147.21C177.74 146.128 176.862 145.25 175.78 145.25C174.698 145.25 173.82 146.128 173.82 147.21C173.82 148.292 174.698 149.17 175.78 149.17Z" fill="#BCBFFD"/>
<path d="M154.04 127.43C155.122 127.43 156 126.552 156 125.47C156 124.388 155.122 123.51 154.04 123.51C152.958 123.51 152.08 124.388 152.08 125.47C152.08 126.552 152.958 127.43 154.04 127.43Z" fill="#BCBFFD"/>
<path d="M130.91 102.34C131.68 101.57 132.92 101.57 133.69 102.34C134.46 103.11 134.46 104.35 133.69 105.12C132.92 105.89 131.68 105.89 130.91 105.12C130.15 104.35 130.15 103.11 130.91 102.34Z" fill="#BCBFFD"/>
<path d="M109.17 80.6C109.94 79.83 111.18 79.83 111.95 80.6C112.72 81.37 112.72 82.61 111.95 83.38C111.18 84.15 109.94 84.15 109.17 83.38C108.4 82.61 108.4 81.37 109.17 80.6Z" fill="#BCBFFD"/>
<path d="M87.43 58.86C88.2 58.09 89.44 58.09 90.21 58.86C90.98 59.63 90.98 60.87 90.21 61.64C89.44 62.41 88.2 62.41 87.43 61.64C86.66 60.87 86.66 59.63 87.43 58.86Z" fill="#BCBFFD"/>
<path d="M193.82 126.39C194.59 125.62 195.83 125.62 196.6 126.39C197.37 127.16 197.37 128.4 196.6 129.17C195.83 129.94 194.59 129.94 193.82 129.17C193.06 128.4 193.06 127.16 193.82 126.39Z" fill="#BCBFFD"/>
<path d="M172.08 104.65C172.85 103.88 174.09 103.88 174.86 104.65C175.63 105.42 175.63 106.66 174.86 107.43C174.09 108.2 172.85 108.2 172.08 107.43C171.31 106.66 171.31 105.42 172.08 104.65Z" fill="#BCBFFD"/>
<path d="M150.34 82.91C151.11 82.14 152.35 82.14 153.12 82.91C153.89 83.68 153.89 84.92 153.12 85.69C152.35 86.46 151.11 86.46 150.34 85.69C149.57 84.92 149.57 83.68 150.34 82.91Z" fill="#BCBFFD"/>
<path d="M129.99 64.52C131.072 64.52 131.95 63.6425 131.95 62.56C131.95 61.4775 131.072 60.6 129.99 60.6C128.908 60.6 128.03 61.4775 128.03 62.56C128.03 63.6425 128.908 64.52 129.99 64.52Z" fill="#BCBFFD"/>
<path d="M106.86 39.43C107.63 38.66 108.87 38.66 109.64 39.43C110.41 40.2 110.41 41.44 109.64 42.21C108.87 42.98 107.63 42.98 106.86 42.21C106.09 41.44 106.09 40.2 106.86 39.43Z" fill="#BCBFFD"/>
<path d="M213.25 106.97C214.02 106.2 215.26 106.2 216.03 106.97C216.8 107.74 216.8 108.98 216.03 109.75C215.26 110.52 214.02 110.52 213.25 109.75C212.48 108.97 212.48 107.73 213.25 106.97Z" fill="#BCBFFD"/>
<path d="M191.51 85.23C192.28 84.46 193.52 84.46 194.29 85.23C195.06 86 195.06 87.24 194.29 88.01C193.52 88.78 192.28 88.78 191.51 88.01C190.74 87.23 190.74 85.99 191.51 85.23Z" fill="#BCBFFD"/>
<path d="M169.77 63.48C170.54 62.71 171.78 62.71 172.55 63.48C173.32 64.25 173.32 65.49 172.55 66.26C171.78 67.03 170.54 67.03 169.77 66.26C169 65.49 169 64.25 169.77 63.48Z" fill="#BCBFFD"/>
<path d="M149.42 45.09C150.502 45.09 151.38 44.2125 151.38 43.13C151.38 42.0475 150.502 41.17 149.42 41.17C148.338 41.17 147.46 42.0475 147.46 43.13C147.46 44.2125 148.338 45.09 149.42 45.09Z" fill="#BCBFFD"/>
<path d="M127.67 23.35C128.752 23.35 129.63 22.4725 129.63 21.39C129.63 20.3075 128.752 19.43 127.67 19.43C126.588 19.43 125.71 20.3075 125.71 21.39C125.71 22.4725 126.588 23.35 127.67 23.35Z" fill="#BCBFFD"/>
<path d="M234.07 90.89C235.152 90.89 236.03 90.0125 236.03 88.93C236.03 87.8475 235.152 86.97 234.07 86.97C232.988 86.97 232.11 87.8475 232.11 88.93C232.11 90.0125 232.988 90.89 234.07 90.89Z" fill="#BCBFFD"/>
<path d="M212.32 69.14C213.402 69.14 214.28 68.2625 214.28 67.18C214.28 66.0975 213.402 65.22 212.32 65.22C211.238 65.22 210.36 66.0975 210.36 67.18C210.36 68.2625 211.238 69.14 212.32 69.14Z" fill="#BCBFFD"/>
<path d="M189.2 44.06C189.97 43.29 191.21 43.29 191.98 44.06C192.75 44.83 192.75 46.07 191.98 46.84C191.21 47.61 189.97 47.61 189.2 46.84C188.43 46.07 188.43 44.82 189.2 44.06Z" fill="#BCBFFD"/>
<path d="M167.46 22.32C168.23 21.55 169.47 21.55 170.24 22.32C171.01 23.09 171.01 24.33 170.24 25.1C169.47 25.87 168.23 25.87 167.46 25.1C166.69 24.32 166.69 23.08 167.46 22.32Z" fill="#BCBFFD"/>
<path d="M145.71 0.57C146.48 -0.2 147.72 -0.2 148.49 0.57C149.26 1.34 149.26 2.58 148.49 3.35C147.72 4.12 146.48 4.12 145.71 3.35C144.95 2.58 144.95 1.34 145.71 0.57Z" fill="#BCBFFD"/>
<g clip-path="url(#clip1_1_49)">
<path d="M147 34C154.18 34 160 28.1797 160 21C160 13.8203 154.18 8 147 8C139.82 8 134 13.8203 134 21C134 28.1797 139.82 34 147 34Z" stroke="#6914E7" stroke-width="10" stroke-miterlimit="10" stroke-linecap="round" stroke-linejoin="round"/>
</g>
</g>
<path d="M283.6 130H148.922L141.8 136.562L134.711 130H0" stroke="#BCBFFD" stroke-width="2"/>
<defs>
<clipPath id="clip0_1_49">
<rect width="188.03" height="188.03" fill="white" transform="translate(48)"/>
</clipPath>
<clipPath id="clip1_1_49">
<rect width="36" height="36" fill="white" transform="translate(129 3)"/>
</clipPath>
</defs>
</svg>
