<svg width="284" height="196" viewBox="0 0 284 196" fill="none" xmlns="http://www.w3.org/2000/svg">
<path d="M125.54 184.68C126.31 183.91 127.55 183.91 128.32 184.68C129.09 185.45 129.09 186.69 128.32 187.46C127.55 188.23 126.31 188.23 125.54 187.46C124.77 186.69 124.77 185.44 125.54 184.68Z" fill="#BCBFFD"/>
<path d="M103.8 162.94C104.57 162.17 105.81 162.17 106.58 162.94C107.35 163.71 107.35 164.95 106.58 165.72C105.81 166.49 104.57 166.49 103.8 165.72C103.03 164.95 103.03 163.7 103.8 162.94Z" fill="#BCBFFD"/>
<path d="M82.06 141.2C82.83 140.43 84.07 140.43 84.84 141.2C85.61 141.97 85.61 143.21 84.84 143.98C84.07 144.75 82.83 144.75 82.06 143.98C81.29 143.21 81.29 141.96 82.06 141.2Z" fill="#BCBFFD"/>
<path d="M61.7 122.8C62.7825 122.8 63.66 121.922 63.66 120.84C63.66 119.758 62.7825 118.88 61.7 118.88C60.6175 118.88 59.74 119.758 59.74 120.84C59.74 121.922 60.6175 122.8 61.7 122.8Z" fill="#BCBFFD"/>
<path d="M38.57 97.71C39.34 96.94 40.58 96.94 41.35 97.71C42.12 98.48 42.12 99.72 41.35 100.49C40.58 101.26 39.34 101.26 38.57 100.49C37.81 99.72 37.81 98.48 38.57 97.71Z" fill="#BCBFFD"/>
<path d="M144.97 165.25C145.74 164.48 146.98 164.48 147.75 165.25C148.52 166.02 148.52 167.26 147.75 168.03C146.98 168.8 145.74 168.8 144.97 168.03C144.2 167.26 144.2 166.02 144.97 165.25Z" fill="#BCBFFD"/>
<path d="M123.23 143.51C124 142.74 125.24 142.74 126.01 143.51C126.78 144.28 126.78 145.52 126.01 146.29C125.24 147.06 124 147.06 123.23 146.29C122.46 145.52 122.46 144.28 123.23 143.51Z" fill="#BCBFFD"/>
<path d="M101.48 121.77C102.25 121 103.49 121 104.26 121.77C105.03 122.54 105.03 123.78 104.26 124.55C103.49 125.32 102.25 125.32 101.48 124.55C100.72 123.78 100.72 122.53 101.48 121.77Z" fill="#BCBFFD"/>
<path d="M81.13 103.38C82.2125 103.38 83.09 102.502 83.09 101.42C83.09 100.338 82.2125 99.46 81.13 99.46C80.0475 99.46 79.17 100.338 79.17 101.42C79.17 102.502 80.0475 103.38 81.13 103.38Z" fill="#BCBFFD"/>
<path d="M59.39 81.63C60.4725 81.63 61.35 80.7525 61.35 79.67C61.35 78.5875 60.4725 77.71 59.39 77.71C58.3075 77.71 57.43 78.5875 57.43 79.67C57.43 80.7525 58.3075 81.63 59.39 81.63Z" fill="#BCBFFD"/>
<path d="M165.78 149.17C166.862 149.17 167.74 148.292 167.74 147.21C167.74 146.128 166.862 145.25 165.78 145.25C164.698 145.25 163.82 146.128 163.82 147.21C163.82 148.292 164.698 149.17 165.78 149.17Z" fill="#BCBFFD"/>
<path d="M144.04 127.43C145.122 127.43 146 126.552 146 125.47C146 124.388 145.122 123.51 144.04 123.51C142.958 123.51 142.08 124.388 142.08 125.47C142.08 126.552 142.958 127.43 144.04 127.43Z" fill="#BCBFFD"/>
<path d="M120.91 102.34C121.68 101.57 122.92 101.57 123.69 102.34C124.46 103.11 124.46 104.35 123.69 105.12C122.92 105.89 121.68 105.89 120.91 105.12C120.15 104.35 120.15 103.11 120.91 102.34Z" fill="#BCBFFD"/>
<path d="M99.17 80.6C99.94 79.83 101.18 79.83 101.95 80.6C102.72 81.37 102.72 82.61 101.95 83.38C101.18 84.15 99.94 84.15 99.17 83.38C98.4 82.61 98.4 81.37 99.17 80.6Z" fill="#BCBFFD"/>
<path d="M77.43 58.86C78.2 58.09 79.44 58.09 80.21 58.86C80.98 59.63 80.98 60.87 80.21 61.64C79.44 62.41 78.2 62.41 77.43 61.64C76.66 60.87 76.66 59.63 77.43 58.86Z" fill="#BCBFFD"/>
<path d="M183.82 126.39C184.59 125.62 185.83 125.62 186.6 126.39C187.37 127.16 187.37 128.4 186.6 129.17C185.83 129.94 184.59 129.94 183.82 129.17C183.06 128.4 183.06 127.16 183.82 126.39Z" fill="#BCBFFD"/>
<path d="M162.08 104.65C162.85 103.88 164.09 103.88 164.86 104.65C165.63 105.42 165.63 106.66 164.86 107.43C164.09 108.2 162.85 108.2 162.08 107.43C161.31 106.66 161.31 105.42 162.08 104.65Z" fill="#BCBFFD"/>
<path d="M140.34 82.91C141.11 82.14 142.35 82.14 143.12 82.91C143.89 83.68 143.89 84.92 143.12 85.69C142.35 86.46 141.11 86.46 140.34 85.69C139.57 84.92 139.57 83.68 140.34 82.91Z" fill="#BCBFFD"/>
<path d="M119.99 64.52C121.072 64.52 121.95 63.6425 121.95 62.56C121.95 61.4775 121.072 60.6 119.99 60.6C118.908 60.6 118.03 61.4775 118.03 62.56C118.03 63.6425 118.908 64.52 119.99 64.52Z" fill="#BCBFFD"/>
<path d="M96.86 39.43C97.63 38.66 98.87 38.66 99.64 39.43C100.41 40.2 100.41 41.44 99.64 42.21C98.87 42.98 97.63 42.98 96.86 42.21C96.09 41.44 96.09 40.2 96.86 39.43Z" fill="#BCBFFD"/>
<path d="M203.25 106.97C204.02 106.2 205.26 106.2 206.03 106.97C206.8 107.74 206.8 108.98 206.03 109.75C205.26 110.52 204.02 110.52 203.25 109.75C202.48 108.97 202.48 107.73 203.25 106.97Z" fill="#BCBFFD"/>
<path d="M181.51 85.23C182.28 84.46 183.52 84.46 184.29 85.23C185.06 86 185.06 87.24 184.29 88.01C183.52 88.78 182.28 88.78 181.51 88.01C180.74 87.23 180.74 85.99 181.51 85.23Z" fill="#BCBFFD"/>
<path d="M159.77 63.48C160.54 62.71 161.78 62.71 162.55 63.48C163.32 64.25 163.32 65.49 162.55 66.26C161.78 67.03 160.54 67.03 159.77 66.26C159 65.49 159 64.25 159.77 63.48Z" fill="#BCBFFD"/>
<path d="M139.42 45.09C140.502 45.09 141.38 44.2125 141.38 43.13C141.38 42.0475 140.502 41.17 139.42 41.17C138.338 41.17 137.46 42.0475 137.46 43.13C137.46 44.2125 138.338 45.09 139.42 45.09Z" fill="#BCBFFD"/>
<path d="M117.67 23.35C118.752 23.35 119.63 22.4725 119.63 21.39C119.63 20.3075 118.752 19.43 117.67 19.43C116.588 19.43 115.71 20.3075 115.71 21.39C115.71 22.4725 116.588 23.35 117.67 23.35Z" fill="#BCBFFD"/>
<path d="M224.07 90.89C225.152 90.89 226.03 90.0125 226.03 88.93C226.03 87.8475 225.152 86.97 224.07 86.97C222.988 86.97 222.11 87.8475 222.11 88.93C222.11 90.0125 222.988 90.89 224.07 90.89Z" fill="#BCBFFD"/>
<path d="M202.32 69.14C203.402 69.14 204.28 68.2625 204.28 67.18C204.28 66.0975 203.402 65.22 202.32 65.22C201.238 65.22 200.36 66.0975 200.36 67.18C200.36 68.2625 201.238 69.14 202.32 69.14Z" fill="#BCBFFD"/>
<path d="M179.2 44.06C179.97 43.29 181.21 43.29 181.98 44.06C182.75 44.83 182.75 46.07 181.98 46.84C181.21 47.61 179.97 47.61 179.2 46.84C178.43 46.07 178.43 44.82 179.2 44.06Z" fill="#BCBFFD"/>
<path d="M157.46 22.32C158.23 21.55 159.47 21.55 160.24 22.32C161.01 23.09 161.01 24.33 160.24 25.1C159.47 25.87 158.23 25.87 157.46 25.1C156.69 24.32 156.69 23.08 157.46 22.32Z" fill="#BCBFFD"/>
<path d="M135.71 0.57C136.48 -0.2 137.72 -0.2 138.49 0.57C139.26 1.34 139.26 2.58 138.49 3.35C137.72 4.12 136.48 4.12 135.71 3.35C134.95 2.58 134.95 1.34 135.71 0.57Z" fill="#BCBFFD"/>
<path d="M136.495 70.9909C149.472 70.9909 159.991 60.4716 159.991 47.4954C159.991 34.5193 149.472 24 136.495 24C123.519 24 113 34.5193 113 47.4954C113 60.4716 123.519 70.9909 136.495 70.9909Z" fill="#BCBFFD"/>
<path d="M128.495 62.9909C141.472 62.9909 151.991 52.4716 151.991 39.4954C151.991 26.5193 141.472 16 128.495 16C115.519 16 105 26.5193 105 39.4954C105 52.4716 115.519 62.9909 128.495 62.9909Z" fill="#BCBFFD" stroke="#6914E7" stroke-width="1.6547" stroke-miterlimit="10" stroke-linecap="round" stroke-linejoin="round"/>
<path d="M283.6 188H148.922L141.8 194.563L134.711 188H0" stroke="#6914E7" stroke-width="2"/>
</svg>
