<svg width="14" height="12" viewBox="0 0 14 12" fill="none" xmlns="http://www.w3.org/2000/svg">
<path d="M1.16665 6.83342H11.05L8.02498 10.4668C7.95494 10.551 7.90219 10.6482 7.86973 10.7529C7.83727 10.8576 7.82574 10.9676 7.83579 11.0767C7.85611 11.297 7.96313 11.5003 8.13331 11.6418C8.30349 11.7832 8.52289 11.8513 8.74325 11.8309C8.9636 11.8106 9.16686 11.7036 9.30831 11.5334L13.475 6.53342C13.503 6.49365 13.5281 6.45187 13.55 6.40842C13.55 6.36675 13.5916 6.34175 13.6083 6.30008C13.6461 6.20453 13.6659 6.10282 13.6666 6.00008C13.6659 5.89734 13.6461 5.79563 13.6083 5.70008C13.6083 5.65842 13.5666 5.63342 13.55 5.59175C13.5281 5.5483 13.503 5.50652 13.475 5.46675L9.30831 0.46675C9.22996 0.372681 9.13184 0.297031 9.02094 0.24518C8.91004 0.193329 8.78907 0.166551 8.66665 0.16675C8.47194 0.166369 8.28324 0.234182 8.13331 0.358416C8.04893 0.428374 7.97918 0.514291 7.92805 0.611247C7.87692 0.708203 7.84543 0.814293 7.83536 0.92344C7.8253 1.03259 7.83687 1.14265 7.86941 1.24732C7.90194 1.35199 7.95481 1.44921 8.02498 1.53342L11.05 5.16675H1.16665C0.945633 5.16675 0.733671 5.25455 0.577391 5.41083C0.421111 5.56711 0.333313 5.77907 0.333313 6.00008C0.333313 6.2211 0.421111 6.43306 0.577391 6.58934C0.733671 6.74562 0.945633 6.83342 1.16665 6.83342Z" fill="white"/>
</svg>
