<svg width="32" height="32" viewBox="0 0 32 32" fill="none" xmlns="http://www.w3.org/2000/svg">
<path fill-rule="evenodd" clip-rule="evenodd" d="M16.0001 10.5323C12.6908 10.5323 10.0031 13.2146 10.0031 16.4931C10.0031 19.7716 12.6908 22.4539 16.0001 22.4539C19.3094 22.4539 21.9969 19.7716 21.9969 16.4931C21.9969 13.2146 19.3094 10.5323 16.0001 10.5323ZM31.8646 15.7579C31.6841 15.3009 27.2316 4.57141 16.0001 4.57141C4.76848 4.57141 0.315888 15.3009 0.135381 15.7579C-0.0451269 16.2348 -0.0451269 16.7514 0.135381 17.2283C0.315888 17.6853 4.76848 28.4148 16.0001 28.4148C27.2316 28.4148 31.6841 17.6853 31.8646 17.2283C32.0451 16.7514 32.0451 16.2348 31.8646 15.7579ZM16.0001 24.4409C8.9001 24.4409 5.28993 18.6191 4.20689 16.4931C5.28993 14.4068 8.94021 8.54531 16.0001 8.54531C23.1 8.54531 26.7101 14.3671 27.7931 16.4931C26.7101 18.5794 23.0599 24.4409 16.0001 24.4409Z" fill="#6A10E7"/>
</svg>
