<svg width="24" height="24" viewBox="0 0 24 24" fill="none" xmlns="http://www.w3.org/2000/svg">
<path fill-rule="evenodd" clip-rule="evenodd" d="M20.1976 9.14252L13.448 3.51752C13.0355 3.16877 12.5198 3 12.0041 3C11.4885 3 10.9843 3.16877 10.5603 3.51752L3.81069 9.14252C3.07729 9.75002 2.81373 10.7512 3.13459 11.64C3.31794 12.1462 3.67317 12.5625 4.12008 12.8212V18.75C4.12008 19.9875 5.12853 21 6.36614 21H17.6192C18.8568 21 19.8653 19.9875 19.8653 18.75V12.8212C20.3122 12.5625 20.6674 12.1462 20.8508 11.64C21.1946 10.7512 20.931 9.75002 20.1976 9.14252ZM13.1386 18.75H10.8926V14.25H13.1386V18.75ZM17.6307 10.875V18.75H15.3847V14.25C15.3847 13.0125 14.3763 12 13.1386 12H10.8926C9.65496 12 8.64655 13.0125 8.64655 14.25V18.75H6.38905V10.875H5.26602L12.0156 5.25L18.7652 10.875H17.6307Z" fill="white"/>
</svg>
