<svg width="645" height="738" viewBox="0 0 645 738" fill="none" xmlns="http://www.w3.org/2000/svg">
<path d="M4.92794 114.922C2.21731 87.1717 22.7281 62.5659 50.5129 60.2359L458.004 26.0646C484.986 23.8019 508.867 43.4292 511.873 70.3391L572.298 611.284C575.876 643.32 548.652 670.321 516.647 666.479L93.2688 615.656C69.9669 612.858 51.7466 594.231 49.465 570.873L4.92794 114.922Z" fill="url(#paint0_linear_2302_261)"/>
<g clip-path="url(#clip0_2302_261)">
<path d="M466.963 108.667C496.623 108.667 520.667 84.6232 520.667 54.9634C520.667 25.3036 496.623 1.25952 466.963 1.25952C437.304 1.25952 413.26 25.3036 413.26 54.9634C413.26 84.6232 437.304 108.667 466.963 108.667Z" stroke="#BCBFFD" stroke-width="3.65" stroke-miterlimit="10" stroke-linecap="round" stroke-linejoin="round"/>
<path d="M486.281 127.985C515.941 127.985 539.985 103.941 539.985 74.281C539.985 44.6212 515.941 20.5771 486.281 20.5771C456.621 20.5771 432.577 44.6212 432.577 74.281C432.577 103.941 456.621 127.985 486.281 127.985Z" fill="#6A10E7"/>
<path d="M509.594 55.5055C508.102 52.1145 505.258 50.1855 501.425 50.1042C494.345 49.9621 487.265 49.9824 480.185 50.0636C469.131 50.2058 461.022 58.3686 461.002 68.9073C461.002 72.5826 461.002 73.5166 461.002 77.192C461.002 77.192 478.752 77.2123 478.752 77.2326C478.752 76.9077 478.752 76.6437 478.752 76.3594C478.752 74.004 478.752 71.6485 478.752 69.2931C478.752 67.7092 479.196 67.2828 480.83 67.2828C487.587 67.2828 494.345 67.2828 501.102 67.2828C503.765 67.2828 506.064 66.4097 507.839 64.5212C510.341 61.9018 511.047 58.8154 509.594 55.5055Z" fill="white"/>
<path d="M510.34 70.7552C510.34 70.7552 492.589 70.7349 492.589 70.7146C492.589 71.0395 492.589 71.3035 492.589 71.5877C492.589 73.9432 492.589 76.2986 492.589 78.6541C492.589 80.2379 492.146 80.6644 490.512 80.6644C483.754 80.6644 476.997 80.6644 470.24 80.6644C467.577 80.6644 465.277 81.5375 463.502 83.4259C461.001 86.0657 460.295 89.1521 461.747 92.4619C463.24 95.853 466.084 97.782 469.917 97.8632C476.997 98.0054 484.077 97.9851 491.157 97.9038C502.211 97.7617 510.32 89.5988 510.34 79.0602C510.34 75.3646 510.34 74.4508 510.34 70.7552Z" fill="white"/>
</g>
<path d="M80 648C103.748 648 123 628.748 123 605C123 581.252 103.748 562 80 562C56.2517 562 37 581.252 37 605C37 628.748 56.2517 648 80 648Z" stroke="#6914E7" stroke-width="10" stroke-miterlimit="10" stroke-linecap="round" stroke-linejoin="round"/>
<path d="M543.54 679.687C544.31 678.917 545.55 678.917 546.32 679.687C547.09 680.457 547.09 681.697 546.32 682.467C545.55 683.237 544.31 683.237 543.54 682.467C542.77 681.697 542.77 680.447 543.54 679.687Z" fill="#D1CBCE"/>
<path d="M521.8 657.947C522.57 657.177 523.81 657.177 524.58 657.947C525.35 658.717 525.35 659.957 524.58 660.727C523.81 661.497 522.57 661.497 521.8 660.727C521.03 659.947 521.03 658.707 521.8 657.947Z" fill="#D1CBCE"/>
<path d="M500.06 636.197C500.83 635.427 502.07 635.427 502.84 636.197C503.61 636.967 503.61 638.207 502.84 638.977C502.07 639.747 500.83 639.747 500.06 638.977C499.29 638.207 499.29 636.967 500.06 636.197Z" fill="#D1CBCE"/>
<path d="M479.7 617.807C480.782 617.807 481.66 616.93 481.66 615.847C481.66 614.765 480.782 613.887 479.7 613.887C478.618 613.887 477.74 614.765 477.74 615.847C477.74 616.93 478.618 617.807 479.7 617.807Z" fill="#D1CBCE"/>
<path d="M456.57 592.717C457.34 591.947 458.58 591.947 459.35 592.717C460.12 593.487 460.12 594.727 459.35 595.497C458.58 596.267 457.34 596.267 456.57 595.497C455.81 594.727 455.81 593.487 456.57 592.717Z" fill="#D1CBCE"/>
<path d="M562.97 660.257C563.74 659.487 564.98 659.487 565.75 660.257C566.52 661.027 566.52 662.267 565.75 663.037C564.98 663.807 563.74 663.807 562.97 663.037C562.2 662.267 562.2 661.017 562.97 660.257Z" fill="#D1CBCE"/>
<path d="M541.23 638.517C542 637.747 543.24 637.747 544.01 638.517C544.78 639.287 544.78 640.527 544.01 641.297C543.24 642.067 542 642.067 541.23 641.297C540.46 640.527 540.46 639.277 541.23 638.517Z" fill="#D1CBCE"/>
<path d="M519.48 616.777C520.25 616.007 521.49 616.007 522.26 616.777C523.03 617.547 523.03 618.787 522.26 619.557C521.49 620.327 520.25 620.327 519.48 619.557C518.72 618.787 518.72 617.537 519.48 616.777Z" fill="#D1CBCE"/>
<path d="M499.13 598.378C500.212 598.378 501.09 597.5 501.09 596.418C501.09 595.335 500.212 594.458 499.13 594.458C498.048 594.458 497.17 595.335 497.17 596.418C497.17 597.5 498.048 598.378 499.13 598.378Z" fill="#D1CBCE"/>
<path d="M477.39 576.638C478.472 576.638 479.35 575.76 479.35 574.678C479.35 573.595 478.472 572.718 477.39 572.718C476.308 572.718 475.43 573.595 475.43 574.678C475.43 575.76 476.308 576.638 477.39 576.638Z" fill="#D1CBCE"/>
<path d="M583.78 644.178C584.863 644.178 585.74 643.3 585.74 642.218C585.74 641.135 584.863 640.258 583.78 640.258C582.698 640.258 581.82 641.135 581.82 642.218C581.82 643.3 582.698 644.178 583.78 644.178Z" fill="#D1CBCE"/>
<path d="M562.04 622.438C563.122 622.438 564 621.56 564 620.478C564 619.395 563.122 618.518 562.04 618.518C560.958 618.518 560.08 619.395 560.08 620.478C560.08 621.56 560.958 622.438 562.04 622.438Z" fill="#D1CBCE"/>
<path d="M538.91 597.348C539.68 596.578 540.92 596.578 541.69 597.348C542.46 598.118 542.46 599.358 541.69 600.128C540.92 600.898 539.68 600.898 538.91 600.128C538.15 599.358 538.15 598.118 538.91 597.348Z" fill="#D1CBCE"/>
<path d="M517.17 575.608C517.94 574.838 519.18 574.838 519.95 575.608C520.72 576.378 520.72 577.618 519.95 578.388C519.18 579.158 517.94 579.158 517.17 578.388C516.4 577.618 516.4 576.368 517.17 575.608Z" fill="#D1CBCE"/>
<path d="M495.43 553.868C496.2 553.098 497.44 553.098 498.21 553.868C498.98 554.638 498.98 555.878 498.21 556.648C497.44 557.418 496.2 557.418 495.43 556.648C494.66 555.878 494.66 554.628 495.43 553.868Z" fill="#D1CBCE"/>
<path d="M601.82 621.398C602.59 620.628 603.83 620.628 604.6 621.398C605.37 622.168 605.37 623.408 604.6 624.178C603.83 624.948 602.59 624.948 601.82 624.178C601.06 623.408 601.06 622.168 601.82 621.398Z" fill="#D1CBCE"/>
<path d="M580.08 599.658C580.85 598.888 582.09 598.888 582.86 599.658C583.63 600.428 583.63 601.668 582.86 602.438C582.09 603.208 580.85 603.208 580.08 602.438C579.31 601.668 579.31 600.428 580.08 599.658Z" fill="#D1CBCE"/>
<path d="M558.34 577.918C559.11 577.148 560.35 577.148 561.12 577.918C561.89 578.688 561.89 579.928 561.12 580.698C560.35 581.468 559.11 581.468 558.34 580.698C557.57 579.928 557.57 578.688 558.34 577.918Z" fill="#D1CBCE"/>
<path d="M537.99 559.528C539.072 559.528 539.95 558.65 539.95 557.568C539.95 556.485 539.072 555.608 537.99 555.608C536.907 555.608 536.03 556.485 536.03 557.568C536.03 558.65 536.907 559.528 537.99 559.528Z" fill="#D1CBCE"/>
<path d="M514.86 534.438C515.63 533.668 516.87 533.668 517.64 534.438C518.41 535.208 518.41 536.448 517.64 537.218C516.87 537.988 515.63 537.988 514.86 537.218C514.09 536.448 514.09 535.208 514.86 534.438Z" fill="#D1CBCE"/>
<path d="M621.25 601.967C622.02 601.197 623.26 601.197 624.03 601.967C624.8 602.737 624.8 603.977 624.03 604.747C623.26 605.517 622.02 605.517 621.25 604.747C620.48 603.977 620.48 602.737 621.25 601.967Z" fill="#D1CBCE"/>
<path d="M599.51 580.227C600.28 579.457 601.52 579.457 602.29 580.227C603.06 580.997 603.06 582.237 602.29 583.007C601.52 583.777 600.28 583.777 599.51 583.007C598.74 582.237 598.74 580.997 599.51 580.227Z" fill="#D1CBCE"/>
<path d="M577.77 558.487C578.54 557.717 579.78 557.717 580.55 558.487C581.32 559.257 581.32 560.497 580.55 561.267C579.78 562.037 578.54 562.037 577.77 561.267C577 560.497 577 559.257 577.77 558.487Z" fill="#D1CBCE"/>
<path d="M557.42 540.097C558.502 540.097 559.38 539.22 559.38 538.137C559.38 537.055 558.502 536.177 557.42 536.177C556.338 536.177 555.46 537.055 555.46 538.137C555.46 539.22 556.338 540.097 557.42 540.097Z" fill="#D1CBCE"/>
<path d="M535.67 518.357C536.752 518.357 537.63 517.48 537.63 516.398C537.63 515.315 536.752 514.438 535.67 514.438C534.588 514.438 533.71 515.315 533.71 516.398C533.71 517.48 534.588 518.357 535.67 518.357Z" fill="#D1CBCE"/>
<path d="M642.07 585.888C643.152 585.888 644.03 585.01 644.03 583.928C644.03 582.845 643.152 581.968 642.07 581.968C640.988 581.968 640.11 582.845 640.11 583.928C640.11 585.01 640.988 585.888 642.07 585.888Z" fill="#D1CBCE"/>
<path d="M620.32 564.148C621.402 564.148 622.28 563.27 622.28 562.188C622.28 561.105 621.402 560.228 620.32 560.228C619.238 560.228 618.36 561.105 618.36 562.188C618.36 563.27 619.238 564.148 620.32 564.148Z" fill="#D1CBCE"/>
<path d="M597.2 539.067C597.97 538.297 599.21 538.297 599.98 539.067C600.75 539.837 600.75 541.077 599.98 541.847C599.21 542.617 597.97 542.617 597.2 541.847C596.43 541.067 596.43 539.827 597.2 539.067Z" fill="#D1CBCE"/>
<path d="M575.46 517.317C576.23 516.547 577.47 516.547 578.24 517.317C579.01 518.087 579.01 519.327 578.24 520.097C577.47 520.867 576.23 520.867 575.46 520.097C574.69 519.327 574.69 518.087 575.46 517.317Z" fill="#D1CBCE"/>
<path d="M553.71 495.577C554.48 494.808 555.72 494.808 556.49 495.577C557.26 496.347 557.26 497.587 556.49 498.357C555.72 499.127 554.48 499.127 553.71 498.357C552.95 497.587 552.95 496.347 553.71 495.577Z" fill="#D1CBCE"/>
<g clip-path="url(#clip1_2302_261)">
<g opacity="0.5">
<path d="M198.362 93.4299H18.454V210.369H198.362V93.4299Z" fill="#EBEBEB"/>
<path d="M198.362 210.369L18.454 210.7H18.1227V210.369L18 93.4299V92.9766H18.454L198.362 93.0991H198.693V93.4299L198.583 151.997L198.362 210.369ZM198.362 210.369L198.141 151.801L198.031 93.4299L198.362 93.7607L18.454 93.8833L18.9081 93.4299L18.7731 210.369L18.4417 210.038L198.362 210.369Z" fill="#EBEBEB"/>
</g>
<path d="M198.362 85H18.454V93.4298H198.362V85Z" fill="#6914E7"/>
<path d="M25.1664 89.2148C25.1664 90.3666 24.2338 91.31 23.068 91.31C21.9145 91.31 20.9696 90.3788 20.9696 89.2148C20.9696 88.0631 21.9022 87.1196 23.068 87.1196C24.2338 87.1319 25.1664 88.0631 25.1664 89.2148Z" fill="#BCBFFD"/>
<path d="M33.7071 89.2148C33.7071 90.3666 32.7745 91.31 31.6087 91.31C30.4552 91.31 29.5104 90.3788 29.5104 89.2148C29.5104 88.0631 30.443 87.1196 31.6087 87.1196C32.7745 87.1319 33.7071 88.0631 33.7071 89.2148Z" fill="white"/>
<path d="M42.2601 89.2148C42.2601 90.3666 41.3275 91.31 40.1618 91.31C39.0083 91.31 38.0634 90.3788 38.0634 89.2148C38.0634 88.0631 38.996 87.1196 40.1618 87.1196C41.3153 87.1319 42.2601 88.0631 42.2601 89.2148Z" fill="#A060FF"/>
<path d="M501.518 393.085H362.016C359.47 393.085 357.407 391.022 357.407 388.476V157.986C357.407 155.44 359.47 153.377 362.016 153.377H501.518C504.063 153.377 506.127 155.44 506.127 157.986V388.476C506.127 391.022 504.063 393.085 501.518 393.085Z" fill="white"/>
<path d="M506.127 180.157H357.407V158.814C357.407 155.817 359.847 153.377 362.844 153.377H500.901C503.792 153.377 506.127 155.711 506.127 158.603V180.157Z" fill="#5B17E1"/>
<path d="M501.141 393.085C501.126 393.04 501.849 393.146 503.054 392.664C503.657 392.408 504.35 391.956 504.952 391.218C505.54 390.465 506.037 389.41 506.037 388.13C506.022 382.994 505.991 375.463 505.961 365.748C505.931 346.288 505.886 318.168 505.841 283.42C505.811 248.658 505.796 207.268 505.75 161.329V159.176C505.75 158.437 505.765 157.775 505.57 157.127C505.223 155.832 504.244 154.717 503.024 154.175C502.407 153.889 501.744 153.753 501.051 153.768H498.867C497.406 153.768 495.945 153.768 494.469 153.768C488.58 153.768 482.631 153.768 476.621 153.768C464.586 153.768 452.311 153.768 439.81 153.783C414.807 153.783 388.916 153.783 362.407 153.798C360.871 153.783 359.38 154.597 358.536 155.877C358.13 156.525 357.859 157.248 357.798 158.016C357.753 158.784 357.783 159.642 357.783 160.456C357.783 163.754 357.783 167.038 357.783 170.306C357.783 176.858 357.783 183.365 357.783 189.811C357.783 202.734 357.783 215.446 357.783 227.963C357.768 252.965 357.768 277.094 357.753 300.079C357.738 323.063 357.723 344.903 357.723 365.326C357.723 370.432 357.723 375.463 357.708 380.388C357.708 382.858 357.708 385.298 357.708 387.708C357.512 390.058 359.199 392.242 361.413 392.694C362.482 392.89 363.733 392.769 364.877 392.799C366.052 392.799 367.212 392.799 368.387 392.799C370.706 392.799 373.011 392.799 375.285 392.799C379.834 392.799 384.277 392.814 388.63 392.814C423.377 392.875 451.498 392.905 470.958 392.935C480.673 392.965 488.203 392.995 493.339 393.01C495.885 393.025 497.828 393.04 499.153 393.055C500.464 393.055 501.141 393.085 501.141 393.085C501.141 393.085 500.464 393.116 499.153 393.131C497.828 393.146 495.885 393.146 493.339 393.176C488.203 393.191 480.673 393.221 470.958 393.251C451.513 393.281 423.392 393.326 388.63 393.372C384.292 393.372 379.834 393.387 375.285 393.387C373.011 393.387 370.706 393.387 368.387 393.387C367.227 393.387 366.052 393.387 364.877 393.387C363.687 393.341 362.558 393.492 361.278 393.266C360.042 393.01 358.913 392.287 358.145 391.263C357.377 390.269 357 388.928 357.075 387.693C357.075 385.268 357.075 382.828 357.075 380.373C357.075 375.448 357.075 370.417 357.06 365.311C357.045 344.873 357.03 323.033 357.03 300.064C357.03 277.079 357.015 252.965 357 227.948C357 215.446 357 202.719 357 189.796C357 183.335 357 176.828 357 170.291C357 167.023 357 163.739 357 160.441C357.015 159.597 356.985 158.829 357.015 157.94C357.075 157.052 357.392 156.193 357.874 155.44C358.838 153.934 360.6 152.985 362.392 153C388.901 153 414.792 153 439.795 153.015C452.296 153.015 464.571 153.015 476.606 153.03C482.615 153.03 488.565 153.03 494.454 153.03C495.93 153.03 497.391 153.03 498.852 153.03H501.036C501.804 153.015 502.602 153.181 503.31 153.512C504.726 154.16 505.856 155.44 506.247 156.931C506.473 157.684 506.458 158.483 506.443 159.176V161.329C506.413 207.283 506.383 248.673 506.353 283.42C506.308 318.168 506.263 346.288 506.232 365.748C506.202 375.463 506.172 382.994 506.157 388.13C506.142 389.44 505.615 390.525 505.012 391.293C504.38 392.046 503.657 392.498 503.039 392.739C502.422 392.995 501.925 393.04 501.593 393.085C501.307 393.085 501.141 393.085 501.141 393.085Z" fill="#6914E7"/>
<path d="M379.322 168.86C379.322 171.285 377.364 173.243 374.939 173.243C372.514 173.243 370.556 171.285 370.556 168.86C370.556 166.435 372.514 164.477 374.939 164.477C377.364 164.477 379.322 166.435 379.322 168.86Z" fill="white"/>
<path d="M388.434 173.243C390.855 173.243 392.817 171.281 392.817 168.86C392.817 166.44 390.855 164.477 388.434 164.477C386.013 164.477 384.051 166.44 384.051 168.86C384.051 171.281 386.013 173.243 388.434 173.243Z" fill="white"/>
<path d="M401.944 173.243C404.365 173.243 406.327 171.281 406.327 168.86C406.327 166.44 404.365 164.477 401.944 164.477C399.524 164.477 397.561 166.44 397.561 168.86C397.561 171.281 399.524 173.243 401.944 173.243Z" fill="white"/>
<path d="M422.112 216.471H394.73C393.088 216.471 391.763 215.145 391.763 213.504C391.763 211.862 393.088 210.536 394.73 210.536H422.112C423.754 210.536 425.079 211.862 425.079 213.504C425.094 215.145 423.754 216.471 422.112 216.471Z" fill="#5B17E1"/>
<path d="M422.112 232.03H394.73C393.088 232.03 391.763 230.704 391.763 229.062C391.763 227.421 393.088 226.095 394.73 226.095H422.112C423.754 226.095 425.079 227.421 425.079 229.062C425.094 230.704 423.754 232.03 422.112 232.03Z" fill="#E0E0E0"/>
<path d="M422.895 274.639H395.513C393.871 274.639 392.546 273.314 392.546 271.672C392.546 270.031 393.871 268.705 395.513 268.705H422.895C424.537 268.705 425.863 270.031 425.863 271.672C425.878 273.314 424.537 274.639 422.895 274.639Z" fill="#E0E0E0"/>
<path d="M422.112 248.1H394.73C393.088 248.1 391.763 246.775 391.763 245.133C391.763 243.491 393.088 242.166 394.73 242.166H422.112C423.754 242.166 425.079 243.491 425.079 245.133C425.094 246.775 423.754 248.1 422.112 248.1Z" fill="#BCBFFD"/>
<path d="M422.112 337.748H394.73C393.088 337.748 391.763 336.423 391.763 334.781C391.763 333.139 393.088 331.814 394.73 331.814H422.112C423.754 331.814 425.079 333.139 425.079 334.781C425.094 336.408 423.754 337.748 422.112 337.748Z" fill="#BCBFFD"/>
<path d="M466.002 216.471H438.605C436.963 216.471 435.638 215.145 435.638 213.504C435.638 211.862 436.963 210.536 438.605 210.536H466.002C467.644 210.536 468.969 211.862 468.969 213.504C468.969 215.145 467.644 216.471 466.002 216.471Z" fill="#5B17E1"/>
<path d="M495.644 232.03H438.349C436.843 232.03 435.638 230.704 435.638 229.062C435.638 227.421 436.858 226.095 438.349 226.095H495.644C497.15 226.095 498.355 227.421 498.355 229.062C498.37 230.704 497.15 232.03 495.644 232.03Z" fill="#5B17E1"/>
<path d="M494.108 248.1H436.421C434.885 248.1 433.634 246.775 433.634 245.133C433.634 243.491 434.885 242.166 436.421 242.166H494.108C495.644 242.166 496.894 243.491 496.894 245.133C496.909 246.775 495.659 248.1 494.108 248.1Z" fill="#E0E0E0"/>
<path d="M452.432 261.099H394.745C393.209 261.099 391.958 259.773 391.958 258.131C391.958 256.49 393.209 255.164 394.745 255.164H452.432C453.968 255.164 455.218 256.49 455.218 258.131C455.233 259.773 453.968 261.099 452.432 261.099Z" fill="#E0E0E0"/>
<path d="M381.31 213.503C381.31 215.175 379.954 216.516 378.297 216.516C376.626 216.516 375.285 215.16 375.285 213.503C375.285 211.831 376.641 210.491 378.297 210.491C379.954 210.491 381.31 211.847 381.31 213.503Z" fill="#5B17E1"/>
<path d="M381.31 198.622C381.31 200.294 379.954 201.635 378.297 201.635C376.626 201.635 375.285 200.279 375.285 198.622C375.285 196.951 376.641 195.61 378.297 195.61C379.954 195.61 381.31 196.951 381.31 198.622Z" fill="#5B17E1"/>
<path d="M381.31 229.017C381.31 230.689 379.954 232.029 378.297 232.029C376.626 232.029 375.285 230.674 375.285 229.017C375.285 227.345 376.641 226.005 378.297 226.005C379.954 225.99 381.31 227.345 381.31 229.017Z" fill="#5B17E1"/>
<path d="M381.31 245.133C381.31 246.805 379.954 248.146 378.297 248.146C376.626 248.146 375.285 246.79 375.285 245.133C375.285 243.461 376.641 242.121 378.297 242.121C379.954 242.121 381.31 243.461 381.31 245.133Z" fill="#5B17E1"/>
<path d="M422.895 318.138H395.513C393.871 318.138 392.546 316.813 392.546 315.171C392.546 313.529 393.871 312.204 395.513 312.204H422.895C424.537 312.204 425.863 313.529 425.863 315.171C425.878 316.813 424.537 318.138 422.895 318.138Z" fill="#E0E0E0"/>
<path d="M422.112 291.614H394.73C393.088 291.614 391.763 290.289 391.763 288.647C391.763 287.005 393.088 285.68 394.73 285.68H422.112C423.754 285.68 425.079 287.005 425.079 288.647C425.094 290.274 423.754 291.614 422.112 291.614Z" fill="#BCBFFD"/>
<path d="M494.108 291.614H436.421C434.885 291.614 433.634 290.289 433.634 288.647C433.634 287.005 434.885 285.68 436.421 285.68H494.108C495.644 285.68 496.894 287.005 496.894 288.647C496.909 290.274 495.659 291.614 494.108 291.614Z" fill="#E0E0E0"/>
<path d="M452.432 304.612H394.745C393.209 304.612 391.958 303.287 391.958 301.645C391.958 300.003 393.209 298.678 394.745 298.678H452.432C453.968 298.678 455.218 300.003 455.218 301.645C455.233 303.272 453.968 304.612 452.432 304.612Z" fill="#E0E0E0"/>
<path d="M381.31 288.632C381.31 290.304 379.954 291.644 378.297 291.644C376.626 291.644 375.285 290.289 375.285 288.632C375.285 286.96 376.641 285.619 378.297 285.619C379.954 285.619 381.31 286.975 381.31 288.632Z" fill="#5B17E1"/>
<path d="M410.515 202.207H393.359C392.561 202.207 391.913 201.559 391.913 200.761V197.914C391.913 197.116 392.561 196.469 393.359 196.469H410.5C411.298 196.469 411.945 197.116 411.945 197.914V200.761C411.961 201.559 411.313 202.207 410.515 202.207Z" fill="#5B17E1"/>
<path d="M422.112 353.578H394.73C393.088 353.578 391.763 352.253 391.763 350.611C391.763 348.969 393.088 347.644 394.73 347.644H422.112C423.754 347.644 425.079 348.969 425.079 350.611C425.094 352.253 423.754 353.578 422.112 353.578Z" fill="#5B17E1"/>
<path d="M466.002 353.578H438.605C436.963 353.578 435.638 352.253 435.638 350.611C435.638 348.969 436.963 347.644 438.605 347.644H466.002C467.644 347.644 468.969 348.969 468.969 350.611C468.969 352.253 467.644 353.578 466.002 353.578Z" fill="#5B17E1"/>
<path d="M381.31 350.611C381.31 352.283 379.954 353.623 378.297 353.623C376.626 353.623 375.285 352.268 375.285 350.611C375.285 348.954 376.641 347.599 378.297 347.599C379.954 347.584 381.31 348.939 381.31 350.611Z" fill="#5B17E1"/>
<path d="M381.31 364.92C381.31 366.592 379.954 367.932 378.297 367.932C376.626 367.932 375.285 366.577 375.285 364.92C375.285 363.248 376.641 361.907 378.297 361.907C379.954 361.907 381.31 363.263 381.31 364.92Z" fill="#5B17E1"/>
<path d="M410.515 368.52H393.359C392.561 368.52 391.913 367.872 391.913 367.074V364.227C391.913 363.429 392.561 362.781 393.359 362.781H410.5C411.298 362.781 411.945 363.429 411.945 364.227V367.074C411.961 367.872 411.313 368.52 410.515 368.52Z" fill="#5B17E1"/>
<path d="M133.54 190.14H83.29C79.82 190.14 77 187.32 77 183.85V114.29C77 110.82 79.82 108 83.29 108H115.16L139.83 133.43V183.85C139.83 187.32 137.01 190.14 133.54 190.14Z" fill="#BCBFFD"/>
<path d="M133.35 190.14H83.48C79.9 190.14 77 187.24 77 183.66V166.46C77 165.78 77.55 165.22 78.24 165.22H138.59C139.27 165.22 139.83 165.77 139.83 166.46V183.66C139.83 187.24 136.92 190.14 133.35 190.14Z" fill="#5B17E1"/>
<g opacity="0.2">
<path d="M115.15 108.01V127.58C115.15 130.81 117.77 133.43 121 133.43H139.82L115.15 108.01Z" fill="white"/>
</g>
<g opacity="0.2">
<path d="M115.41 129.3C115.41 129.3 115.16 134.05 120.57 135.61C120.77 135.67 120.98 135.71 121.19 135.75C123.65 136.19 139.83 139.07 139.83 138.7C139.83 138.3 139.83 133.44 139.83 133.44H121C121 133.43 116.3 133.27 115.41 129.3Z" fill="black"/>
</g>
<path d="M94.98 176.08C94.98 173.13 97.24 171.03 100.28 171.03C101.97 171.03 103.38 171.64 104.3 172.76L102.85 174.1C102.19 173.35 101.37 172.95 100.39 172.95C98.56 172.95 97.26 174.23 97.26 176.08C97.26 177.92 98.56 179.21 100.39 179.21C101.37 179.21 102.19 178.82 102.85 178.05L104.3 179.39C103.38 180.52 101.97 181.14 100.27 181.14C97.24 181.13 94.98 179.02 94.98 176.08Z" fill="#FAFAFA"/>
<path d="M104.97 180L105.74 178.3C106.56 178.9 107.79 179.32 108.96 179.32C110.3 179.32 110.84 178.87 110.84 178.27C110.84 176.44 105.16 177.7 105.16 174.07C105.16 172.41 106.5 171.03 109.28 171.03C110.51 171.03 111.76 171.32 112.67 171.9L111.97 173.62C111.06 173.1 110.13 172.85 109.26 172.85C107.92 172.85 107.4 173.35 107.4 173.97C107.4 175.77 113.08 174.53 113.08 178.12C113.08 179.75 111.73 181.15 108.93 181.15C107.4 181.13 105.84 180.67 104.97 180Z" fill="#FAFAFA"/>
<path d="M113.87 180L114.64 178.3C115.46 178.9 116.69 179.32 117.87 179.32C119.21 179.32 119.75 178.87 119.75 178.27C119.75 176.44 114.07 177.7 114.07 174.07C114.07 172.41 115.41 171.03 118.19 171.03C119.42 171.03 120.68 171.32 121.58 171.9L120.88 173.62C119.97 173.1 119.04 172.85 118.17 172.85C116.83 172.85 116.31 173.35 116.31 173.97C116.31 175.77 121.99 174.53 121.99 178.12C121.99 179.75 120.64 181.15 117.84 181.15C116.3 181.13 114.74 180.67 113.87 180Z" fill="#FAFAFA"/>
<path d="M98.1699 144.45C99.1999 144.76 99.6699 145.42 99.6699 146.96V150.55C99.6699 151.6 100.21 152.21 101.31 152.21H101.71V154.95H100.41C97.5999 154.95 96.1699 153.51 96.1699 150.93V146.88C96.1699 146.16 95.7899 145.82 95.1799 145.82H94.4399V143.08H95.1799C95.7899 143.08 96.1699 142.74 96.1699 142.02V137.96C96.1699 135.38 97.6099 133.94 100.41 133.94H101.71V136.68H101.31C100.21 136.68 99.6699 137.29 99.6699 138.34V141.93C99.6799 143.49 99.2099 144.14 98.1699 144.45Z" fill="#FAFAFA"/>
<path d="M122.37 143.08V145.82H121.63C121.02 145.82 120.64 146.16 120.64 146.88V150.94C120.64 153.52 119.2 154.96 116.4 154.96H115.1V152.22H115.5C116.6 152.22 117.14 151.61 117.14 150.56V146.97C117.14 145.42 117.61 144.77 118.64 144.46C117.61 144.15 117.14 143.49 117.14 141.95V138.36C117.14 137.3 116.6 136.7 115.5 136.7H115.1V133.96H116.4C119.21 133.96 120.64 135.4 120.64 137.98V142.04C120.64 142.76 121.02 143.1 121.63 143.1H122.37V143.08Z" fill="#FAFAFA"/>
<path d="M219.664 350.703H59.0516C56.9793 350.703 55.2977 349.021 55.2977 346.949V265.062C55.2977 262.989 56.9793 261.308 59.0516 261.308H220.399C222.471 261.308 224.152 262.989 224.152 265.062V346.215C224.152 348.69 222.139 350.703 219.664 350.703Z" fill="white"/>
<path d="M224.152 280.504H55.2977V265.417C55.2977 263.143 57.1332 261.308 59.4069 261.308H220.031C222.305 261.308 224.141 263.143 224.141 265.417V280.504H224.152Z" fill="#5B17E1"/>
<path d="M219.404 350.703C219.404 350.679 219.854 350.715 220.695 350.49C221.5 350.253 222.767 349.625 223.56 348.121C223.963 347.375 224.141 346.44 224.081 345.398C224.081 344.356 224.07 343.207 224.07 341.964C224.058 339.489 224.058 336.623 224.046 333.402C224.022 320.506 223.987 301.879 223.951 278.858C223.951 275.98 223.939 273.031 223.939 270.024C223.939 268.52 223.939 266.992 223.939 265.453C224.07 263.96 223.252 262.492 221.891 261.864C221.216 261.533 220.481 261.521 219.676 261.533C218.883 261.533 218.089 261.533 217.284 261.533C215.685 261.533 214.063 261.533 212.429 261.533C209.161 261.533 205.833 261.533 202.446 261.545C188.911 261.557 174.44 261.568 159.223 261.568C128.777 261.58 95.3117 261.58 60.1766 261.592C59.6082 261.592 59.099 261.58 58.6135 261.699C58.1161 261.817 57.6543 262.03 57.2398 262.326C56.4108 262.918 55.8424 263.842 55.6885 264.849C55.6056 265.334 55.6411 265.891 55.6293 266.435V268.07V271.326C55.6293 275.66 55.6293 279.971 55.6293 284.258C55.6293 292.819 55.6293 301.251 55.6293 309.528C55.6293 317.818 55.6293 325.953 55.6174 333.923C55.6174 337.902 55.6174 341.845 55.6174 345.753C55.5345 347.612 56.695 349.412 58.4003 350.064C59.2411 350.431 60.1529 350.395 61.1239 350.395C62.0831 350.395 63.0305 350.395 63.9897 350.395C94.4354 350.419 121.85 350.442 144.882 350.466C167.903 350.502 186.531 350.537 199.415 350.561C205.845 350.585 210.842 350.608 214.241 350.62C215.922 350.632 217.213 350.644 218.101 350.656C218.954 350.679 219.404 350.703 219.404 350.703C219.404 350.703 218.954 350.727 218.089 350.739C217.213 350.75 215.922 350.75 214.229 350.774C210.83 350.786 205.833 350.81 199.403 350.833C186.519 350.857 167.879 350.892 144.87 350.928C121.838 350.952 94.4236 350.964 63.9779 350.999C63.0305 350.999 62.0713 350.999 61.1121 350.999C60.1884 351.011 59.1227 351.046 58.1635 350.632C56.2332 349.898 54.9187 347.837 55.0135 345.789C55.0135 341.893 55.0135 337.949 55.0135 333.958C55.0135 325.989 55.0135 317.853 55.0016 309.564C55.0016 301.275 55.0016 292.843 55.0016 284.293C55.0016 280.018 55.0016 275.708 55.0016 271.362V268.105V266.471C55.0135 265.926 54.9661 265.382 55.0609 264.789C55.2385 263.629 55.9016 262.551 56.8608 261.864C57.3345 261.521 57.8792 261.272 58.4595 261.13C59.0398 260.988 59.6319 261.012 60.1648 261C95.2999 261.012 128.765 261.012 159.211 261.024C174.428 261.036 188.899 261.047 202.434 261.047C205.821 261.047 209.149 261.047 212.417 261.059C214.051 261.059 215.674 261.059 217.272 261.059C218.078 261.059 218.871 261.059 219.664 261.059C220.434 261.036 221.334 261.059 222.08 261.438C223.62 262.125 224.555 263.866 224.401 265.453C224.401 266.992 224.401 268.52 224.401 270.024C224.401 273.031 224.389 275.98 224.389 278.858C224.354 301.879 224.318 320.506 224.295 333.402C224.283 336.623 224.271 339.477 224.271 341.964C224.271 343.207 224.259 344.344 224.259 345.398C224.259 345.919 224.259 346.428 224.152 346.902C224.046 347.375 223.892 347.802 223.691 348.181C222.85 349.708 221.559 350.324 220.73 350.549C219.854 350.762 219.404 350.703 219.404 350.703Z" fill="#5B09D2"/>
<path d="M67.8739 275.554C69.6135 275.554 71.0238 274.144 71.0238 272.404C71.0238 270.664 69.6135 269.254 67.8739 269.254C66.1342 269.254 64.7239 270.664 64.7239 272.404C64.7239 274.144 66.1342 275.554 67.8739 275.554Z" fill="white"/>
<path d="M80.6869 272.404C80.6869 274.145 79.2777 275.554 77.5369 275.554C75.7962 275.554 74.387 274.145 74.387 272.404C74.387 270.663 75.7962 269.254 77.5369 269.254C79.2777 269.254 80.6869 270.663 80.6869 272.404Z" fill="white"/>
<path d="M87.2237 275.554C88.9633 275.554 90.3736 274.144 90.3736 272.404C90.3736 270.664 88.9633 269.254 87.2237 269.254C85.484 269.254 84.0737 270.664 84.0737 272.404C84.0737 274.144 85.484 275.554 87.2237 275.554Z" fill="white"/>
<path d="M103.956 307.551H84.3224C83.15 307.551 82.1908 306.592 82.1908 305.419C82.1908 304.247 83.15 303.288 84.3224 303.288H103.956C105.129 303.288 106.088 304.247 106.088 305.419C106.088 306.604 105.129 307.551 103.956 307.551Z" fill="#5B17E1"/>
<path d="M103.956 318.706H84.3224C83.15 318.706 82.1908 317.747 82.1908 316.574C82.1908 315.402 83.15 314.443 84.3224 314.443H103.956C105.129 314.443 106.088 315.402 106.088 316.574C106.088 317.747 105.129 318.706 103.956 318.706Z" fill="#E0E0E0"/>
<path d="M207.574 307.551H150.637C149.465 307.551 148.506 306.592 148.506 305.419C148.506 304.247 149.465 303.288 150.637 303.288H207.574C208.746 303.288 209.705 304.247 209.705 305.419C209.693 306.604 208.746 307.551 207.574 307.551Z" fill="#E0E0E0"/>
<path d="M103.956 330.228H84.3224C83.15 330.228 82.1908 329.269 82.1908 328.097C82.1908 326.924 83.15 325.965 84.3224 325.965H103.956C105.129 325.965 106.088 326.924 106.088 328.097C106.088 329.269 105.129 330.228 103.956 330.228Z" fill="#BCBFFD"/>
<path d="M193.991 318.706H174.357C173.185 318.706 172.225 317.747 172.225 316.574C172.225 315.402 173.185 314.443 174.357 314.443H193.991C195.163 314.443 196.123 315.402 196.123 316.574C196.123 317.747 195.163 318.706 193.991 318.706Z" fill="#BCBFFD"/>
<path d="M135.397 307.551H115.763C114.59 307.551 113.631 306.592 113.631 305.419C113.631 304.247 114.59 303.288 115.763 303.288H135.397C136.569 303.288 137.528 304.247 137.528 305.419C137.528 306.604 136.581 307.551 135.397 307.551Z" fill="#5B17E1"/>
<path d="M160.691 318.706H115.775C114.602 318.706 113.643 317.747 113.643 316.574C113.643 315.402 114.602 314.443 115.775 314.443H160.691C161.864 314.443 162.823 315.402 162.823 316.574C162.823 317.747 161.864 318.706 160.691 318.706Z" fill="#5B17E1"/>
<path d="M204.755 330.228H115.68C114.555 330.228 113.643 329.269 113.643 328.097C113.643 326.924 114.555 325.965 115.68 325.965H204.755C205.88 325.965 206.792 326.924 206.792 328.097C206.78 329.269 205.868 330.228 204.755 330.228Z" fill="#E0E0E0"/>
<path d="M159.756 338.34H115.775C114.602 338.34 113.643 337.381 113.643 336.208C113.643 335.036 114.602 334.077 115.775 334.077H159.756C160.928 334.077 161.887 335.036 161.887 336.208C161.887 337.381 160.928 338.34 159.756 338.34Z" fill="#E0E0E0"/>
<path d="M74.7067 305.431C74.7067 306.627 73.7357 307.598 72.5396 307.598C71.3436 307.598 70.3725 306.627 70.3725 305.431C70.3725 304.235 71.3436 303.264 72.5396 303.264C73.7357 303.264 74.7067 304.235 74.7067 305.431Z" fill="#5B17E1"/>
<path d="M74.7067 294.762C74.7067 295.958 73.7357 296.929 72.5396 296.929C71.3436 296.929 70.3725 295.958 70.3725 294.762C70.3725 293.566 71.3436 292.594 72.5396 292.594C73.7357 292.594 74.7067 293.566 74.7067 294.762Z" fill="#5B17E1"/>
<path d="M72.5396 318.706C73.7365 318.706 74.7067 317.736 74.7067 316.539C74.7067 315.342 73.7365 314.372 72.5396 314.372C71.3428 314.372 70.3725 315.342 70.3725 316.539C70.3725 317.736 71.3428 318.706 72.5396 318.706Z" fill="#5B17E1"/>
<path d="M72.5396 330.264C73.7365 330.264 74.7067 329.294 74.7067 328.097C74.7067 326.9 73.7365 325.93 72.5396 325.93C71.3428 325.93 70.3725 326.9 70.3725 328.097C70.3725 329.294 71.3428 330.264 72.5396 330.264Z" fill="#5B17E1"/>
<path d="M95.8683 296.313H83.7777C83.15 296.313 82.6408 295.804 82.6408 295.176V293.34C82.6408 292.713 83.15 292.204 83.7777 292.204H95.8683C96.4959 292.204 97.0051 292.713 97.0051 293.34V295.176C97.0051 295.804 96.4959 296.313 95.8683 296.313Z" fill="#5B17E1"/>
<path d="M69.7202 558.665L87.765 576.71" stroke="#BCBFFD" stroke-width="1.1533" stroke-miterlimit="10" stroke-linecap="round" stroke-linejoin="round"/>
<path d="M100.291 560.842L168.227 628.778" stroke="#BCBFFD" stroke-width="1.1533" stroke-miterlimit="10" stroke-linecap="round" stroke-linejoin="round"/>
<path d="M65.6495 526.2L79.4312 539.982" stroke="#BCBFFD" stroke-width="1.1533" stroke-miterlimit="10" stroke-linecap="round" stroke-linejoin="round"/>
<path d="M58.9258 491.083L122.66 554.817" stroke="#6914E7" stroke-width="1.1533" stroke-miterlimit="10" stroke-linecap="round" stroke-linejoin="round"/>
<path d="M108.898 512.662L214.402 618.166" stroke="#BCBFFD" stroke-width="1.1533" stroke-miterlimit="10" stroke-linecap="round" stroke-linejoin="round"/>
<path d="M65.2748 469.038L87.603 491.366" stroke="#BCBFFD" stroke-width="1.1533" stroke-miterlimit="10" stroke-linecap="round" stroke-linejoin="round"/>
<path d="M196.003 571.383L221.359 596.739" stroke="#BCBFFD" stroke-width="1.1533" stroke-miterlimit="10" stroke-linecap="round" stroke-linejoin="round"/>
<path d="M40 415.38L169.331 544.711" stroke="#BCBFFD" stroke-width="1.1533" stroke-miterlimit="10" stroke-linecap="round" stroke-linejoin="round"/>
<path d="M143.742 490.729L270.086 617.072" stroke="#6914E7" stroke-width="1.1533" stroke-miterlimit="10" stroke-linecap="round" stroke-linejoin="round"/>
<path d="M87.927 434.923L117.283 464.269" stroke="#6914E7" stroke-width="1.1533" stroke-miterlimit="10" stroke-linecap="round" stroke-linejoin="round"/>
<path d="M168.258 486.85L249.884 568.477" stroke="#BCBFFD" stroke-width="1.1533" stroke-miterlimit="10" stroke-linecap="round" stroke-linejoin="round"/>
<path d="M84.9297 403.532L145.241 463.844" stroke="#BCBFFD" stroke-width="1.1533" stroke-miterlimit="10" stroke-linecap="round" stroke-linejoin="round"/>
<path d="M235.576 525.785L278.217 568.416" stroke="#6914E7" stroke-width="1.1533" stroke-miterlimit="10" stroke-linecap="round" stroke-linejoin="round"/>
<path d="M121.789 411.998L204.611 494.809" stroke="#6914E7" stroke-width="1.1533" stroke-miterlimit="10" stroke-linecap="round" stroke-linejoin="round"/>
<path d="M194.282 456.097L251.879 513.694" stroke="#BCBFFD" stroke-width="1.1533" stroke-miterlimit="10" stroke-linecap="round" stroke-linejoin="round"/>
<path d="M128.624 390.439L171.701 433.516" stroke="#BCBFFD" stroke-width="1.1533" stroke-miterlimit="10" stroke-linecap="round" stroke-linejoin="round"/>
<path d="M245.469 478.901L267.879 501.3" stroke="#6914E7" stroke-width="1.1533" stroke-miterlimit="10" stroke-linecap="round" stroke-linejoin="round"/>
<path d="M163.083 396.515L219.881 453.302" stroke="#6914E7" stroke-width="1.1533" stroke-miterlimit="10" stroke-linecap="round" stroke-linejoin="round"/>
<path d="M233.835 438.862L247.596 452.624" stroke="#BCBFFD" stroke-width="1.1533" stroke-miterlimit="10" stroke-linecap="round" stroke-linejoin="round"/>
<path d="M209.653 414.691L219.152 424.19" stroke="#BCBFFD" stroke-width="1.1533" stroke-miterlimit="10" stroke-linecap="round" stroke-linejoin="round"/>
</g>
<path d="M296.847 132.373C301.267 124.111 311.255 119.972 321.859 119.493C332.446 119.014 345.706 120.981 350.777 136.787C354.889 149.616 353.775 163.369 357.424 177.909C361.073 192.449 387.028 223.804 363.609 247.734C342.554 269.236 288.641 267.013 279.201 235.384C271.732 210.307 297.549 179.294 298.406 168.449C299.28 157.622 292.016 141.439 296.847 132.373Z" fill="#263238"/>
<path d="M295.819 147.786C297.412 155.09 298.132 162.702 296.641 170.314C296.282 172.213 295.579 174.128 294.688 175.873C293.815 177.635 292.855 179.329 291.913 181.005C289.96 184.358 288.041 187.676 286.277 191.063C282.747 197.82 279.955 204.885 278.585 212.223C277.214 219.544 277.368 227.088 278.927 234.409C277.694 230.868 276.957 227.156 276.58 223.393C276.272 219.63 276.392 215.815 276.888 212.035C277.882 204.44 280.709 197.101 284.255 190.225C286.054 186.787 288.058 183.434 290.028 180.115C292.016 176.78 294.054 173.581 294.911 170.006C295.853 166.431 296.179 162.702 296.247 158.973C296.401 155.244 296.179 151.515 295.819 147.786Z" fill="#263238"/>
<path d="M352.765 147.94C354.392 155.398 355.728 162.907 357.75 170.211C358.795 173.855 359.909 177.464 361.416 180.92C362.855 184.341 364.86 187.642 366.693 191.029C368.509 194.416 370.256 197.871 371.781 201.429C373.254 205.004 374.505 208.682 375.293 212.462C376.012 216.26 376.252 220.177 375.824 224.043C375.207 227.909 373.802 231.655 371.644 234.974C373.34 231.433 374.488 227.755 374.727 223.975C374.916 220.211 374.505 216.465 373.597 212.839C371.678 205.569 368.337 198.709 364.671 192.004C362.907 188.617 360.902 185.316 359.429 181.655C358.007 178.046 356.893 174.351 356.071 170.605C354.358 163.112 353.467 155.535 352.765 147.94Z" fill="#263238"/>
<path d="M211.874 731.604C215.831 732.887 328.883 731.416 333.149 728.627C334.793 727.601 335.53 711.145 335.873 691.234C335.873 691.029 335.873 690.824 335.873 690.618C335.941 686.513 336.01 682.288 336.01 678.012C336.01 677.43 336.01 676.831 336.027 676.25C336.181 647.512 335.736 617.697 335.736 617.697L260.117 618.449L262.395 676.455L262.481 678.747L262.943 690.755L262.995 691.987C262.995 691.987 219.977 711.864 215.608 715.422C211.24 718.963 207.899 730.355 211.874 731.604Z" fill="white"/>
<path d="M245.829 699.702C246.12 699.616 246.274 699.531 246.291 699.445C246.308 699.445 246.12 699.531 245.829 699.702Z" fill="#A060FF"/>
<path d="M211.874 731.604C215.831 732.887 328.866 731.433 333.149 728.627C334.605 727.721 335.359 714.601 335.736 697.717C315.024 702.028 234.745 718.244 232.552 711.385C231.695 708.699 238.548 704.029 242.899 701.412C231.044 707.057 217.887 713.523 215.574 715.422C211.257 718.963 207.899 730.338 211.874 731.604Z" fill="#263238"/>
<path opacity="0.1" d="M282.867 731.433C308.308 730.834 331.247 729.859 333.132 728.627C334.588 727.721 335.342 714.601 335.719 697.717C332.772 698.316 328.626 699.188 323.692 700.163L282.867 731.433Z" fill="black"/>
<path d="M358.915 292.568C358.915 292.568 341.937 483.28 339.179 497.837C338.545 501.156 338.134 519.185 337.877 542.346C337.295 592.894 337.637 684.084 337.637 684.084H257.958C257.958 684.084 260.322 526.096 263.851 497.033C267.38 467.936 289.926 292.568 289.926 292.568H358.915Z" fill="#37474F"/>
<path d="M261.556 670.211C273.993 669.955 270.413 669.852 282.85 669.732C288.932 669.681 328.917 669.322 334.605 670.263C334.725 670.28 334.725 670.502 334.605 670.519C328.917 671.46 288.932 671.118 282.85 671.05C270.413 670.93 273.993 670.827 261.556 670.571C261.333 670.571 261.333 670.228 261.556 670.211Z" fill="#263238"/>
<path d="M322.51 579.91C322.596 568.364 322.681 556.835 322.767 545.288C322.853 534.118 322.836 522.931 323.367 511.761C324.446 489.147 329.037 466.927 332.309 444.57C335.582 422.196 338.305 399.753 340.772 377.293C343.548 352.079 345.98 326.848 348.584 301.617C348.602 301.446 348.876 301.446 348.859 301.617C345.107 346.657 340.909 391.679 334.674 436.445C333.115 447.58 331.419 458.699 329.585 469.784C327.718 481.005 325.885 492.243 324.994 503.602C324.12 514.72 323.983 525.873 323.863 537.009C323.744 548.538 323.624 560.068 323.521 571.597C323.264 597.204 323.024 636.633 322.767 662.257C322.767 662.753 321.996 662.736 321.996 662.24C322.15 639.421 322.322 602.746 322.51 579.91Z" fill="#263238"/>
<path d="M375.721 292.568C375.721 292.568 341.955 483.28 339.179 497.837C338.545 501.156 338.134 519.185 337.877 542.346L337.86 542.414L299.879 292.568H375.721Z" fill="#263238"/>
<path d="M414.113 737.745C418.139 736.65 511.883 673.581 513.922 668.911C514.727 667.15 506.316 652.969 495.677 636.137C495.557 635.966 495.454 635.795 495.334 635.607C493.141 632.134 490.88 628.576 488.533 624.984C488.207 624.488 487.882 623.992 487.574 623.496C471.932 599.377 455.195 574.676 455.195 574.676L392.356 616.671L426.088 663.951L427.424 665.832L434.397 675.634L435.116 676.643C435.116 676.643 410.053 716.807 408.34 722.179C406.661 727.516 410.104 738.857 414.113 737.745Z" fill="white"/>
<path d="M423.518 693.287C423.69 693.065 423.775 692.928 423.758 692.859C423.758 692.859 423.673 692.996 423.518 693.287Z" fill="#A060FF"/>
<path d="M414.13 737.745C418.156 736.65 511.901 673.581 513.939 668.911C514.625 667.423 508.594 656.835 500.183 643.321C487.128 655.706 423.998 715.063 418.362 710.256C417.18 709.23 417.677 706.476 418.756 703.431C413.599 712.069 409.042 719.989 408.34 722.179C406.661 727.516 410.104 738.857 414.13 737.745Z" fill="#263238"/>
<path d="M426.996 676.712L494.975 627.789C494.975 627.789 407.038 510.581 406.627 499.873C406.027 483.93 398.369 418.159 391.945 364.891C391.945 364.891 404.125 336.051 381.323 292.5H289.84C289.84 292.5 295.973 333.947 306.475 360.222C306.475 360.222 314.475 362.702 326.81 369.493C326.81 369.493 334.365 499.479 336.644 514.122C342.691 552.883 426.996 676.712 426.996 676.712Z" fill="#37474F"/>
<path d="M422.285 660.187C432.324 652.849 429.343 654.816 439.451 647.598C444.402 644.057 476.952 620.861 482.143 618.381C482.263 618.33 482.383 618.501 482.28 618.586C478.168 622.606 445.224 645.237 440.205 648.675C429.96 655.706 432.821 653.567 422.49 660.478C422.285 660.615 422.096 660.324 422.285 660.187Z" fill="#263238"/>
<path d="M303.014 358.425C311.255 361.265 319.221 365.285 326.827 369.493C327.118 369.664 326.93 370.126 326.605 369.989C318.587 366.55 310.398 363.266 302.586 359.383C301.969 359.075 302.38 358.203 303.014 358.425Z" fill="#263238"/>
<path d="M300.462 303.465C300.479 303.191 300.976 303.123 300.976 303.43C300.907 312.941 301.524 321.306 302.329 330.184C302.706 334.306 306.029 357.108 313.19 355.449C314.39 355.175 315.006 353.995 315.195 352.182C315.418 350.009 314.595 347.341 314.235 345.186C313.447 340.413 312.796 335.623 312.385 330.8C311.614 321.802 311.58 312.804 312.676 303.824C312.711 303.533 313.139 303.55 313.139 303.858C313.122 316.311 313.447 328.747 315.315 341.097C316.206 347.033 319.204 355.962 312.985 356.869C306.663 357.792 302.569 342.842 301.798 338.754C299.656 327.344 299.571 315.011 300.462 303.465Z" fill="#263238"/>
<path d="M312.985 356.065C313.636 357.587 314.15 359.195 314.595 360.786C314.938 362.035 315.4 363.369 315.263 364.669C315.229 364.925 314.904 364.943 314.767 364.771C313.927 363.711 313.567 362.257 313.105 360.991C312.557 359.537 311.991 358.083 311.477 356.595C311.152 355.637 312.591 355.124 312.985 356.065Z" fill="#263238"/>
<path d="M322.561 207.656C311.614 222.11 281.925 263.745 260.579 262.308C242.3 261.077 205.244 248.504 197.723 244.929C183.778 238.292 205.535 198.607 214.101 201.669C227.721 206.544 246.531 219.835 260.922 221.836C266.798 222.657 279.715 210.119 312.471 196.195C325.148 190.789 330.236 197.512 322.561 207.656Z" fill="white"/>
<path d="M198.665 189.387C191.196 187.984 182.733 185.777 174.886 187.163C167.04 188.531 162.123 199.924 162.586 202.9C163.048 205.877 168.907 223.94 176.788 222.726C184.669 221.494 177.679 207.998 177.73 206.321C177.765 204.645 177.747 202.507 179.255 202.438C180.763 202.353 208.687 210.632 208.687 210.632L198.665 189.387Z" fill="white"/>
<path d="M198.34 190.55C197.894 190.618 175.503 185.589 167.657 186.975C159.811 188.343 154.894 199.736 155.356 202.712C155.819 205.688 161.678 223.752 169.558 222.538C177.439 221.306 170.449 207.81 170.501 206.133C170.535 204.457 170.518 202.319 172.025 202.25C173.533 202.165 201.441 210.444 201.441 210.444L198.34 190.55Z" fill="white"/>
<path d="M172.06 221.101C172.831 219.715 172.711 217.816 172.642 216.26C172.574 214.549 172.163 212.873 171.58 211.282C171.066 209.897 170.227 208.562 169.953 207.108C169.696 205.757 169.935 204.063 170.398 202.781C170.826 201.583 172.043 201.788 173.105 201.977C174.647 202.267 176.189 202.763 177.679 203.242C179.306 203.756 180.917 204.303 182.527 204.833C184.189 205.381 185.919 205.86 187.495 206.629C187.615 206.681 187.581 206.886 187.427 206.852C185.971 206.595 184.566 206.099 183.161 205.671C181.551 205.21 179.957 204.748 178.33 204.32C176.822 203.909 175.332 203.431 173.824 203.037C173.293 202.9 172.197 202.524 171.649 202.746C171.066 202.969 170.998 204.491 170.946 204.987C170.758 206.561 171.237 207.792 171.888 209.195C172.505 210.547 173.036 211.932 173.379 213.369C173.687 214.703 173.876 216.157 173.687 217.509C173.516 218.826 172.814 219.972 172.334 221.186C172.265 221.392 171.974 221.272 172.06 221.101Z" fill="#263238"/>
<path d="M226.521 207.296C226.521 207.296 201.612 190.841 196.455 187.608C186.108 181.107 145.3 171.443 139.869 171.699C134.439 171.973 134.216 183.211 162.021 190.533C176.685 194.382 180.351 201.857 180.763 206.253C181.174 210.649 178.279 219.39 170.929 220.348C163.562 221.289 157.155 211.35 150.234 211.214C143.313 211.077 149.686 222.709 155.545 229.089C161.404 235.469 170.946 240.002 177.662 241.388C184.377 242.774 205.295 248.162 205.295 248.162L226.521 207.296Z" fill="white"/>
<path d="M161.044 216.602C164.128 218.312 167.691 220.587 171.34 220.16C175.109 219.715 177.182 216.91 178.433 213.574C179.718 210.221 180.18 206.544 178.775 203.157C177.508 200.095 175.178 197.597 172.471 195.733C169.13 193.441 165.361 191.918 161.507 190.687C161.335 190.635 161.438 190.379 161.609 190.43C165.224 191.405 176.377 194.074 179.906 202.986C181.345 206.629 180.745 210.17 179.478 213.608C178.313 216.773 176.377 219.955 172.882 220.793C168.599 221.819 164.333 218.877 160.804 216.739C160.684 216.636 160.873 216.516 161.044 216.602Z" fill="#263238"/>
<path d="M228.354 206.287L211.017 254.85C211.017 254.85 250.009 267.252 267.38 263.745C284.752 260.238 311.203 224.111 322.801 208.562C334.417 193.013 323.812 189.027 304.094 198.709C284.375 208.374 263.2 220.793 261.401 220.793C259.585 220.793 228.354 206.287 228.354 206.287Z" fill="#A060FF"/>
<path d="M236.835 211.538C236.526 213.506 235.807 215.473 235.258 217.389C234.71 219.339 234.196 221.289 233.614 223.222C232.5 226.951 231.284 230.645 230.033 234.323C227.515 241.713 224.86 249.068 221.605 256.167C221.536 256.321 221.296 256.219 221.348 256.065C223.746 248.521 226.521 241.097 229.091 233.605C230.359 229.927 231.592 226.232 232.86 222.554C233.494 220.707 234.162 218.877 234.779 217.029C235.396 215.199 235.858 213.232 236.663 211.47C236.715 211.35 236.852 211.436 236.835 211.538Z" fill="#263238"/>
<path d="M286.671 305.894C286.671 305.894 322.836 314.447 391.345 308.545C391.345 308.545 364.551 223.17 342.982 200.146C333.166 189.677 323.572 191.268 315.435 198.008C313.413 199.684 288.247 231.569 286.122 242.688C284.238 252.507 292.238 263.403 292.238 263.403L286.671 305.894Z" fill="#EBEBEB"/>
<path d="M314.235 230.475C314.081 231.689 313.996 232.921 314.184 234.187C314.732 233.023 314.989 231.826 315.178 230.611C315.332 229.397 315.418 228.165 315.229 226.9C314.681 228.046 314.424 229.26 314.235 230.475ZM313.584 288.138C313.79 289.404 313.687 290.635 313.533 291.85C313.345 293.064 313.088 294.262 312.539 295.442C312.334 294.176 312.42 292.945 312.591 291.73C312.779 290.516 313.036 289.301 313.584 288.138ZM295.836 299.205C296.042 300.471 295.939 301.703 295.785 302.917C295.596 304.132 295.339 305.329 294.791 306.51C294.585 305.244 294.671 304.012 294.842 302.798C295.031 301.566 295.288 300.369 295.836 299.205ZM353.364 248.624C353.57 249.89 353.467 251.121 353.313 252.336C353.124 253.55 352.867 254.748 352.319 255.911C352.114 254.645 352.199 253.413 352.371 252.199C352.559 250.984 352.816 249.787 353.364 248.624ZM294.62 261.077C294.825 262.343 294.723 263.574 294.568 264.789C294.38 266.003 294.123 267.201 293.575 268.381C293.369 267.115 293.455 265.883 293.626 264.669C293.815 263.454 294.089 262.24 294.62 261.077ZM336.986 238.531C335.719 238.737 334.485 238.634 333.269 238.48C332.052 238.292 330.853 238.035 329.671 237.488C330.939 237.283 332.172 237.368 333.389 237.539C334.622 237.727 335.821 238.001 336.986 238.531ZM358.298 274.676C357.03 274.881 355.797 274.778 354.581 274.625C353.364 274.436 352.165 274.18 350.983 273.632C352.251 273.427 353.484 273.513 354.7 273.684C355.934 273.872 357.133 274.128 358.298 274.676ZM322.801 271.699C321.534 271.905 320.3 271.802 319.084 271.648C317.867 271.46 316.668 271.203 315.486 270.656C316.754 270.451 317.987 270.536 319.204 270.707C320.437 270.895 321.636 271.169 322.801 271.699ZM387.216 304.919C385.949 305.124 384.715 305.021 383.499 304.867C382.282 304.679 381.083 304.423 379.901 303.875C381.169 303.67 382.402 303.756 383.619 303.927C384.835 304.115 386.051 304.371 387.216 304.919ZM323.041 200.574C321.773 200.779 320.54 200.676 319.324 200.523C318.107 200.334 316.908 200.078 315.743 199.53C317.011 199.325 318.244 199.411 319.461 199.582C320.66 199.77 321.876 200.026 323.041 200.574ZM335.102 207.108C336.147 207.861 336.952 208.802 337.706 209.777C338.425 210.769 339.094 211.812 339.539 213.01C338.494 212.257 337.689 211.316 336.935 210.341C336.215 209.349 335.547 208.323 335.102 207.108ZM367.395 253.242C368.44 253.995 369.245 254.936 369.999 255.911C370.719 256.903 371.387 257.946 371.832 259.144C370.787 258.391 369.982 257.45 369.228 256.475C368.491 255.483 367.823 254.457 367.395 253.242ZM305.841 248.932C306.886 249.684 307.691 250.625 308.445 251.6C309.165 252.592 309.833 253.636 310.278 254.833C309.233 254.081 308.428 253.14 307.674 252.165C306.955 251.19 306.286 250.146 305.841 248.932ZM336.609 283.331C337.654 284.084 338.46 285.025 339.213 286C339.933 286.992 340.601 288.035 341.047 289.233C340.002 288.48 339.196 287.539 338.443 286.564C337.723 285.572 337.055 284.529 336.609 283.331ZM302.603 214.293C302.86 214.583 303.1 214.874 303.34 215.199C304.076 216.191 304.745 217.235 305.19 218.449C304.145 217.697 303.34 216.756 302.586 215.781C302.415 215.541 302.26 215.302 302.072 215.062C302.243 214.806 302.432 214.532 302.603 214.293ZM293.66 240.139C294.414 239.096 295.356 238.292 296.333 237.539C297.327 236.821 298.372 236.154 299.571 235.709C298.817 236.752 297.875 237.556 296.898 238.309C295.905 239.027 294.86 239.695 293.66 240.139ZM371.935 282.989C372.689 281.946 373.631 281.142 374.607 280.389C375.601 279.671 376.646 279.004 377.845 278.559C377.092 279.602 376.149 280.406 375.173 281.159C374.179 281.894 373.151 282.562 371.935 282.989ZM291.947 284.341C292.701 283.297 293.643 282.493 294.62 281.74C295.613 281.022 296.658 280.355 297.858 279.91C297.104 280.954 296.162 281.758 295.185 282.51C294.191 283.246 293.164 283.913 291.947 284.341ZM347.197 230.971C347.951 229.927 348.893 229.123 349.869 228.371C350.863 227.652 351.908 226.985 353.107 226.54C352.353 227.584 351.411 228.388 350.435 229.14C349.441 229.876 348.413 230.543 347.197 230.971ZM324.48 307.502C325.234 306.458 326.176 305.654 327.153 304.902C328.146 304.183 329.191 303.516 330.391 303.071C329.637 304.115 328.695 304.919 327.718 305.671C326.724 306.39 325.679 307.057 324.48 307.502ZM331.23 260.444C331.984 259.4 332.926 258.596 333.903 257.844C334.896 257.125 335.941 256.458 337.141 256.013C336.387 257.057 335.444 257.861 334.468 258.614C333.474 259.349 332.446 260.016 331.23 260.444ZM356.928 298.23C357.681 297.187 358.624 296.383 359.6 295.63C360.594 294.912 361.639 294.245 362.838 293.8C362.084 294.843 361.142 295.647 360.166 296.4C359.172 297.119 358.127 297.803 356.928 298.23Z" fill="#C7C7C7"/>
<path d="M335.958 194.57L318.775 321.939H397.752C397.752 321.939 378.839 240.687 350.161 205.517C342.143 195.716 335.958 194.57 335.958 194.57Z" fill="#A060FF"/>
<path d="M314.715 198.743C314.715 198.743 302.483 230.988 297.858 258.254C292.787 288.138 289.977 317.799 289.977 317.799L284.529 313.454L292.016 263.42C292.016 263.42 284.683 254.799 285.814 242.004C286.739 231.757 314.715 198.743 314.715 198.743Z" fill="#A060FF"/>
<path d="M291.639 229.26C293.146 226.985 294.705 224.71 296.299 222.521C296.556 221.734 296.881 220.981 297.172 220.211C297.669 219.116 298.166 217.987 298.817 216.978C298.526 218.159 298.046 219.27 297.601 220.382C297.446 220.707 297.327 220.998 297.189 221.306C298.8 219.134 300.462 216.978 302.175 214.891C299.023 219.92 295.596 224.761 292.427 229.756C290.816 232.237 289.275 234.751 288.007 237.385C287.596 238.241 287.236 239.113 286.928 240.003C286.294 242.226 285.095 246.828 287.579 253.841C288.401 256.202 289.035 258.614 290.251 260.803C290.337 260.974 290.08 261.111 289.994 260.94C288.778 258.733 287.733 256.253 286.791 253.91C285.865 251.617 285.42 249.051 285.266 246.588C284.838 239.472 288.452 234.734 291.639 229.26Z" fill="#263238"/>
<path d="M335.307 195.63C334.896 197.478 326.228 209.537 317.799 209.229C315.058 209.127 314.938 194.125 314.938 194.125L314.681 193.013L311.032 177.55L329.14 165.661L331.761 164.087C331.761 164.087 332.481 168.381 333.32 173.752C333.354 174.009 333.406 174.248 333.44 174.522C333.491 174.83 333.56 175.103 333.594 175.394C333.731 176.198 333.868 177.002 333.988 177.823C334.074 178.439 334.177 179.055 334.245 179.705C334.331 180.355 334.417 181.005 334.502 181.655C335.256 188.121 335.479 194.843 335.307 195.63Z" fill="white"/>
<path d="M333.32 173.752C329.003 186.154 319.187 191.286 314.681 193.03L311.032 177.567L329.14 165.678L331.761 164.105C331.761 164.087 332.481 168.381 333.32 173.752Z" fill="#263238"/>
<path d="M290.183 149.034C284.615 176.369 300.376 182.784 306.286 183.981C311.649 185.059 330.031 188.07 338.408 161.453C346.768 134.837 335.804 123.615 323.675 120.485C311.529 117.372 295.733 121.699 290.183 149.034Z" fill="white"/>
<path d="M294.997 145.1C295.648 145.134 296.264 145.066 296.932 145.049C297.669 145.015 298.269 145.066 298.885 144.621C299.228 144.382 299.314 143.783 299.091 143.424C298.611 142.62 297.686 142.432 296.795 142.432C295.819 142.432 295.082 142.671 294.328 143.287C293.609 143.869 294.123 145.049 294.997 145.1Z" fill="#263238"/>
<path d="M313.859 148.436C313.225 148.248 312.676 147.957 312.077 147.717C311.392 147.427 310.826 147.273 310.398 146.623C310.175 146.28 310.295 145.682 310.621 145.425C311.357 144.844 312.282 144.98 313.122 145.288C314.03 145.63 314.647 146.109 315.126 146.948C315.589 147.769 314.698 148.692 313.859 148.436Z" fill="#263238"/>
<path d="M308.291 154.389C308.325 154.32 308.411 154.508 308.394 154.577C307.948 156.424 307.76 158.614 309.319 159.572C309.37 159.606 309.336 159.691 309.284 159.674C307.28 158.99 307.571 156.082 308.291 154.389Z" fill="#263238"/>
<path d="M310.347 152.798C313.396 153.191 312.402 159.23 309.576 158.87C306.8 158.528 307.794 152.473 310.347 152.798Z" fill="#263238"/>
<path d="M311.494 153.311C311.974 153.739 312.385 154.423 313.019 154.594C313.739 154.782 314.407 154.252 314.989 153.722C315.058 153.67 315.092 153.722 315.075 153.807C314.904 154.97 314.253 156.082 312.985 156.048C311.82 156.014 311.169 154.868 311.083 153.653C311.049 153.431 311.289 153.14 311.494 153.311Z" fill="#263238"/>
<path d="M297.926 152.284C297.926 152.216 297.772 152.353 297.755 152.421C297.515 154.303 296.932 156.424 295.134 156.783C295.082 156.8 295.065 156.886 295.134 156.886C297.241 156.937 297.995 154.115 297.926 152.284Z" fill="#263238"/>
<path d="M296.539 150.061C293.558 149.359 292.359 155.381 295.134 156.031C297.858 156.663 299.057 150.659 296.539 150.061Z" fill="#263238"/>
<path d="M295.219 150.215C294.688 150.437 294.089 150.933 293.523 150.848C292.855 150.762 292.495 150.009 292.204 149.308C292.17 149.24 292.118 149.274 292.101 149.359C291.844 150.506 291.981 151.771 293.044 152.216C294.02 152.61 294.945 151.771 295.442 150.677C295.528 150.488 295.425 150.129 295.219 150.215Z" fill="#263238"/>
<path d="M305.978 169.818C305.481 170.211 304.95 170.759 304.265 170.742C303.597 170.725 302.86 170.331 302.295 170.023C302.243 169.989 302.175 170.04 302.209 170.109C302.62 170.896 303.597 171.46 304.488 171.409C305.361 171.357 305.875 170.673 306.166 169.921C306.184 169.818 306.047 169.767 305.978 169.818Z" fill="#263238"/>
<path d="M299.262 165.49C299.262 165.49 300.119 167.509 301.712 168.552C302.295 168.945 302.963 169.202 303.734 169.185C305.327 169.151 305.687 167.799 305.687 166.568C305.704 165.558 305.447 164.618 305.447 164.618C305.447 164.618 302.809 166.106 299.262 165.49Z" fill="#263238"/>
<path d="M301.712 168.552C302.295 168.945 302.963 169.202 303.734 169.185C305.327 169.151 305.687 167.799 305.687 166.568C304.076 166.328 302.226 167.03 301.712 168.552Z" fill="#FF9CBD"/>
<path d="M299.331 161.676C299.331 161.676 298.457 164.395 298.217 165.713C298.2 165.832 298.509 165.952 298.954 166.055C298.971 166.072 298.988 166.072 299.005 166.072C301.267 166.842 303.768 166.448 305.515 164.806C305.635 164.686 305.481 164.532 305.344 164.584C303.374 165.559 301.404 165.541 299.331 165.216C299.297 164.84 300.993 160.598 300.787 160.547C300.085 160.358 298.577 160.598 297.669 160.701C299.331 154.97 301.918 149.548 303.494 143.817C303.545 143.612 303.254 143.492 303.168 143.663C300.068 149.154 297.995 155.706 296.127 161.573C295.87 162.326 298.766 161.812 299.331 161.676Z" fill="#263238"/>
<path d="M308.445 125.069C308.445 125.069 307.331 129.226 308.77 132.219C311.717 138.395 319.152 136.787 321.705 139.233C324.086 141.525 323.247 146.263 325.388 148.555C328.369 151.737 332.446 150.505 332.926 152.644C333.423 154.782 334.811 161.573 337.535 162.445C340.258 163.318 352.85 118.193 317.268 119.527C317.268 119.527 312.385 117.526 304.796 121.323C296.418 125.514 292.752 139.233 292.752 139.233C292.752 139.233 292.924 139.045 294.157 137.984C295.87 136.479 296.538 135.076 297.806 134.101C299.793 132.562 300.873 133.16 302.929 131.655C306.081 129.363 308.445 125.069 308.445 125.069Z" fill="#263238"/>
<path d="M308.993 123.102C308.445 124.864 308.068 126.694 307.948 128.525C307.811 130.338 307.897 132.237 308.702 133.81C309.507 135.333 311.117 136.376 312.779 136.992C314.475 137.625 316.343 137.796 318.159 138.531C319.049 138.925 319.923 139.455 320.54 140.328C321.139 141.183 321.379 142.158 321.585 143.064C321.962 144.895 322.339 146.691 323.538 147.991C324.72 149.291 326.485 150.078 328.301 150.009C330.099 150.009 332.069 149.513 333.817 150.317C332.018 149.667 330.185 150.3 328.301 150.437C326.382 150.608 324.412 149.855 323.024 148.47C321.568 147.067 321.174 145.014 320.78 143.27C320.574 142.38 320.317 141.508 319.837 140.841C319.375 140.174 318.604 139.712 317.799 139.37C316.171 138.685 314.287 138.463 312.488 137.779C311.597 137.437 310.723 136.992 309.953 136.393C309.199 135.812 308.462 135.076 308.085 134.152C307.263 132.339 307.28 130.372 307.52 128.525C307.794 126.626 308.308 124.83 308.993 123.102Z" fill="#263238"/>
<path d="M308.308 124.727C307.965 126.421 307.366 128.063 306.578 129.619C305.807 131.176 304.59 132.63 302.997 133.519C302.209 133.981 301.301 134.204 300.53 134.46C299.793 134.717 299.023 135.179 298.611 135.743C298.149 136.393 297.703 137.214 297.052 137.83C296.401 138.446 295.613 138.891 294.791 139.147C295.528 138.72 296.23 138.206 296.727 137.539C297.275 136.906 297.583 136.154 298.029 135.367C298.56 134.494 299.382 134.067 300.222 133.69C301.078 133.365 301.849 133.177 302.552 132.75C303.974 131.946 305.07 130.697 305.944 129.243C306.852 127.84 307.588 126.284 308.308 124.727Z" fill="#263238"/>
<path d="M336.387 171.545C335.907 171.665 335.479 171.717 335.068 171.734C334.588 171.768 334.142 171.717 333.748 171.614C333.132 171.477 332.618 171.22 332.207 170.913C331.83 170.639 331.504 170.314 331.247 169.989C330.596 169.151 330.373 168.312 330.373 168.312L332.755 161.077C332.755 161.077 339.813 153.123 343.479 155.723C347.197 158.34 341.201 170.365 336.387 171.545Z" fill="white"/>
<path d="M341.715 159.127C341.783 159.127 341.8 159.229 341.732 159.246C338.34 160.187 336.301 162.993 334.742 165.952C335.839 164.874 337.226 164.361 338.7 165.695C338.785 165.764 338.682 165.883 338.597 165.849C337.312 165.422 336.318 165.541 335.307 166.499C334.588 167.184 334.04 168.073 333.491 168.894C333.303 169.168 332.806 168.945 332.943 168.638C332.96 168.62 332.96 168.586 332.978 168.569C333.372 164.43 337.226 159.041 341.715 159.127Z" fill="#263238"/>
<path d="M336.147 170.331C335.924 171.015 335.205 171.374 334.519 171.169C333.834 170.947 333.474 170.228 333.68 169.544C333.903 168.86 334.622 168.501 335.307 168.706C335.993 168.928 336.37 169.664 336.147 170.331Z" fill="white"/>
<path d="M339.008 168.706C338.854 169.185 338.34 169.441 337.86 169.287C337.38 169.133 337.123 168.62 337.278 168.141C337.432 167.662 337.946 167.406 338.425 167.56C338.905 167.697 339.162 168.227 339.008 168.706Z" fill="white"/>
<path d="M349.355 207.998C364.448 233.998 392.013 294.638 379.216 305.877C358.178 324.368 311.186 336.752 296.727 338.993C290.491 339.968 275.175 293.475 281.308 290.67C288.675 287.317 338.562 277.96 338.888 273.855C339.076 271.528 336.233 251.463 334.896 225.993C333.372 196.451 342.16 195.596 349.355 207.998Z" fill="white"/>
<path d="M303.562 290.635C303.562 290.635 286.037 282.784 274.336 278.2C267.809 275.634 256.228 272.247 250.557 272.555C242.094 273.017 206.991 280.338 208.584 288.874C210.023 296.605 239.387 286.479 239.387 286.479C239.387 286.479 208.859 294.074 212.319 303.054C215.763 312.035 247.422 296.212 247.422 296.212C247.422 296.212 216.225 304.713 221.262 313.42C225.065 319.989 254.532 307.262 254.532 307.262C254.532 307.262 227.772 314.755 231.387 321.682C235.378 329.346 263.32 319.305 263.32 319.305C275.484 335.384 287.853 338.07 296.881 338.925C299.091 339.147 303.562 290.635 303.562 290.635Z" fill="white"/>
<path d="M249.786 283.177C246.171 283.947 242.505 284.683 238.959 285.76C235.413 286.838 231.918 288.053 228.491 289.455C220.097 292.893 215.386 296.366 215.694 296.178C223.129 291.867 235.738 287.796 239.284 286.718C242.814 285.641 246.291 284.392 249.82 283.297C249.923 283.28 249.872 283.16 249.786 283.177Z" fill="#263238"/>
<path d="M253.932 295.87C249.358 297.05 244.767 298.042 240.244 299.411C235.738 300.779 231.592 302.473 227.189 304.149C226.847 304.286 227.035 304.423 227.378 304.303C231.832 302.798 236.081 301.771 240.569 300.317C245.041 298.88 249.478 297.255 253.983 295.972C254.035 295.955 254 295.853 253.932 295.87Z" fill="#263238"/>
<path d="M259.448 306.116C252.356 307.553 245.555 310.29 238.925 313.129C238.599 313.266 238.856 313.42 239.199 313.301C245.983 310.837 251.277 308.853 259.5 306.356C259.62 306.321 259.603 306.082 259.448 306.116Z" fill="#263238"/>
<path d="M298.834 284.341L306.166 339.951C306.166 339.951 377.537 318.449 382.522 302.849C387.525 287.249 369.485 240.978 352.953 212.155C336.438 183.331 333.594 210.82 333.783 221.819C333.971 232.818 337.603 271.169 337.603 271.169L298.834 284.341Z" fill="#A060FF"/>
<path d="M307.468 285.316C308.137 287.197 308.428 289.267 308.856 291.217C309.302 293.184 309.764 295.152 310.175 297.119C310.963 300.933 311.649 304.748 312.3 308.58C313.584 316.277 314.749 324.009 315.246 331.809C315.263 331.98 314.989 331.997 314.955 331.843C313.499 324.06 312.402 316.226 311.117 308.409C310.484 304.577 309.833 300.728 309.199 296.896C308.873 294.981 308.599 293.048 308.274 291.132C307.948 289.233 307.434 287.283 307.297 285.35C307.28 285.213 307.434 285.213 307.468 285.316Z" fill="#263238"/>
<path d="M314.51 278.935C318.604 277.789 337.209 270.827 337.209 270.81C335.993 261.915 335.444 252.918 334.879 243.971C334.674 243.031 334.451 242.073 334.262 241.132C333.92 239.49 333.68 237.83 333.337 236.171C333.32 236.137 333.389 236.12 333.406 236.154C333.834 237.779 334.331 239.387 334.691 241.012C334.691 241.029 334.691 241.063 334.708 241.08C334.554 238.224 334.399 235.384 334.262 232.528C334.262 232.391 334.485 232.374 334.502 232.493C336.061 245.186 338.288 271.152 337.929 271.323C334.211 273.085 318.655 277.687 314.664 279.004C314.51 279.089 314.355 278.987 314.51 278.935Z" fill="#263238"/>
<path d="M355.711 321.785C357.339 321.084 358.881 320.109 360.422 319.236C361.981 318.347 363.506 317.406 365.014 316.448C368.149 314.464 371.215 312.36 374.128 310.051C376.903 307.861 379.627 305.603 380.912 302.182C382.197 298.727 382.282 294.861 382.077 291.217C381.631 283.571 379.404 276.027 377.177 268.74C374.984 261.573 372.535 254.474 369.708 247.529C368.149 243.68 366.504 239.866 364.774 236.103C363.009 232.271 360.988 228.576 359.189 224.762C359.103 224.573 359.36 224.419 359.48 224.608C361.57 227.875 363.318 231.364 365.065 234.82C365.613 235.914 366.162 237.026 366.71 238.138C366.641 237.95 366.59 237.762 366.521 237.574C366.093 236.205 365.665 234.82 365.236 233.451C365.185 233.297 365.425 233.229 365.476 233.383C366.213 235.572 366.95 237.762 367.669 239.969C367.703 240.071 367.823 240.328 367.909 240.653C368.646 242.192 369.382 243.749 370.068 245.323C373.134 252.302 375.909 259.418 378.257 266.671C380.672 274.129 382.985 281.809 383.653 289.644C383.979 293.39 383.961 297.307 383.019 300.95C382.111 304.457 380.09 307.091 377.314 309.349C374.179 311.915 370.821 314.259 367.361 316.363C365.562 317.457 363.695 318.45 361.81 319.373C359.857 320.331 357.801 321.084 355.831 322.025C355.677 322.093 355.557 321.854 355.711 321.785Z" fill="#263238"/>
<path d="M314.784 193.492L318.81 206.27L335.427 191.764L339.419 197.136C339.419 197.136 322.424 220.895 322.407 219.749L318.107 208.682L310.158 215.541L312.197 196.93L314.784 193.492Z" fill="#EBEBEB"/>
<path d="M310.655 206.287C311.1 203.225 311.443 200.129 312.025 197.084C312.043 196.982 312.214 196.947 312.231 197.067C312.625 200.078 310.878 211.778 310.672 214.601C310.689 214.583 310.689 214.583 310.706 214.566C311.032 214.275 318.056 208.545 318.107 208.648C319.084 210.427 322.236 218.501 322.442 219.219C325.131 215.439 335.376 201.754 338.494 198.23C338.58 198.128 338.751 198.23 338.665 198.35C336.233 202.37 322.647 220.81 322.459 220.741C322.322 220.827 318.398 210.889 317.97 209.041C316.754 210.307 309.627 216.824 309.644 216.362C309.764 213.3 310.21 209.366 310.655 206.287Z" fill="#263238"/>
<defs>
<linearGradient id="paint0_linear_2302_261" x1="289.652" y1="22" x2="289.652" y2="674" gradientUnits="userSpaceOnUse">
<stop stop-color="#BCBFFD"/>
<stop offset="1" stop-color="#6A10E7"/>
</linearGradient>
<clipPath id="clip0_2302_261">
<rect width="128" height="128" fill="white" transform="translate(412)"/>
</clipPath>
<clipPath id="clip1_2302_261">
<rect width="535" height="499" fill="white" transform="matrix(-1 0 0 1 555 80)"/>
</clipPath>
</defs>
</svg>
