<svg width="34" height="34" viewBox="0 0 34 34" fill="none" xmlns="http://www.w3.org/2000/svg">
<path fill-rule="evenodd" clip-rule="evenodd" d="M16.9953 0.293701C7.62665 0.293701 -7.62939e-06 7.84928 -7.62939e-06 17.1306C-7.62939e-06 26.412 7.62665 33.9676 16.9953 33.9676C26.364 33.9676 33.9906 26.412 33.9906 17.1306C33.9906 7.84928 26.3852 0.293701 16.9953 0.293701ZM16.9953 29.7583C9.9635 29.7583 4.24882 24.0969 4.24882 17.1306C4.24882 10.1644 9.9635 4.50293 16.9953 4.50293C24.0271 4.50293 29.7418 10.1644 29.7418 17.1306C29.7418 24.0969 24.0484 29.7583 16.9953 29.7583ZM14.8709 19.2353L16.9953 25.5491L23.3686 10.8168L8.49766 17.1306L14.8709 19.2353Z" fill="#6A10E7"/>
</svg>
