<svg width="24" height="24" viewBox="0 0 24 24" fill="none" xmlns="http://www.w3.org/2000/svg">
<path fill-rule="evenodd" clip-rule="evenodd" d="M19.8219 12.0048C19.2814 12.0048 18.8382 12.4001 18.7626 12.9382C18.2438 16.518 14.8066 19.1536 10.9587 18.341C9.6076 18.0664 8.41865 17.3307 7.52153 16.3314H9.11041C9.70489 16.3314 10.1913 15.8482 10.1913 15.2552C10.1913 14.6622 9.70489 14.1791 9.11041 14.1791H4.78693C4.19245 14.1791 3.70605 14.6622 3.70605 15.2552V19.5708C3.70605 20.1638 4.19245 20.647 4.78693 20.647C5.38141 20.647 5.8678 20.1638 5.8678 19.5708V17.704C7.45668 19.5049 9.76973 20.647 12.3422 20.647C16.6873 20.647 20.2974 17.4185 20.8919 13.2347C21 12.5868 20.4812 12.0048 19.8219 12.0048ZM19.9083 3.36268C19.3138 3.36268 18.8274 3.84582 18.8274 4.43881V6.29462C17.0008 4.21919 14.2121 3.03324 11.1641 3.42856C7.45667 3.93369 4.34376 6.90958 3.80333 10.7749C3.71686 11.4228 4.23568 11.9938 4.8842 11.9938C5.41383 11.9938 5.86777 11.5985 5.94343 11.0714C6.38659 7.93078 9.0996 5.51494 12.353 5.51494C14.2662 5.51494 15.9956 6.34954 17.1737 7.67825H15.5956C15.0012 7.67825 14.5148 8.1614 14.5148 8.75438C14.5148 9.34737 15.0012 9.83058 15.5956 9.83058H19.9191C20.2002 9.83058 20.4487 9.72076 20.6433 9.54506C20.8595 9.3474 21 9.06185 21 8.74339V4.42781C20.9892 3.84581 20.5028 3.36268 19.9083 3.36268Z" fill="white"/>
</svg>
