<svg width="69" height="70" viewBox="0 0 69 70" fill="none" xmlns="http://www.w3.org/2000/svg">
<path d="M68.5405 27.392C68.4337 19.8791 64.9758 14.1 58.2603 10.2159C54.2417 7.89085 49.916 5.51201 44.6691 2.72998C37.78 -0.898765 30.7975 -0.912204 23.9218 2.7031C19.1155 5.22978 14.4694 7.78334 10.117 10.31C4.01565 13.8447 0.544415 19.2609 0.103836 25.9674C-0.0296729 28.0237 -0.0029711 30.0531 0.0370816 32.0421C0.0504324 32.862 0.0637833 33.7221 0.0637833 34.5554C0.0637833 35.4559 0.0504324 36.3832 0.0370816 37.2702C-0.0029711 39.3265 -0.0430238 41.45 0.103836 43.6004C0.517713 50.1724 3.84208 55.4811 9.70312 58.962C14.4026 61.7575 19.3692 64.4858 24.4559 67.0797C27.62 68.6924 30.9043 69.5123 34.2287 69.5123C37.6866 69.5123 41.1311 68.6252 44.4688 66.8915C49.0749 64.4858 53.721 61.9322 58.287 59.2846C64.9758 55.4005 68.4337 49.6214 68.5271 42.0817C68.6072 37.0686 68.6072 32.1228 68.5405 27.392ZM56.8318 42.2564C56.7517 45.4819 55.3365 47.8608 52.4927 49.5273C48.3406 51.9465 43.7746 54.4732 38.541 57.2149C35.684 58.7201 32.8936 58.7201 30.0365 57.2283C24.9498 54.5807 20.3838 52.0674 16.0982 49.5542C13.1877 47.8473 11.7725 45.4147 11.7592 42.1354C11.7592 40.442 11.7592 38.7352 11.7592 37.0417V31.6793C11.7592 30.2412 11.7592 28.7897 11.7592 27.3517C11.7725 24.0992 13.2144 21.6801 16.1516 19.9463C21.0647 17.0568 26.0713 14.3823 29.8763 12.3797C31.3449 11.6002 32.8002 11.2239 34.2421 11.2239C35.6839 11.2239 37.1258 11.6137 38.5944 12.3797C43.8413 15.1483 48.4073 17.6616 52.5461 20.0807C55.3231 21.6935 56.7116 24.0186 56.8051 27.1635C56.9519 31.8002 56.9519 36.7461 56.8318 42.2564Z" fill="#BCBFFD"/>
<path d="M50.1298 23.0644C49.1418 20.8199 47.2593 19.5432 44.7226 19.4894C40.0365 19.3953 35.3503 19.4088 30.6642 19.4625C23.3479 19.5566 17.9808 24.9594 17.9675 31.9346C17.9675 34.3672 17.9675 34.9855 17.9675 37.4181C17.9675 37.4181 29.7162 37.4315 29.7162 37.445C29.7162 37.2299 29.7162 37.0552 29.7162 36.867C29.7162 35.308 29.7162 33.749 29.7162 32.19C29.7162 31.1417 30.01 30.8595 31.0914 30.8595C35.5639 30.8595 40.0365 30.8595 44.509 30.8595C46.2713 30.8595 47.7934 30.2816 48.9682 29.0317C50.6237 27.2979 51.091 25.2551 50.1298 23.0644Z" fill="#BCBFFD"/>
<path d="M50.6234 33.1577C50.6234 33.1577 38.8746 33.1443 38.8746 33.1309C38.8746 33.3459 38.8746 33.5206 38.8746 33.7088C38.8746 35.2678 38.8746 36.8268 38.8746 38.3858C38.8746 39.4341 38.5809 39.7164 37.4995 39.7164C33.0269 39.7164 28.5544 39.7164 24.0818 39.7164C22.3195 39.7164 20.7975 40.2943 19.6226 41.5442C17.9671 43.2913 17.4998 45.3342 18.4611 47.5249C19.4491 49.7693 21.3315 51.0461 23.8682 51.0999C28.5544 51.1939 33.2405 51.1805 37.9267 51.1267C45.243 51.0327 50.61 45.6299 50.6234 38.6546C50.6234 36.2086 50.6234 35.6038 50.6234 33.1577Z" fill="#BCBFFD"/>
</svg>
