<svg width="284" height="190" viewBox="0 0 284 190" fill="none" xmlns="http://www.w3.org/2000/svg">
<g clip-path="url(#clip0_2_47)">
<mask id="mask0_2_47" style="mask-type:luminance" maskUnits="userSpaceOnUse" x="41" y="0" width="189" height="189">
<path d="M229.53 0.5H41.5V188.53H229.53V0.5Z" fill="white"/>
</mask>
<g mask="url(#mask0_2_47)">
<path d="M129.04 185.18C129.81 184.41 131.05 184.41 131.82 185.18C132.59 185.95 132.59 187.19 131.82 187.96C131.05 188.73 129.81 188.73 129.04 187.96C128.27 187.19 128.27 185.94 129.04 185.18Z" fill="#BCBFFD"/>
<path d="M107.3 163.44C108.07 162.67 109.31 162.67 110.08 163.44C110.85 164.21 110.85 165.45 110.08 166.22C109.31 166.99 108.07 166.99 107.3 166.22C106.53 165.45 106.53 164.2 107.3 163.44Z" fill="#BCBFFD"/>
<path d="M85.56 141.7C86.33 140.93 87.57 140.93 88.34 141.7C89.11 142.47 89.11 143.71 88.34 144.48C87.57 145.25 86.33 145.25 85.56 144.48C84.79 143.71 84.79 142.46 85.56 141.7Z" fill="#BCBFFD"/>
<path d="M65.2 123.3C66.2825 123.3 67.16 122.422 67.16 121.34C67.16 120.257 66.2825 119.38 65.2 119.38C64.1175 119.38 63.24 120.257 63.24 121.34C63.24 122.422 64.1175 123.3 65.2 123.3Z" fill="#BCBFFD"/>
<path d="M42.07 98.2098C42.84 97.4398 44.08 97.4398 44.85 98.2098C45.62 98.9798 45.62 100.22 44.85 100.99C44.08 101.76 42.84 101.76 42.07 100.99C41.31 100.22 41.31 98.9798 42.07 98.2098Z" fill="#BCBFFD"/>
<path d="M148.47 165.75C149.24 164.98 150.48 164.98 151.25 165.75C152.02 166.52 152.02 167.76 151.25 168.53C150.48 169.3 149.24 169.3 148.47 168.53C147.7 167.76 147.7 166.52 148.47 165.75Z" fill="#BCBFFD"/>
<path d="M126.73 144.01C127.5 143.24 128.74 143.24 129.51 144.01C130.28 144.78 130.28 146.02 129.51 146.79C128.74 147.56 127.5 147.56 126.73 146.79C125.96 146.02 125.96 144.78 126.73 144.01Z" fill="#BCBFFD"/>
<path d="M104.98 122.27C105.75 121.5 106.99 121.5 107.76 122.27C108.53 123.04 108.53 124.28 107.76 125.05C106.99 125.82 105.75 125.82 104.98 125.05C104.22 124.28 104.22 123.03 104.98 122.27Z" fill="#BCBFFD"/>
<path d="M84.63 103.88C85.7125 103.88 86.59 103.002 86.59 101.92C86.59 100.837 85.7125 99.96 84.63 99.96C83.5475 99.96 82.67 100.837 82.67 101.92C82.67 103.002 83.5475 103.88 84.63 103.88Z" fill="#BCBFFD"/>
<path d="M62.89 82.13C63.9725 82.13 64.85 81.2524 64.85 80.17C64.85 79.0875 63.9725 78.21 62.89 78.21C61.8075 78.21 60.93 79.0875 60.93 80.17C60.93 81.2524 61.8075 82.13 62.89 82.13Z" fill="#BCBFFD"/>
<path d="M169.28 149.67C170.362 149.67 171.24 148.792 171.24 147.71C171.24 146.628 170.362 145.75 169.28 145.75C168.198 145.75 167.32 146.628 167.32 147.71C167.32 148.792 168.198 149.67 169.28 149.67Z" fill="#BCBFFD"/>
<path d="M147.54 127.93C148.622 127.93 149.5 127.052 149.5 125.97C149.5 124.888 148.622 124.01 147.54 124.01C146.458 124.01 145.58 124.888 145.58 125.97C145.58 127.052 146.458 127.93 147.54 127.93Z" fill="#BCBFFD"/>
<path d="M124.41 102.84C125.18 102.07 126.42 102.07 127.19 102.84C127.96 103.61 127.96 104.85 127.19 105.62C126.42 106.39 125.18 106.39 124.41 105.62C123.65 104.85 123.65 103.61 124.41 102.84Z" fill="#BCBFFD"/>
<path d="M102.67 81.1C103.44 80.33 104.68 80.33 105.45 81.1C106.22 81.87 106.22 83.11 105.45 83.88C104.68 84.65 103.44 84.65 102.67 83.88C101.9 83.11 101.9 81.87 102.67 81.1Z" fill="#BCBFFD"/>
<path d="M80.93 59.36C81.7 58.59 82.94 58.59 83.71 59.36C84.48 60.13 84.48 61.37 83.71 62.14C82.94 62.91 81.7 62.91 80.93 62.14C80.16 61.37 80.16 60.13 80.93 59.36Z" fill="#BCBFFD"/>
<path d="M187.32 126.89C188.09 126.12 189.33 126.12 190.1 126.89C190.87 127.66 190.87 128.9 190.1 129.67C189.33 130.44 188.09 130.44 187.32 129.67C186.56 128.9 186.56 127.66 187.32 126.89Z" fill="#BCBFFD"/>
<path d="M165.58 105.15C166.35 104.38 167.59 104.38 168.36 105.15C169.13 105.92 169.13 107.16 168.36 107.93C167.59 108.7 166.35 108.7 165.58 107.93C164.81 107.16 164.81 105.92 165.58 105.15Z" fill="#BCBFFD"/>
<path d="M143.84 83.41C144.61 82.64 145.85 82.64 146.62 83.41C147.39 84.18 147.39 85.42 146.62 86.19C145.85 86.96 144.61 86.96 143.84 86.19C143.07 85.42 143.07 84.18 143.84 83.41Z" fill="#BCBFFD"/>
<path d="M123.49 65.0201C124.573 65.0201 125.45 64.1426 125.45 63.0601C125.45 61.9776 124.573 61.1001 123.49 61.1001C122.408 61.1001 121.53 61.9776 121.53 63.0601C121.53 64.1426 122.408 65.0201 123.49 65.0201Z" fill="#BCBFFD"/>
<path d="M100.36 39.93C101.13 39.16 102.37 39.16 103.14 39.93C103.91 40.7 103.91 41.94 103.14 42.71C102.37 43.48 101.13 43.48 100.36 42.71C99.59 41.94 99.59 40.7 100.36 39.93Z" fill="#BCBFFD"/>
<path d="M206.75 107.47C207.52 106.7 208.76 106.7 209.53 107.47C210.3 108.24 210.3 109.48 209.53 110.25C208.76 111.02 207.52 111.02 206.75 110.25C205.98 109.47 205.98 108.23 206.75 107.47Z" fill="#BCBFFD"/>
<path d="M185.01 85.7298C185.78 84.9598 187.02 84.9598 187.79 85.7298C188.56 86.4998 188.56 87.7398 187.79 88.5098C187.02 89.2798 185.78 89.2798 185.01 88.5098C184.24 87.7298 184.24 86.4898 185.01 85.7298Z" fill="#BCBFFD"/>
<path d="M163.27 63.9798C164.04 63.2098 165.28 63.2098 166.05 63.9798C166.82 64.7498 166.82 65.9898 166.05 66.7598C165.28 67.5298 164.04 67.5298 163.27 66.7598C162.5 65.9898 162.5 64.7498 163.27 63.9798Z" fill="#BCBFFD"/>
<path d="M142.92 45.5899C144.002 45.5899 144.88 44.7124 144.88 43.6299C144.88 42.5474 144.002 41.6699 142.92 41.6699C141.838 41.6699 140.96 42.5474 140.96 43.6299C140.96 44.7124 141.838 45.5899 142.92 45.5899Z" fill="#BCBFFD"/>
<path d="M121.17 23.8499C122.253 23.8499 123.13 22.9724 123.13 21.8899C123.13 20.8075 122.253 19.9299 121.17 19.9299C120.088 19.9299 119.21 20.8075 119.21 21.8899C119.21 22.9724 120.088 23.8499 121.17 23.8499Z" fill="#BCBFFD"/>
<path d="M227.57 91.39C228.652 91.39 229.53 90.5124 229.53 89.43C229.53 88.3475 228.652 87.47 227.57 87.47C226.488 87.47 225.61 88.3475 225.61 89.43C225.61 90.5124 226.488 91.39 227.57 91.39Z" fill="#BCBFFD"/>
<path d="M205.82 69.64C206.902 69.64 207.78 68.7624 207.78 67.68C207.78 66.5975 206.902 65.72 205.82 65.72C204.738 65.72 203.86 66.5975 203.86 67.68C203.86 68.7624 204.738 69.64 205.82 69.64Z" fill="#BCBFFD"/>
<path d="M182.7 44.5599C183.47 43.7899 184.71 43.7899 185.48 44.5599C186.25 45.3299 186.25 46.5699 185.48 47.3399C184.71 48.1099 183.47 48.1099 182.7 47.3399C181.93 46.5699 181.93 45.3199 182.7 44.5599Z" fill="#BCBFFD"/>
<path d="M160.96 22.8199C161.73 22.0499 162.97 22.0499 163.74 22.8199C164.51 23.5899 164.51 24.8299 163.74 25.5999C162.97 26.3699 161.73 26.3699 160.96 25.5999C160.19 24.8199 160.19 23.5799 160.96 22.8199Z" fill="#BCBFFD"/>
<path d="M139.21 1.06993C139.98 0.299932 141.22 0.299932 141.99 1.06993C142.76 1.83993 142.76 3.07993 141.99 3.84993C141.22 4.61993 139.98 4.61993 139.21 3.84993C138.45 3.07993 138.45 1.83993 139.21 1.06993Z" fill="#BCBFFD"/>
</g>
<g clip-path="url(#clip1_2_47)">
<path d="M140.947 62.4423C153.923 62.4423 164.442 51.923 164.442 38.9469C164.442 25.9707 153.923 15.4514 140.947 15.4514C127.971 15.4514 117.451 25.9707 117.451 38.9469C117.451 51.923 127.971 62.4423 140.947 62.4423Z" fill="#6A10E7"/>
<path d="M132.495 53.9909C145.472 53.9909 155.991 43.4716 155.991 30.4954C155.991 17.5193 145.472 7 132.495 7C119.519 7 109 17.5193 109 30.4954C109 43.4716 119.519 53.9909 132.495 53.9909Z" stroke="#BCBFFD" stroke-width="1.6547" stroke-miterlimit="10" stroke-linecap="round" stroke-linejoin="round"/>
</g>
</g>
<g clip-path="url(#clip2_2_47)">
<path d="M283.6 130H148.922L141.8 136.562L134.711 130H0" stroke="#6A10E7" stroke-width="2"/>
</g>
<defs>
<clipPath id="clip0_2_47">
<rect width="189" height="189" fill="white" transform="translate(41.5 0.5)"/>
</clipPath>
<clipPath id="clip1_2_47">
<rect width="57" height="57" fill="white" transform="translate(108 6)"/>
</clipPath>
<clipPath id="clip2_2_47">
<rect width="284" height="9" fill="white" transform="translate(0 129)"/>
</clipPath>
</defs>
</svg>
