<svg width="272" height="188" viewBox="0 0 272 188" fill="none" xmlns="http://www.w3.org/2000/svg">
<mask id="mask0_1_45" style="mask-type:luminance" maskUnits="userSpaceOnUse" x="46" y="0" width="189" height="188">
<path d="M234.037 0H46.0367V188H234.037V0Z" fill="white"/>
</mask>
<g mask="url(#mask0_1_45)">
<path d="M133.563 184.65C134.333 183.88 135.573 183.88 136.343 184.65C137.113 185.42 137.113 186.661 136.343 187.431C135.573 188.201 134.333 188.201 133.563 187.431C132.793 186.661 132.793 185.41 133.563 184.65Z" fill="#BCBFFD"/>
<path d="M111.826 162.914C112.596 162.144 113.836 162.144 114.606 162.914C115.376 163.684 115.376 164.924 114.606 165.694C113.836 166.464 112.596 166.464 111.826 165.694C111.056 164.924 111.056 163.674 111.826 162.914Z" fill="#BCBFFD"/>
<path d="M90.0897 141.178C90.8597 140.408 92.0997 140.408 92.8697 141.178C93.6397 141.948 93.6397 143.188 92.8697 143.958C92.0997 144.728 90.8597 144.728 90.0897 143.958C89.3197 143.188 89.3197 141.938 90.0897 141.178Z" fill="#BCBFFD"/>
<path d="M69.7332 122.781C70.8157 122.781 71.6932 121.904 71.6932 120.821C71.6932 119.739 70.8157 118.861 69.7332 118.861C68.6508 118.861 67.7732 119.739 67.7732 120.821C67.7732 121.904 68.6508 122.781 69.7332 122.781Z" fill="#BCBFFD"/>
<path d="M46.6067 97.6944C47.3767 96.9244 48.6167 96.9244 49.3867 97.6944C50.1567 98.4644 50.1567 99.7044 49.3867 100.474C48.6167 101.244 47.3767 101.244 46.6067 100.474C45.8467 99.7044 45.8467 98.4644 46.6067 97.6944Z" fill="#BCBFFD"/>
<path d="M152.99 165.224C153.76 164.454 155 164.454 155.77 165.224C156.54 165.994 156.54 167.234 155.77 168.004C155 168.774 153.76 168.774 152.99 168.004C152.22 167.234 152.22 165.994 152.99 165.224Z" fill="#BCBFFD"/>
<path d="M131.253 143.487C132.023 142.717 133.263 142.717 134.033 143.487C134.803 144.257 134.803 145.497 134.033 146.267C133.263 147.037 132.023 147.037 131.253 146.267C130.483 145.497 130.483 144.257 131.253 143.487Z" fill="#BCBFFD"/>
<path d="M109.507 121.751C110.277 120.981 111.517 120.981 112.287 121.751C113.057 122.521 113.057 123.761 112.287 124.531C111.517 125.301 110.277 125.301 109.507 124.531C108.747 123.761 108.747 122.511 109.507 121.751Z" fill="#BCBFFD"/>
<path d="M89.1601 103.364C90.2426 103.364 91.1201 102.487 91.1201 101.404C91.1201 100.322 90.2426 99.4441 89.1601 99.4441C88.0777 99.4441 87.2001 100.322 87.2001 101.404C87.2001 102.487 88.0777 103.364 89.1601 103.364Z" fill="#BCBFFD"/>
<path d="M67.4236 81.6175C68.5061 81.6175 69.3836 80.74 69.3836 79.6575C69.3836 78.575 68.5061 77.6975 67.4236 77.6975C66.3411 77.6975 65.4636 78.575 65.4636 79.6575C65.4636 80.74 66.3411 81.6175 67.4236 81.6175Z" fill="#BCBFFD"/>
<path d="M173.797 149.147C174.879 149.147 175.757 148.269 175.757 147.187C175.757 146.104 174.879 145.227 173.797 145.227C172.714 145.227 171.837 146.104 171.837 147.187C171.837 148.269 172.714 149.147 173.797 149.147Z" fill="#BCBFFD"/>
<path d="M152.06 127.41C153.143 127.41 154.02 126.533 154.02 125.45C154.02 124.368 153.143 123.49 152.06 123.49C150.978 123.49 150.1 124.368 150.1 125.45C150.1 126.533 150.978 127.41 152.06 127.41Z" fill="#BCBFFD"/>
<path d="M128.934 102.324C129.704 101.554 130.944 101.554 131.714 102.324C132.484 103.094 132.484 104.334 131.714 105.104C130.944 105.874 129.704 105.874 128.934 105.104C128.174 104.334 128.174 103.094 128.934 102.324Z" fill="#BCBFFD"/>
<path d="M107.197 80.5873C107.967 79.8173 109.207 79.8173 109.977 80.5873C110.747 81.3573 110.747 82.5973 109.977 83.3673C109.207 84.1373 107.967 84.1373 107.197 83.3673C106.427 82.5973 106.427 81.3573 107.197 80.5873Z" fill="#BCBFFD"/>
<path d="M85.4605 58.8507C86.2305 58.0807 87.4705 58.0807 88.2405 58.8507C89.0105 59.6207 89.0105 60.8607 88.2405 61.6307C87.4705 62.4007 86.2305 62.4007 85.4605 61.6307C84.6905 60.8607 84.6905 59.6207 85.4605 58.8507Z" fill="#BCBFFD"/>
<path d="M191.834 126.37C192.604 125.6 193.844 125.6 194.614 126.37C195.384 127.14 195.384 128.38 194.614 129.15C193.844 129.92 192.604 129.92 191.834 129.15C191.074 128.38 191.074 127.14 191.834 126.37Z" fill="#BCBFFD"/>
<path d="M170.097 104.633C170.867 103.863 172.107 103.863 172.877 104.633C173.647 105.403 173.647 106.643 172.877 107.413C172.107 108.183 170.867 108.183 170.097 107.413C169.327 106.643 169.327 105.403 170.097 104.633Z" fill="#BCBFFD"/>
<path d="M148.361 82.8968C149.131 82.1268 150.371 82.1268 151.141 82.8968C151.911 83.6668 151.911 84.9068 151.141 85.6768C150.371 86.4468 149.131 86.4468 148.361 85.6768C147.591 84.9068 147.591 83.6668 148.361 82.8968Z" fill="#BCBFFD"/>
<path d="M128.014 64.5103C129.096 64.5103 129.974 63.6328 129.974 62.5503C129.974 61.4679 129.096 60.5903 128.014 60.5903C126.931 60.5903 126.054 61.4679 126.054 62.5503C126.054 63.6328 126.931 64.5103 128.014 64.5103Z" fill="#BCBFFD"/>
<path d="M104.887 39.4237C105.657 38.6537 106.897 38.6537 107.667 39.4237C108.437 40.1937 108.437 41.4337 107.667 42.2037C106.897 42.9737 105.657 42.9737 104.887 42.2037C104.117 41.4337 104.117 40.1937 104.887 39.4237Z" fill="#BCBFFD"/>
<path d="M211.261 106.953C212.031 106.183 213.271 106.183 214.041 106.953C214.811 107.723 214.811 108.963 214.041 109.733C213.271 110.503 212.031 110.503 211.261 109.733C210.491 108.953 210.491 107.713 211.261 106.953Z" fill="#BCBFFD"/>
<path d="M189.524 85.2164C190.294 84.4464 191.534 84.4464 192.304 85.2164C193.074 85.9864 193.074 87.2264 192.304 87.9964C191.534 88.7664 190.294 88.7664 189.524 87.9964C188.754 87.2164 188.754 85.9764 189.524 85.2164Z" fill="#BCBFFD"/>
<path d="M167.788 63.4698C168.558 62.6998 169.798 62.6998 170.568 63.4698C171.338 64.2398 171.338 65.4798 170.568 66.2498C169.798 67.0198 168.558 67.0198 167.788 66.2498C167.018 65.4798 167.018 64.2398 167.788 63.4698Z" fill="#BCBFFD"/>
<path d="M147.441 45.0833C148.524 45.0833 149.401 44.2058 149.401 43.1233C149.401 42.0409 148.524 41.1633 147.441 41.1633C146.359 41.1633 145.481 42.0409 145.481 43.1233C145.481 44.2058 146.359 45.0833 147.441 45.0833Z" fill="#BCBFFD"/>
<path d="M125.694 23.3468C126.777 23.3468 127.654 22.4692 127.654 21.3868C127.654 20.3043 126.777 19.4268 125.694 19.4268C124.612 19.4268 123.734 20.3043 123.734 21.3868C123.734 22.4692 124.612 23.3468 125.694 23.3468Z" fill="#BCBFFD"/>
<path d="M232.078 90.8761C233.16 90.8761 234.038 89.9985 234.038 88.9161C234.038 87.8336 233.16 86.9561 232.078 86.9561C230.995 86.9561 230.118 87.8336 230.118 88.9161C230.118 89.9985 230.995 90.8761 232.078 90.8761Z" fill="#BCBFFD"/>
<path d="M210.331 69.1295C211.414 69.1295 212.291 68.2519 212.291 67.1695C212.291 66.087 211.414 65.2095 210.331 65.2095C209.249 65.2095 208.371 66.087 208.371 67.1695C208.371 68.2519 209.249 69.1295 210.331 69.1295Z" fill="#BCBFFD"/>
<path d="M187.215 44.0531C187.985 43.2831 189.225 43.2831 189.995 44.0531C190.765 44.8231 190.765 46.0631 189.995 46.8331C189.225 47.6031 187.985 47.6031 187.215 46.8331C186.445 46.0631 186.445 44.8131 187.215 44.0531Z" fill="#BCBFFD"/>
<path d="M165.478 22.3165C166.248 21.5465 167.488 21.5465 168.258 22.3165C169.028 23.0865 169.028 24.3265 168.258 25.0965C167.488 25.8665 166.248 25.8665 165.478 25.0965C164.708 24.3165 164.708 23.0765 165.478 22.3165Z" fill="#BCBFFD"/>
<path d="M143.731 0.569962C144.501 -0.200038 145.741 -0.200038 146.512 0.569962C147.282 1.33996 147.282 2.57996 146.512 3.34996C145.741 4.11996 144.501 4.11996 143.731 3.34996C142.971 2.57996 142.971 1.33996 143.731 0.569962Z" fill="#BCBFFD"/>
<mask id="mask1_1_45" style="mask-type:luminance" maskUnits="userSpaceOnUse" x="116" y="2" width="37" height="37">
<path d="M152.02 2.99954H116.025V38.9938H152.02V2.99954Z" fill="white"/>
</mask>
<g mask="url(#mask1_1_45)">
<path d="M134.035 33.9959C141.213 33.9959 147.033 28.1765 147.033 20.9979C147.033 13.8194 141.213 8.00003 134.035 8.00003C126.856 8.00003 121.037 13.8194 121.037 20.9979C121.037 28.1765 126.856 33.9959 134.035 33.9959Z" stroke="#BCBFFD" stroke-width="10" stroke-miterlimit="10" stroke-linecap="round" stroke-linejoin="round"/>
</g>
</g>
<path d="M272 119H142.831L136 126L129.201 119H0" stroke="#6A10E7" stroke-width="2"/>
</svg>
