<svg width="189" height="189" viewBox="0 0 189 189" fill="none" xmlns="http://www.w3.org/2000/svg">
<g clip-path="url(#clip0_3_497)">
<path d="M87.54 184.68C88.31 183.91 89.55 183.91 90.32 184.68C91.09 185.45 91.09 186.69 90.32 187.46C89.55 188.23 88.31 188.23 87.54 187.46C86.77 186.69 86.77 185.44 87.54 184.68Z" fill="#BCBFFD"/>
<path d="M65.8 162.94C66.57 162.17 67.81 162.17 68.58 162.94C69.35 163.71 69.35 164.95 68.58 165.72C67.81 166.49 66.57 166.49 65.8 165.72C65.03 164.95 65.03 163.7 65.8 162.94Z" fill="#BCBFFD"/>
<path d="M44.06 141.2C44.83 140.43 46.07 140.43 46.84 141.2C47.61 141.97 47.61 143.21 46.84 143.98C46.07 144.75 44.83 144.75 44.06 143.98C43.29 143.21 43.29 141.96 44.06 141.2Z" fill="#BCBFFD"/>
<path d="M23.7 122.8C24.7825 122.8 25.66 121.922 25.66 120.84C25.66 119.758 24.7825 118.88 23.7 118.88C22.6175 118.88 21.74 119.758 21.74 120.84C21.74 121.922 22.6175 122.8 23.7 122.8Z" fill="#BCBFFD"/>
<path d="M0.57 97.71C1.34 96.94 2.58 96.94 3.35 97.71C4.12 98.48 4.12 99.72 3.35 100.49C2.58 101.26 1.34 101.26 0.57 100.49C-0.19 99.72 -0.19 98.48 0.57 97.71Z" fill="#BCBFFD"/>
<path d="M106.97 165.25C107.74 164.48 108.98 164.48 109.75 165.25C110.52 166.02 110.52 167.26 109.75 168.03C108.98 168.8 107.74 168.8 106.97 168.03C106.2 167.26 106.2 166.02 106.97 165.25Z" fill="#BCBFFD"/>
<path d="M85.23 143.51C86 142.74 87.24 142.74 88.01 143.51C88.78 144.28 88.78 145.52 88.01 146.29C87.24 147.06 86 147.06 85.23 146.29C84.46 145.52 84.46 144.28 85.23 143.51Z" fill="#BCBFFD"/>
<path d="M63.48 121.77C64.25 121 65.49 121 66.26 121.77C67.03 122.54 67.03 123.78 66.26 124.55C65.49 125.32 64.25 125.32 63.48 124.55C62.72 123.78 62.72 122.53 63.48 121.77Z" fill="#BCBFFD"/>
<path d="M43.13 103.38C44.2125 103.38 45.09 102.502 45.09 101.42C45.09 100.338 44.2125 99.46 43.13 99.46C42.0475 99.46 41.17 100.338 41.17 101.42C41.17 102.502 42.0475 103.38 43.13 103.38Z" fill="#BCBFFD"/>
<path d="M21.39 81.63C22.4725 81.63 23.35 80.7525 23.35 79.67C23.35 78.5875 22.4725 77.71 21.39 77.71C20.3075 77.71 19.43 78.5875 19.43 79.67C19.43 80.7525 20.3075 81.63 21.39 81.63Z" fill="#BCBFFD"/>
<path d="M127.78 149.17C128.862 149.17 129.74 148.292 129.74 147.21C129.74 146.128 128.862 145.25 127.78 145.25C126.698 145.25 125.82 146.128 125.82 147.21C125.82 148.292 126.698 149.17 127.78 149.17Z" fill="#BCBFFD"/>
<path d="M106.04 127.43C107.122 127.43 108 126.552 108 125.47C108 124.388 107.122 123.51 106.04 123.51C104.958 123.51 104.08 124.388 104.08 125.47C104.08 126.552 104.958 127.43 106.04 127.43Z" fill="#BCBFFD"/>
<path d="M82.91 102.34C83.68 101.57 84.92 101.57 85.69 102.34C86.46 103.11 86.46 104.35 85.69 105.12C84.92 105.89 83.68 105.89 82.91 105.12C82.15 104.35 82.15 103.11 82.91 102.34Z" fill="#BCBFFD"/>
<path d="M61.17 80.6C61.94 79.83 63.18 79.83 63.95 80.6C64.72 81.37 64.72 82.61 63.95 83.38C63.18 84.15 61.94 84.15 61.17 83.38C60.4 82.61 60.4 81.37 61.17 80.6Z" fill="#BCBFFD"/>
<path d="M39.43 58.86C40.2 58.09 41.44 58.09 42.21 58.86C42.98 59.63 42.98 60.87 42.21 61.64C41.44 62.41 40.2 62.41 39.43 61.64C38.66 60.87 38.66 59.63 39.43 58.86Z" fill="#BCBFFD"/>
<path d="M145.82 126.39C146.59 125.62 147.83 125.62 148.6 126.39C149.37 127.16 149.37 128.4 148.6 129.17C147.83 129.94 146.59 129.94 145.82 129.17C145.06 128.4 145.06 127.16 145.82 126.39Z" fill="#BCBFFD"/>
<path d="M124.08 104.65C124.85 103.88 126.09 103.88 126.86 104.65C127.63 105.42 127.63 106.66 126.86 107.43C126.09 108.2 124.85 108.2 124.08 107.43C123.31 106.66 123.31 105.42 124.08 104.65Z" fill="#BCBFFD"/>
<path d="M102.34 82.91C103.11 82.14 104.35 82.14 105.12 82.91C105.89 83.68 105.89 84.92 105.12 85.69C104.35 86.46 103.11 86.46 102.34 85.69C101.57 84.92 101.57 83.68 102.34 82.91Z" fill="#BCBFFD"/>
<path d="M81.99 64.52C83.0725 64.52 83.95 63.6425 83.95 62.56C83.95 61.4775 83.0725 60.6 81.99 60.6C80.9075 60.6 80.03 61.4775 80.03 62.56C80.03 63.6425 80.9075 64.52 81.99 64.52Z" fill="#BCBFFD"/>
<path d="M58.86 39.43C59.63 38.66 60.87 38.66 61.64 39.43C62.41 40.2 62.41 41.44 61.64 42.21C60.87 42.98 59.63 42.98 58.86 42.21C58.09 41.44 58.09 40.2 58.86 39.43Z" fill="#BCBFFD"/>
<path d="M165.25 106.97C166.02 106.2 167.26 106.2 168.03 106.97C168.8 107.74 168.8 108.98 168.03 109.75C167.26 110.52 166.02 110.52 165.25 109.75C164.48 108.97 164.48 107.73 165.25 106.97Z" fill="#BCBFFD"/>
<path d="M143.51 85.23C144.28 84.46 145.52 84.46 146.29 85.23C147.06 86 147.06 87.24 146.29 88.01C145.52 88.78 144.28 88.78 143.51 88.01C142.74 87.23 142.74 85.99 143.51 85.23Z" fill="#BCBFFD"/>
<path d="M121.77 63.48C122.54 62.71 123.78 62.71 124.55 63.48C125.32 64.25 125.32 65.49 124.55 66.26C123.78 67.03 122.54 67.03 121.77 66.26C121 65.49 121 64.25 121.77 63.48Z" fill="#BCBFFD"/>
<path d="M101.42 45.09C102.502 45.09 103.38 44.2125 103.38 43.13C103.38 42.0475 102.502 41.17 101.42 41.17C100.338 41.17 99.46 42.0475 99.46 43.13C99.46 44.2125 100.338 45.09 101.42 45.09Z" fill="#BCBFFD"/>
<path d="M79.67 23.35C80.7525 23.35 81.63 22.4725 81.63 21.39C81.63 20.3075 80.7525 19.43 79.67 19.43C78.5875 19.43 77.71 20.3075 77.71 21.39C77.71 22.4725 78.5875 23.35 79.67 23.35Z" fill="#BCBFFD"/>
<path d="M186.07 90.89C187.152 90.89 188.03 90.0125 188.03 88.93C188.03 87.8475 187.152 86.97 186.07 86.97C184.988 86.97 184.11 87.8475 184.11 88.93C184.11 90.0125 184.988 90.89 186.07 90.89Z" fill="#BCBFFD"/>
<path d="M164.32 69.14C165.402 69.14 166.28 68.2625 166.28 67.18C166.28 66.0975 165.402 65.22 164.32 65.22C163.238 65.22 162.36 66.0975 162.36 67.18C162.36 68.2625 163.238 69.14 164.32 69.14Z" fill="#BCBFFD"/>
<path d="M141.2 44.06C141.97 43.29 143.21 43.29 143.98 44.06C144.75 44.83 144.75 46.07 143.98 46.84C143.21 47.61 141.97 47.61 141.2 46.84C140.43 46.07 140.43 44.82 141.2 44.06Z" fill="#BCBFFD"/>
<path d="M119.46 22.32C120.23 21.55 121.47 21.55 122.24 22.32C123.01 23.09 123.01 24.33 122.24 25.1C121.47 25.87 120.23 25.87 119.46 25.1C118.69 24.32 118.69 23.08 119.46 22.32Z" fill="#BCBFFD"/>
<path d="M97.71 0.57C98.48 -0.2 99.72 -0.2 100.49 0.57C101.26 1.34 101.26 2.58 100.49 3.35C99.72 4.12 98.48 4.12 97.71 3.35C96.95 2.58 96.95 1.34 97.71 0.57Z" fill="#BCBFFD"/>
<g clip-path="url(#clip1_3_497)">
<path d="M99 34C106.18 34 112 28.1797 112 21C112 13.8203 106.18 8 99 8C91.8203 8 86 13.8203 86 21C86 28.1797 91.8203 34 99 34Z" stroke="#6914E7" stroke-width="10" stroke-miterlimit="10" stroke-linecap="round" stroke-linejoin="round"/>
</g>
</g>
<defs>
<clipPath id="clip0_3_497">
<rect width="188.03" height="188.03" fill="white"/>
</clipPath>
<clipPath id="clip1_3_497">
<rect width="36" height="36" fill="white" transform="translate(81 3)"/>
</clipPath>
</defs>
</svg>
