<svg width="30" height="30" viewBox="0 0 30 30" fill="none" xmlns="http://www.w3.org/2000/svg">
<path fill-rule="evenodd" clip-rule="evenodd" d="M28.125 3.71505H24.375C24.375 1.67177 22.6875 0 20.625 0H9.375C7.3125 0 5.625 1.67177 5.625 3.71505H1.875C0.84375 3.71505 0 4.55094 0 5.57258V11.1452C0 12.947 1.40618 16.1791 6.37493 16.6249C7.57493 19.3926 10.0875 21.4916 13.125 22.1045V26.0054H9.375C8.34375 26.0054 7.5 26.8412 7.5 27.8629C7.5 28.8845 8.34375 29.7204 9.375 29.7204H20.625C21.6562 29.7204 22.5 28.8845 22.5 27.8629C22.5 26.8412 21.6562 26.0054 20.625 26.0054H16.875V22.1045C19.9312 21.4916 22.4437 19.4112 23.625 16.6249C28.5937 16.1791 30 12.9284 30 11.1452V5.57258C30 4.55094 29.175 3.71505 28.125 3.71505ZM5.625 12.7798C3.95625 12.334 3.76875 11.3309 3.75 11.0894V7.4301H5.625V12.7798ZM20.625 13.0027C20.625 16.0862 18.1125 18.5753 15 18.5753C11.8875 18.5753 9.375 16.0862 9.375 13.0027V3.71505H20.625V13.0027ZM24.375 12.7798V7.4301H26.25V11.0894C26.25 11.3309 26.0625 12.334 24.375 12.7798Z" fill="#6A10E7"/>
</svg>
